<svg id="Layer_1" data-name="Layer 1" xmlns="http://www.w3.org/2000/svg" xmlns:xlink="http://www.w3.org/1999/xlink" viewBox="0 0 441.29 162.21"><defs><style>.cls-1{fill:none;}.cls-2{fill:#f7931e;}.cls-3{fill:#1a1a1a;}.cls-4{clip-path:url(#clip-path);}.cls-5{fill:#d98f44;}.cls-6{fill:#edab60;}.cls-7{fill:#f3d7b9;}.cls-8{fill:#333;}.cls-9{fill:#c1262f;}.cls-10{fill:#080505;}.cls-11{fill:#f9ae3b;}.cls-12{opacity:0.18;}.cls-13{fill:#d69238;}.cls-14{opacity:0.27;}.cls-15{fill:#f2f2f2;}.cls-16{fill:#fff;}</style><clipPath id="clip-path" transform="translate(-93.71 -179.53)"><circle class="cls-1" cx="162.54" cy="244.67" r="84.25"/></clipPath></defs><title>logo full</title><circle class="cls-2" cx="68.79" cy="79.8" r="68.79"/><path d="M315,292.82c-5.91,0-10.59-2-13.93-5.95-5.33-6.3-5.33-15.33-5.19-18.1V226.85A2.74,2.74,0,0,1,298.5,224h13.26a2.74,2.74,0,0,1,2.58,2.88v41.86c0,.18,0,.38,0,.61a4.87,4.87,0,0,0,.33,2.06h0a2.27,2.27,0,0,0,.28,0h0a3.19,3.19,0,0,0,.69-.09,2.22,2.22,0,0,1,.51-.06,2.43,2.43,0,0,1,1.57.59,3,3,0,0,1,1,2.11l.89,15.73a2.8,2.8,0,0,1-2.39,3.05C316.51,292.79,315.76,292.82,315,292.82Z" transform="translate(-93.71 -179.53)"/><path class="cls-3" d="M311.76,226.85v42c.13,1.12-.22,5.41,3.24,5.41a5.4,5.4,0,0,0,1.2-.14l.89,15.73c-.71.06-1.4.08-2,.08-16.49,0-16.75-17.2-16.54-21.08v-42h13.26m0-5.75H298.5a5.48,5.48,0,0,0-5.17,5.75v41.84c-.15,3.17-.08,13.08,5.9,20.15,3.84,4.55,9.16,6.85,15.81,6.85.78,0,1.6,0,2.42-.1a5.57,5.57,0,0,0,4.79-6.09l-.89-15.73a6,6,0,0,0-2-4.21,5,5,0,0,0-2.42-1.13V226.85a5.48,5.48,0,0,0-5.17-5.75Z" transform="translate(-93.71 -179.53)"/><path d="M336.81,278.27a2.51,2.51,0,0,1-2-1.07,21.7,21.7,0,0,1-2.4.13A18.49,18.49,0,0,1,320.21,273c-5-4.25-7.94-11.59-7.88-19.63s3.1-15.5,8.13-19.64c3.84-3.17,9.12-5.22,15.28-5.9h.07c1.41-.12,2.88-.17,4.37-.17a58.43,58.43,0,0,1,10.59,1,2.83,2.83,0,0,1,2.11,2.84l-.15,44a2.74,2.74,0,0,1-2.59,2.86Z" transform="translate(-93.71 -179.53)"/><path class="cls-3" d="M340.18,230.5a54.47,54.47,0,0,1,10.11.91l-.15,44H336.81V274a22.27,22.27,0,0,1-4.41.46,16,16,0,0,1-10.62-3.75c-9.48-8.07-8.89-27.18.22-34.68,3.78-3.13,8.81-4.77,14-5.35,1.44-.12,2.85-.17,4.18-.17m-13,22.49c0,3.25,2.28,6.45,6,6.45-3.75,0-6-3.2-6-6.45s2.45-6.81,8.24-6.81c-5.79,0-8.24,3.43-8.24,6.81m13-28.24c-1.55,0-3.09.06-4.57.18l-.13,0c-6.62.73-12.35,3-16.57,6.46-5.66,4.66-9.1,12.86-9.16,21.91s3.25,17.15,8.89,21.95a20.91,20.91,0,0,0,13.76,4.93c.5,0,1,0,1.51,0a4.83,4.83,0,0,0,2.9,1h13.33a5.48,5.48,0,0,0,5.17-5.72l.15-44a5.62,5.62,0,0,0-4.22-5.67,58.5,58.5,0,0,0-11.06-1Z" transform="translate(-93.71 -179.53)"/><path d="M379.25,295.82a2.46,2.46,0,0,1-1.86-.92l-7.6-9.07v2.58a2.75,2.75,0,0,1-2.58,2.88H354a2.74,2.74,0,0,1-2.58-2.88V224.33a2.73,2.73,0,0,1,2.58-2.87h13.26a2.74,2.74,0,0,1,2.58,2.87V245l8.59-8.45a2.41,2.41,0,0,1,1.71-.72h.25a2.54,2.54,0,0,1,1.81,1.12l8.44,12.27a3.11,3.11,0,0,1-.35,3.91L378.1,264.91,390.73,280a3.12,3.12,0,0,1,0,4l-9.56,11a2.47,2.47,0,0,1-1.85.87Z" transform="translate(-93.71 -179.53)"/><path class="cls-3" d="M367.21,224.33v27l12.88-12.69,8.45,12.28-14.15,13.75L388.83,282l-9.55,10.95-12.07-14.41v9.88H354V224.33h13.26m0-5.75H354c-2.85,0-5.17,2.58-5.17,5.75v64.08a5.48,5.48,0,0,0,5.17,5.75h13.26a5,5,0,0,0,4.12-2.27l4.17,5a4.89,4.89,0,0,0,3.73,1.83h0A4.93,4.93,0,0,0,383,297l9.55-11a6.21,6.21,0,0,0,.08-7.91l-10.82-13,10.14-9.86a6.2,6.2,0,0,0,.7-7.82l-8.44-12.27a5,5,0,0,0-3.61-2.23,4.07,4.07,0,0,0-.5,0,4.86,4.86,0,0,0-3.42,1.45l-4.29,4.22V224.33c0-3.17-2.32-5.75-5.17-5.75Z" transform="translate(-93.71 -179.53)"/><path d="M399.69,278.27c-13.9,0-23.25-13.71-23.25-26.51,0-14.24,10.65-26.27,23.25-26.27,13.95,0,23.32,13.58,23.32,26.27C423,266.13,412.33,278.27,399.69,278.27Zm0-32.29c-2.72,0-4.75,3.05-4.75,5.78,0,3.11,2.22,5.85,4.75,5.85,3,0,4.82-3,4.82-5.85C404.51,248.68,402.26,246,399.69,246Z" transform="translate(-93.71 -179.53)"/><path class="cls-3" d="M399.69,228.36c11.92,0,20.74,11.53,20.74,23.4,0,12.93-9.63,23.64-20.74,23.64-11.92,0-20.66-11.87-20.66-23.64,0-12.85,9.63-23.4,20.66-23.4m0,32.13c4.37,0,7.41-4.29,7.41-8.73,0-4.62-3.41-8.65-7.41-8.65-4.22,0-7.33,4.36-7.33,8.65,0,4.61,3.26,8.73,7.33,8.73m0-37.88c-14,0-25.83,13.35-25.83,29.15,0,14.19,10.38,29.38,25.83,29.38,14,0,25.91-13.45,25.91-29.38a31.54,31.54,0,0,0-7.3-20.09c-4.95-5.84-11.55-9.06-18.61-9.06Zm0,32.13c-1.11,0-2.16-1.45-2.16-3,0-1.31,1-2.9,2.16-2.9,1,0,2.24,1.33,2.24,2.9,0,1.25-.78,3-2.24,3Z" transform="translate(-93.71 -179.53)"/><path d="M435.05,294.21a16.52,16.52,0,0,1-12.9-5.47c-5.67-6.33-5.78-15.73-5.78-16.78v-9.13h-.82A2.74,2.74,0,0,1,413,260V245.21a2.74,2.74,0,0,1,2.58-2.88h.82V236a2.74,2.74,0,0,1,2.59-2.87h13.4A2.74,2.74,0,0,1,435,236v6.35h5.26a2.75,2.75,0,0,1,2.59,2.88V260a2.75,2.75,0,0,1-2.59,2.88H435V272c0,1.43,1.19,1.43,1.74,1.43a7.22,7.22,0,0,0,1.81-.27,2.06,2.06,0,0,1,.6-.08,2.64,2.64,0,0,1,2.51,2.18l3.18,14.33a3.16,3.16,0,0,1-.29,2.18,2.68,2.68,0,0,1-1.6,1.31A30.23,30.23,0,0,1,435.05,294.21Z" transform="translate(-93.71 -179.53)"/><path class="cls-3" d="M432.36,236v9.23h7.85V260h-7.85v12s-.05,4.3,4.33,4.3a9.2,9.2,0,0,0,2.41-.35l3.19,14.33a27.69,27.69,0,0,1-7.24,1.07C418.78,291.33,419,272.05,419,272V260h-3.41V245.21H419V236h13.4m0-5.75H419a5.48,5.48,0,0,0-5.17,5.75v3.82a5.75,5.75,0,0,0-3.41,5.41V260a5.75,5.75,0,0,0,3.41,5.41V272c0,1.14.13,11.63,6.53,18.79a18.89,18.89,0,0,0,14.73,6.31,32.46,32.46,0,0,0,8.47-1.23,5.26,5.26,0,0,0,3.19-2.61,6.32,6.32,0,0,0,.59-4.36l-3.18-14.33a5.3,5.3,0,0,0-5-4.37,4.57,4.57,0,0,0-1.21.16l-.37.09V265.7h2.68a5.48,5.48,0,0,0,5.17-5.75V245.21a5.48,5.48,0,0,0-5.17-5.75h-2.68V236a5.48,5.48,0,0,0-5.17-5.75Z" transform="translate(-93.71 -179.53)"/><path d="M453.33,279.9c-9.68,0-20.16-7.87-20.3-25.14,0-8.12,2.51-15.42,7.13-20.56a19.5,19.5,0,0,1,14.27-6.89c8.26,0,18,6.7,18.14,25.59a47.25,47.25,0,0,1-.49,7.43,2.9,2.9,0,0,1-1.1,1.9,3.17,3.17,0,0,1,.2,1.79c-1.67,9.5-8.84,15.88-17.84,15.88Zm.68-34.61a2.82,2.82,0,0,0-2.29,1.22l4.51-.09-.12-.15A2.79,2.79,0,0,0,454,245.29Z" transform="translate(-93.71 -179.53)"/><path class="cls-3" d="M454.43,230.18c7.94,0,15.41,6.94,15.55,22.75a44.76,44.76,0,0,1-.44,6.92H448.21a4.62,4.62,0,0,0,4.78,3.69c2.05,0,4-1.07,4.33-2.79l11.33,2.72c-1.56,8.86-8.32,13.55-15.32,13.55-8.61,0-17.59-7.1-17.71-22.28,0-15.41,9.69-24.56,18.81-24.56M448,249.47l11.55-.25c.15-4.28-2.64-6.81-5.53-6.81-2.67,0-5.42,2.15-6,7.06m6.44-25h0c-5.83,0-11.7,2.82-16.11,7.74-5.1,5.69-7.89,13.71-7.87,22.59.09,10.82,4,17.33,7.21,20.9a21,21,0,0,0,15.67,7.11c10.28,0,18.47-7.31,20.39-18.19a6.32,6.32,0,0,0,.09-1.49,6.29,6.29,0,0,0,.82-2.27,51.49,51.49,0,0,0,.52-7.89v-.06c-.17-19.64-10.53-28.44-20.72-28.44Z" transform="translate(-93.71 -179.53)"/><path d="M494.2,290.79a2.48,2.48,0,0,1-1.87-.92l-7.6-9.07v2.58a2.74,2.74,0,0,1-2.58,2.88H468.89a2.75,2.75,0,0,1-2.58-2.88V219.3a2.75,2.75,0,0,1,2.58-2.88h13.26a2.74,2.74,0,0,1,2.58,2.88v20.63l8.59-8.45a2.45,2.45,0,0,1,1.72-.72h.24a2.54,2.54,0,0,1,1.81,1.12l8.44,12.27a3.1,3.1,0,0,1-.35,3.91L493,259.88,505.67,275a3.12,3.12,0,0,1,0,4l-9.55,11a2.48,2.48,0,0,1-1.86.88Z" transform="translate(-93.71 -179.53)"/><path class="cls-3" d="M482.15,219.3v27L495,233.63l8.44,12.28-14.15,13.75L503.77,277l-9.55,11L482.15,273.5v9.88H468.89V219.3h13.26m0-5.75H468.89a5.48,5.48,0,0,0-5.17,5.75v64.08a5.48,5.48,0,0,0,5.17,5.75h13.26a5,5,0,0,0,4.12-2.27l4.17,5a4.89,4.89,0,0,0,3.73,1.83h.05a4.93,4.93,0,0,0,3.71-1.74l9.56-11a6.23,6.23,0,0,0,.07-7.91l-10.81-13,10.13-9.86a6.2,6.2,0,0,0,.7-7.82l-8.44-12.27a5,5,0,0,0-3.61-2.23,4,4,0,0,0-.49,0,4.87,4.87,0,0,0-3.43,1.45l-4.29,4.22V219.3a5.48,5.48,0,0,0-5.17-5.75Z" transform="translate(-93.71 -179.53)"/><path d="M512.22,283a17.06,17.06,0,0,1-12.91-5.9c-2.77-3.11-6-8.88-5.91-18.72V236.1a2.75,2.75,0,0,1,2.58-2.88h13.33a2.75,2.75,0,0,1,2.59,2.88v21.08c.06,2.72.69,3.93,1,4.29.37-.38,1-1.74.93-4.35v-20a2.75,2.75,0,0,1,2.58-2.88h13.41a2.44,2.44,0,0,1,1.83.85,3,3,0,0,1,.75,2L532.34,258c.17,9.31-3.2,15.14-6.05,18.39A18.89,18.89,0,0,1,512.22,283Z" transform="translate(-93.71 -179.53)"/><path class="cls-3" d="M509.31,236.1v21.08c.11,4.95,1.85,7.25,3.58,7.25s3.69-2.61,3.53-7.41V237.09h13.41L529.75,258c.27,14.38-8.75,22.12-17.53,22.12-8.31,0-16.42-6.93-16.24-21.71V236.1h13.33m20.52,1h0m-20.52-6.74H496a5.48,5.48,0,0,0-5.17,5.75v22.28c-.12,10.81,3.55,17.24,6.65,20.74a19.55,19.55,0,0,0,14.76,6.76,21.35,21.35,0,0,0,15.91-7.46c3.2-3.63,7-10.12,6.79-20.46l.08-20.71v-.16a5.48,5.48,0,0,0-5.17-5.75H516.42a4.79,4.79,0,0,0-3.09,1.14,5,5,0,0,0-4-2.13Z" transform="translate(-93.71 -179.53)"/><path d="M277.82,268.07a8.19,8.19,0,0,1-6.29-2.9,10,10,0,0,1-2.32-6.43c0-4.82,3.35-9.69,10.82-9.69a2.89,2.89,0,0,1,0,5.75c-3.48,0-5.65,1.51-5.65,3.94a3.81,3.81,0,0,0,.89,2.46,3.26,3.26,0,0,0,2.55,1.12,2.89,2.89,0,0,1,0,5.75Z" transform="translate(-93.71 -179.53)"/><path class="cls-3" d="M280,251.93c-5.79,0-8.24,3.43-8.24,6.81,0-3.38,2.45-6.81,8.24-6.81m-8.24,6.81c0,3.25,2.28,6.45,6,6.45-3.75,0-6-3.2-6-6.45M280,246.18c-9.21,0-13.41,6.51-13.41,12.56a13.09,13.09,0,0,0,3,8.42,10.63,10.63,0,0,0,8.16,3.78,5.48,5.48,0,0,0,5.17-5.75c0-3.17-2.32-5.75-5.17-5.75-.48,0-.63-.17-.68-.23a.74.74,0,0,1-.18-.47c0-.45,1.07-1.06,3.07-1.06a5.78,5.78,0,0,0,0-11.5Zm-8.24,18.31h0Zm0,0h0Z" transform="translate(-93.71 -179.53)"/><ellipse cx="159.61" cy="42.01" rx="9.03" ry="9.96"/><path class="cls-3" d="M253.32,214.45c3.55,0,6.44,3.13,6.44,7.08s-2.89,7.09-6.44,7.09-6.45-3.13-6.45-7.09,3-7.08,6.45-7.08m0-5.75c-6.41,0-11.62,5.76-11.62,12.83s5.21,12.84,11.62,12.84,11.61-5.76,11.61-12.84-5.21-12.83-11.61-12.83Z" transform="translate(-93.71 -179.53)"/><path d="M242.49,294.55a30.15,30.15,0,0,1-3.6-.23,2.81,2.81,0,0,1-2.29-3.14l1.33-14.67a3,3,0,0,1,.94-1.93,2.42,2.42,0,0,1,1.63-.65h.26a5.58,5.58,0,0,0,.79.05,2.26,2.26,0,0,0,1.76-.55,5.33,5.33,0,0,0,.68-3.34V232.82a2.75,2.75,0,0,1,2.59-2.88h13.33a2.75,2.75,0,0,1,2.58,2.88v12a3.06,3.06,0,0,1-.57,1.8c-4.88,6.75-4.93,18.5-.1,25.16a3.08,3.08,0,0,1,.57,2.07c-.53,6.24-3.53,20.74-19.89,20.74Z" transform="translate(-93.71 -179.53)"/><path class="cls-3" d="M259.91,232.82v12c-5.57,7.69-5.84,20.85-.1,28.76-.54,6.39-3.45,18.13-17.31,18.13a28,28,0,0,1-3.33-.2l1.33-14.67a7.82,7.82,0,0,0,1.05.07c3.61,0,5.09-2.45,5-6.82V232.82h13.33m0-5.75H246.58a5.48,5.48,0,0,0-5.17,5.75v37.33c0,.41,0,.72,0,1l-.35,0a4.71,4.71,0,0,0-.53,0,4.85,4.85,0,0,0-3.26,1.3,5.93,5.93,0,0,0-1.88,3.88L234,290.89a5.62,5.62,0,0,0,4.59,6.29,32.57,32.57,0,0,0,3.88.24c12.83,0,21.22-8.72,22.46-23.34a6.18,6.18,0,0,0-1.13-4.15c-4.13-5.69-4.08-15.76.1-21.54a6.2,6.2,0,0,0,1.15-3.61v-12a5.48,5.48,0,0,0-5.17-5.75Z" transform="translate(-93.71 -179.53)"/><path d="M281.39,284a2.51,2.51,0,0,1-2-1.07,21.7,21.7,0,0,1-2.4.13,18.49,18.49,0,0,1-12.19-4.35,19.4,19.4,0,0,1-3.1-3.38,3.09,3.09,0,0,1-.56-2.08,24.38,24.38,0,0,0,.08-3.09v-25.4a3.08,3.08,0,0,1,.57-1.8,18.42,18.42,0,0,1,3.27-3.52c3.83-3.17,9.11-5.22,15.27-5.9h.07c1.41-.12,2.88-.17,4.38-.17a57.33,57.33,0,0,1,10.58,1,2.82,2.82,0,0,1,2.11,2.84l-.15,44a2.73,2.73,0,0,1-2.58,2.86Z" transform="translate(-93.71 -179.53)"/><path class="cls-3" d="M284.76,236.25a54.32,54.32,0,0,1,10.1.91l-.14,44H281.39v-1.4a22.36,22.36,0,0,1-4.42.46,16,16,0,0,1-10.62-3.75,16.37,16.37,0,0,1-2.66-2.91,28.68,28.68,0,0,0,.09-3.49V244.78a16.34,16.34,0,0,1,2.79-3c3.78-3.13,8.82-4.78,14-5.35,1.44-.12,2.85-.17,4.19-.17m-13,22.49c0,3.25,2.28,6.45,6,6.45-3.75,0-6-3.2-6-6.45s2.45-6.81,8.24-6.81c-5.79,0-8.24,3.43-8.24,6.81m13-28.24c-1.56,0-3.1.06-4.57.18l-.13,0c-6.63.73-12.36,3-16.58,6.46a21.48,21.48,0,0,0-3.72,4,6.15,6.15,0,0,0-1.15,3.6v25.27c0,.09,0,.18,0,.27a22.26,22.26,0,0,1-.08,2.69,6.24,6.24,0,0,0,1.13,4.15,22.22,22.22,0,0,0,3.54,3.86A20.93,20.93,0,0,0,277,286c.5,0,1,0,1.52,0a4.78,4.78,0,0,0,2.9,1h13.33c2.84,0,5.15-2.56,5.17-5.72l.14-44a5.62,5.62,0,0,0-4.21-5.67,58.74,58.74,0,0,0-11.06-1Z" transform="translate(-93.71 -179.53)"/><path d="M263.69,276.42a2.48,2.48,0,0,1-2-1.07c-6.44-8.88-6.4-23.4.09-32.37a2.5,2.5,0,0,1,2-1.07,2.34,2.34,0,0,1,.86.16,2.86,2.86,0,0,1,1.73,2.71V270a31.22,31.22,0,0,1-.11,3.82,2.83,2.83,0,0,1-1.82,2.49A2.45,2.45,0,0,1,263.69,276.42Z" transform="translate(-93.71 -179.53)"/><path class="cls-3" d="M263.78,244.78v25.27a28.68,28.68,0,0,1-.09,3.49c-5.75-7.91-5.47-21.07.09-28.76m0-5.75a5,5,0,0,0-4,2.15c-7.22,10-7.26,26.11-.09,36a5,5,0,0,0,4,2.13,4.79,4.79,0,0,0,1.49-.24,5.67,5.67,0,0,0,3.66-5,34.31,34.31,0,0,0,.11-4.15V244.78a5.74,5.74,0,0,0-3.45-5.42,4.69,4.69,0,0,0-1.72-.33Z" transform="translate(-93.71 -179.53)"/><g class="cls-4"><path class="cls-3" d="M108,225.44c-.36,3.89-1.43,6.08,1.5,10.13s3.51,4.55,7.77,4.53,10.54-.13,10.54-.13-2.92,7.73-3.45,10.35c-.56,2.82-1.29,7.7-1.29,7.7s-.18-1.19-1.77-1-1.49,2.64-2,4.16c-.65,1.82-1.21,2.81,2.07,5.78a30.81,30.81,0,0,1,5.29,6.93c.22.17,4.3,9.21,11.21,12s14.11,6,18,7.23,5.53,4.21,11.53.89,10.34-5.58,11.27-6.13,3.8-3,7-4.29a58.09,58.09,0,0,1,7.79-2.25c.4-.06,2.58-.38,4.67-4.14s7.4-2.11,10.11-5.76,7.44-16.93,7.72-23.26c.22-5,.06-7.25.22-8.15a5.08,5.08,0,0,0,0-1.62c0-.07,0-.15-.05-.24a10.45,10.45,0,0,0-1.46-20.54,10.49,10.49,0,0,0,1.29-6.79,10.38,10.38,0,0,0-11.75-8.81l-.33.06a11.16,11.16,0,0,0-.09-2.23,10.41,10.41,0,0,0-11.76-8.82,10,10,0,0,0-3.57,1.24,10.4,10.4,0,0,0-11.74-8.72,10.27,10.27,0,0,0-4.17,1.61,10.34,10.34,0,0,0-10.58-5.31,10.13,10.13,0,0,0-5.57,2.72,10.29,10.29,0,0,0-17.49,5.19,10.2,10.2,0,0,0-6.38-1.12,10.32,10.32,0,0,0-8.1,6.48,10.51,10.51,0,0,0-2.91,0,10.4,10.4,0,0,0-8.71,11.84h0a10.46,10.46,0,0,0-4.1,18.64A3.6,3.6,0,0,0,108,225.44ZM123.43,221a10.45,10.45,0,0,0,1.5-7.15h0a10.33,10.33,0,0,0,7.61-6.4,10.14,10.14,0,0,0,2.91,0,10.35,10.35,0,0,0,8.61-8.21A10.28,10.28,0,0,0,156,197.58a10.26,10.26,0,0,0,8.88,3,10.11,10.11,0,0,0,4.17-1.6,10.31,10.31,0,0,0,14.16,4.08A10.39,10.39,0,0,0,195,211.78l.33-.06a10.52,10.52,0,0,0,9.38,11.11c-.12.2-.23.42-.34.63a37.79,37.79,0,0,0-14.82-4C171.8,218.05,140.18,219.81,123.43,221Z" transform="translate(-93.71 -179.53)"/><path class="cls-5" d="M152.75,292.2a23.82,23.82,0,0,0,7.32,4.64c1.55,1.13,3.25,0,4.87.29,1,.17,1.58.3,1.1,1.33-1.1,2.34-1.69,4.92-3.29,7-.23.94.37,1.67.87,2.6a51.9,51.9,0,0,0,2.43-5.59,15,15,0,0,1,10.51-10.57c3-.93,5.39-2.87,5.64-6.69-4.21,1.54-8.4,2.9-12.26,5.08a26.21,26.21,0,0,1-6.69,3,14.7,14.7,0,0,1-10.31-1.41C152.88,292,152.81,292.11,152.75,292.2Z" transform="translate(-93.71 -179.53)"/><path class="cls-6" d="M162.75,305.48c1.6-2.1,2.19-4.68,3.29-7,.48-1-.14-1.16-1.1-1.33-1.62-.27-3.32.84-4.87-.29C161.1,299.68,161.33,302.76,162.75,305.48Z" transform="translate(-93.71 -179.53)"/><path class="cls-7" d="M165.19,340.09c7.81-1.16,16.14-3.89,19.36-6.36a34.89,34.89,0,0,0,10-13.11,1,1,0,0,0,.07-.47c0-.08-.74-8.14-1.62-16.31-1.81-16.79-2.46-17.71-2.77-18.15-1.56-2.24-7.11-1.54-8.21-1.38a1,1,0,0,0-.67.4,1,1,0,0,0-.17.76,4.24,4.24,0,0,1-1.06,2.93c-1,1.22-3.32,2.21-5,2.94-.75.31-1.39.59-1.85.84l-.47.26c-1.65.91-4.15,2.29-5,3.94s-3.82,8.61-4,9.06a2.13,2.13,0,0,0-.13-.43s0,0,0-.05c-.15-.45-1.92-6-2-6.64a12,12,0,0,0-.49-1.78,1,1,0,0,0-.45-.53l-5.95-3.4-3.35-2.46a1.19,1.19,0,0,0-.25-.13l-7-2.5a.87.87,0,0,0-.48,0,.91.91,0,0,0-.33.1,1,1,0,0,0-.5.64c-.27,1.07-6.65,26.43-3.47,42.44C141,338.83,150.4,342.27,165.19,340.09Z" transform="translate(-93.71 -179.53)"/><path class="cls-3" d="M143.8,288.46l6.95,2.5,3.39,2.49,6,3.43a11,11,0,0,1,.45,1.6c.09.63,2,6.57,2.06,6.8a1.63,1.63,0,0,1,.11,1.08c-.09.75.87,1.78.87,1.78l1-2.3s3.2-7.46,4-9,3.62-3,5.07-3.78,5.63-2.06,7.19-4a5.15,5.15,0,0,0,1.26-3.73s5.95-.88,7.24,1,4.21,34,4.21,34a34.33,34.33,0,0,1-9.69,12.7c-2.81,2.15-10.63,4.93-18.9,6.16-11,1.63-22.88.48-24.69-8.65-3.18-16,3.45-42,3.45-42m-.29-2a2.27,2.27,0,0,0-.65.22,2,2,0,0,0-1,1.27c-.07.27-1.7,6.71-3,15.21-1.71,11.51-1.88,20.82-.52,27.67,1.74,8.78,11.57,12.52,27,10.24,8.1-1.19,16.44-3.95,19.83-6.55A36.06,36.06,0,0,0,195.49,321a2,2,0,0,0,.14-.94c0-.08-.74-8.15-1.63-16.33-1.83-17.05-2.47-18-2.93-18.62-.95-1.34-2.82-2-5.74-2a25.59,25.59,0,0,0-3.45.23,2,2,0,0,0-1.38.79,1.88,1.88,0,0,0-.31,1.5,3.36,3.36,0,0,1-.85,2.17c-.8,1-3.11,2-4.64,2.64a18.86,18.86,0,0,0-1.95.89l-.46.25c-2.33,1.28-4.5,2.58-5.42,4.36-.51,1-2,4.31-3,6.65-.55-1.73-1.23-4-1.33-4.43a12.84,12.84,0,0,0-.54-1.94,1.94,1.94,0,0,0-.89-1.06l-5.9-3.38-3.31-2.42a2.19,2.19,0,0,0-.5-.27l-7-2.5a2.14,2.14,0,0,0-1-.1Z" transform="translate(-93.71 -179.53)"/><path class="cls-3" d="M205.52,299.1c-1.3-.62-5.33-4.49-7-4.85S188.26,299,187.4,302.8s.23,12.54,1,13.65a12.49,12.49,0,0,0,3.81,3.1c1.21.62,5.36,2.66,7,2.2s8.92-9,8.79-11.25S205.52,299.1,205.52,299.1Z" transform="translate(-93.71 -179.53)"/><path class="cls-3" d="M122.07,306.92c.79-.72,2.82-4.33,3.93-4.95s8.29,1.18,9.72,3.68,2.52,9,2.21,9.9a9.29,9.29,0,0,1-2,3c-.73.7-3.24,3-4.52,3.07s-8.26-4.5-8.64-6.1S122.07,306.92,122.07,306.92Z" transform="translate(-93.71 -179.53)"/><path class="cls-8" d="M121.65,260.58c-.49,3,2.1,6.66,5.4,7.94,7.23,2.8,13.55.75,19.35-3.71,1.12-.87,2.76-1.48,2.48-3.58-.1-.78.8-.21,1.11.07a30.48,30.48,0,0,0,12.14,6.6A27.42,27.42,0,0,0,181.2,267c2.87-1.23,5.44-5,4.48-7.51-.94.49-1.25,1.57-2.19,2.11-3.25,1.88-6.07,1-8.51-1.54a67.37,67.37,0,0,0-8.79-8.17c-4.17-3-11.47-3.34-15.15.26a3,3,0,0,1-3.63.44c-5.11-2.69-8.06-2.09-11.53,2.52-1.2,1.61-2.4,3.22-3.57,4.85-1.69,2.35-4.16,3-6.83,3A4.5,4.5,0,0,1,121.65,260.58Z" transform="translate(-93.71 -179.53)"/><path class="cls-6" d="M163.23,273.49a20.65,20.65,0,0,1,0,6.18c-1,4.85-5.17,6.72-9.37,4.08-2.73-1.72-4.34-4.38-5.63-7.23-.93-2.06-1.71-4.18-2.56-6.28-1.79,2.37-4.36,3.44-7.11,4.18-3.45.92-6.67-.07-9.85-1.28,4.2,7.41,10.63,11.71,18.85,13.54l.24-.35c0-.58-.83-.87-.49-1.68,1.05,0,1.61.84,2.29,1.47,3.1,2.87,6.51,5.08,11,4.93,3.18-.1,5.81-1.57,8.27-3.38,1.87-1.36,3.67-2.83,5.5-4.26.17-.17.32-.42.53-.51a23.26,23.26,0,0,0,9.9-8.35c1.1-1.64,2.4-3.31,2.31-5.85a30.92,30.92,0,0,1-2.58,2.39c-5.06,3.67-10.77,4.18-16.75,3.36C166.24,274.23,164.87,273.24,163.23,273.49Z" transform="translate(-93.71 -179.53)"/><path class="cls-6" d="M158.37,246.63c7,.22,11.9,4.22,16.34,9,.66.71,1.25,1.49,1.95,2.17,1.37,1.33,2.83,2.55,5,1.65a5,5,0,0,0,3-5.16c-.11-1.13.06-1.45,1.13-1a72.59,72.59,0,0,0-3.5-10.33,2.68,2.68,0,0,0-3-2.07,57.79,57.79,0,0,1-24.79-4.34,8.78,8.78,0,0,0-6.79,0c-4.08,1.61-5,4.65-2.79,8.54a7.78,7.78,0,0,0,8.11-1.92c.84-.82,1.81-1.73,3-.94s.87,2.13.84,3.32a2.24,2.24,0,0,1-.23.64C157.24,246.69,157.89,246.17,158.37,246.63Z" transform="translate(-93.71 -179.53)"/><path class="cls-5" d="M179.25,241a2.68,2.68,0,0,1,3,2.07,72.59,72.59,0,0,1,3.5,10.33c.54,1.39,1.66,2.45,2.12,3.89a9.14,9.14,0,0,1-4,11.1c-5.8,3.57-12.19,3.92-18.73,3.07-2.43-.32-2.42-.39-1.87,2.07,1.64-.26,3,.73,4.56.95,6,.82,11.69.31,16.75-3.36a30.92,30.92,0,0,0,2.58-2.39c.09,2.54-1.21,4.21-2.31,5.85a23.26,23.26,0,0,1-9.9,8.35c-.21.09-.36.34-.53.51.32.69-.57,1.15-.29,2,8.15-2.9,16-6.24,22.47-12.25.69-.64.8-1.06.22-1.9-.39-.55-1.73-1.47-.09-2.25.06-1.25-2-2-.79-3.52-2.32-1.2-2.89-3.61-3.62-5.73A65,65,0,0,1,189,243.81a2.4,2.4,0,0,0-2.26-2.52C184.22,240.76,181.77,240.27,179.25,241Z" transform="translate(-93.71 -179.53)"/><path class="cls-6" d="M142.65,248.18c-1.93-4.78-2-5-1.35-9.55-3.14.5-6.25,1.27-9.43.54-.75-.18-.85.42-1,.87a70.67,70.67,0,0,0-5.12,19.06c-.12,1,.24,1.24,1.17,1a6.11,6.11,0,0,0,3.42-2.09c1-1.19,1.93-2.44,2.8-3.72C135.42,250.92,138.24,248.33,142.65,248.18Z" transform="translate(-93.71 -179.53)"/><path class="cls-8" d="M195,260c.67-2.17,1.2-4.36,2.56-6.22q4.16-5.72,10.24-2.1c.48.29.91,1,1.48.69s.4-1.15.44-1.77c.12-2-.7-2.93-2.73-3.44-4.62-1.18-9.16-2.69-13.74-4.06-.72-.22-1.56-.47-1.38.76C192.64,249.27,193.13,254.73,195,260Z" transform="translate(-93.71 -179.53)"/><path class="cls-6" d="M197.07,263.62c.8-2.52,1.2-5.17,2.37-7.56s3-3.13,5.61-2c2.22,1,3.18,2.94,3.9,5.05,1.37,4,.33,8.18-2.47,10.25-2.64,1.94-6.87,1.78-9.79-.38.06-1.25-2-2-.79-3.52C196.88,265.22,196.85,264.33,197.07,263.62Zm10.31-2.45c.3-1.77,0-3.39-1.65-4.4-1.15-.73-2.21-.32-3.13.59-1.83,1.81-2.34,3.26-1.31,4.89s-.12,2.64-.74,3.83c3.48,1.12,5.82-.19,6.26-3.5A7.06,7.06,0,0,0,207.38,261.17Z" transform="translate(-93.71 -179.53)"/><path class="cls-9" d="M157.91,282.57c1.25-.4,2.4-.8,2.84-2.3a16.62,16.62,0,0,0,.53-6.5c-.1-.95-.49-1.28-1.39-.84-3.15,1.5-4.68,4.3-5.87,7.35-.3.79.48,1.1.95,1.5A5,5,0,0,0,157.91,282.57Z" transform="translate(-93.71 -179.53)"/><path class="cls-5" d="M158.37,246.63c-.48-.46-1.13.06-1.74-.32a2.24,2.24,0,0,0,.23-.64c0-1.19.34-2.56-.84-3.32s-2.19.12-3,.94a7.78,7.78,0,0,1-8.11,1.92c.68,2.16,2.51,3.32,4.11,4.69.37.33.65.36,1,0C152.28,247.59,155.26,246.94,158.37,246.63Z" transform="translate(-93.71 -179.53)"/><path class="cls-5" d="M128.75,273.14c3.18,1.21,6.4,2.2,9.85,1.28,2.75-.74,5.32-1.81,7.11-4.18-.21-1.51-1.14-.91-1.85-.55a22.23,22.23,0,0,1-6.77,2.3,20.55,20.55,0,0,1-9-.35A1.78,1.78,0,0,0,128.75,273.14Z" transform="translate(-93.71 -179.53)"/><path class="cls-7" d="M149,266.48l3.58.11C151.3,265.41,150.35,264.26,149,266.48Z" transform="translate(-93.71 -179.53)"/><path class="cls-5" d="M152.94,291.92l-.72-.49c-.17.49.26.57.53.77C152.81,292.11,152.88,292,152.94,291.92Z" transform="translate(-93.71 -179.53)"/><path class="cls-7" d="M179.14,293.65a3.06,3.06,0,0,0,.19-.27c-.17-.2-.32-.07-.45.07Z" transform="translate(-93.71 -179.53)"/><path class="cls-6" d="M147.6,286.68l.46,0-.22-.38Z" transform="translate(-93.71 -179.53)"/><path class="cls-9" d="M189.12,236.27l.1.15-.11-.14Z" transform="translate(-93.71 -179.53)"/><path class="cls-5" d="M186.68,223.79c.45,1.31,1.23,2,2.5,1.74a1.85,1.85,0,0,0,1.52-2.26,1.88,1.88,0,0,0-2.4-1.63A2.09,2.09,0,0,0,186.68,223.79Z" transform="translate(-93.71 -179.53)"/><path class="cls-5" d="M177.06,222.6c.92-.47,1.49-1,1.25-2s-.86-1.16-1.72-1-1.07.77-.94,1.57A1.58,1.58,0,0,0,177.06,222.6Z" transform="translate(-93.71 -179.53)"/><path class="cls-6" d="M191.47,316a12.56,12.56,0,0,0,3.86-1.26,4.47,4.47,0,0,0,2.68-4.36,116.38,116.38,0,0,1,.42-15.82,4.16,4.16,0,0,0-3.18-4.32,20.72,20.72,0,0,0-9.34-.89,18.13,18.13,0,0,0-6.61,2.37,4.79,4.79,0,0,0-2.37,3.25,4.61,4.61,0,0,0,1,3.75,1,1,0,0,0,.76.37h.17a1,1,0,0,0,.6-.32,6.83,6.83,0,0,1,4.19-2.24,9.25,9.25,0,0,1,1.3-.09,11.14,11.14,0,0,0,1.17-.07,4.27,4.27,0,0,1,1.94.09c-.4.12-.81.22-1.22.32l-1.13.27c-.95.22-1.94.44-2.9.75-2.67.85-3.36,2-3,4.73,0,.3.1.6.14.89l.07.42a1,1,0,0,0,.58.75,1,1,0,0,0,.56.08,1,1,0,0,0,.4-.15,15,15,0,0,1,6.08-2l.66-.09.39-.06a9,9,0,0,1,1.68-.14h0a3.28,3.28,0,0,0-.31.2,13.59,13.59,0,0,1-4.5,1.85,9.17,9.17,0,0,0-2.74,1,3.15,3.15,0,0,0-1.6,2A3.26,3.26,0,0,0,182,310a1,1,0,0,0,.74.42.89.89,0,0,0,.23,0,1,1,0,0,0,.57-.29.28.28,0,0,1,.18-.1,2.6,2.6,0,0,1,.71.1l.25.05a9.26,9.26,0,0,0,3.22.12,8.52,8.52,0,0,0,3.43-1.33.38.38,0,0,1,0,.13c0,.12-.39.4-.57.53l-.19.15a6.39,6.39,0,0,1-3.08,1.24,12.62,12.62,0,0,1-1.84.12,2,2,0,0,1-.34,0,4.25,4.25,0,0,0-.94,0,2.3,2.3,0,0,0-.78.25,1,1,0,0,0-.52,1.13,4.4,4.4,0,0,0,3.34,3.2A11.46,11.46,0,0,0,191.47,316Z" transform="translate(-93.71 -179.53)"/><path class="cls-3" d="M186.05,290.37a19.79,19.79,0,0,1,8.9.86,3.2,3.2,0,0,1,2.48,3.28,118.14,118.14,0,0,0-.42,16,3.47,3.47,0,0,1-2.14,3.4,11.31,11.31,0,0,1-3.55,1.17,10.62,10.62,0,0,1-4.56-.34,3.44,3.44,0,0,1-2.65-2.48,1.83,1.83,0,0,1,.47-.15,8.62,8.62,0,0,1,1.14,0,14.45,14.45,0,0,0,2-.14,7.35,7.35,0,0,0,3.55-1.44c.64-.5,1.59-1.06.91-2.2.08-.37.79-.63.22-1.09a.35.35,0,0,0-.26-.08,1.1,1.1,0,0,0-.49.31,7.69,7.69,0,0,1-3.85,1.79,8.27,8.27,0,0,1-2.88-.1,3.93,3.93,0,0,0-1.31-.16,1.31,1.31,0,0,0-.75.39c-.95-1.33-.78-2.32.56-3.14a8.66,8.66,0,0,1,2.46-.9,14.14,14.14,0,0,0,4.83-2c.51-.35,1.26-.62,1.11-1.5.32-.13.16-.21,0-.29a7,7,0,0,0-3.52,0l-.67.1a15.86,15.86,0,0,0-6.48,2.1c-.07-.43-.14-.87-.2-1.3-.33-2.26,0-2.91,2.26-3.62,1.3-.41,2.64-.68,4-1a8.35,8.35,0,0,0,4.19-1.91c-.16-.42-.35-.53-.54-.5s-.51.28-.75.41l-.87.15c-1.28-1-2.78-.47-4.14-.47a8.81,8.81,0,0,0-1.46.1,7.79,7.79,0,0,0-4.79,2.56,3.54,3.54,0,0,1,1.05-5.5,16.81,16.81,0,0,1,6.24-2.25m5.76,11.44v0h0v0m-6.05-13.43a19.06,19.06,0,0,0-7,2.51,5.73,5.73,0,0,0-2.84,3.93,5.59,5.59,0,0,0,1.25,4.56,2,2,0,0,0,1.51.75h.18a7.4,7.4,0,0,0,0,2.57c.05.31.1.62.14.92,0,.13,0,.27.07.4a2,2,0,0,0,1.16,1.52,2,2,0,0,0,.72.17,3.53,3.53,0,0,0-.69,1.48,4.26,4.26,0,0,0,.91,3.36,2,2,0,0,0,1.11.77,2,2,0,0,0-.16,1.39,5.34,5.34,0,0,0,4,3.92,12.3,12.3,0,0,0,5.41.4,13.21,13.21,0,0,0,4.18-1.36,5.48,5.48,0,0,0,3.22-5.3,116.35,116.35,0,0,1,.42-15.7,5.18,5.18,0,0,0-3.88-5.35,22,22,0,0,0-9.79-.93Z" transform="translate(-93.71 -179.53)"/><path class="cls-7" d="M198.6,322.86l.23-.06a35,35,0,0,0,11-6.69,13.13,13.13,0,0,0,2.15-2.74c2.22-3.61,1.78-7-1.29-9.82A49.1,49.1,0,0,0,202.9,298l-.85-.52a1,1,0,0,0-.67-.14,1,1,0,0,0-.41.16,1,1,0,0,0-.44,1c.06.4.11.76.16,1.11.11.7.2,1.32.3,1.95a50.65,50.65,0,0,1,.86,9.15c-.13,4.65-1.43,8-4.08,10.41a1,1,0,0,0,.83,1.73Z" transform="translate(-93.71 -179.53)"/><path class="cls-3" d="M201.53,298.37a54.76,54.76,0,0,1,8.53,5.92c2.76,2.53,3.08,5.36,1.12,8.56a12.47,12.47,0,0,1-2,2.53,34,34,0,0,1-10.74,6.49c3.27-3,4.28-6.91,4.4-11.12a51.45,51.45,0,0,0-.87-9.34c-.15-.93-.28-1.86-.45-3m-.3-2a1.92,1.92,0,0,0-.81.31,2,2,0,0,0-.88,2c.06.39.11.75.16,1.09.1.72.19,1.34.29,2a49.11,49.11,0,0,1,.86,9c-.13,4.42-1.29,7.41-3.76,9.7a2,2,0,0,0-.33,2.56,2,2,0,0,0,2,.9,1.91,1.91,0,0,0,.47-.12,35.69,35.69,0,0,0,11.36-6.89,14.22,14.22,0,0,0,2.32-2.94,8.91,8.91,0,0,0,1.49-5.84,8.62,8.62,0,0,0-3-5.25,51,51,0,0,0-8-5.64l-.84-.51a2,2,0,0,0-1.35-.28Z" transform="translate(-93.71 -179.53)"/><path class="cls-6" d="M191.17,289a1.26,1.26,0,0,0,1.07-1.49,13.73,13.73,0,0,1,.12-3.2,13.74,13.74,0,0,0,.14-2.76v-.05a4,4,0,0,0-1.37-2.75,2.49,2.49,0,0,0-1.9-.47,4,4,0,0,0-1.6.66c-2.24,1.5-4,5.78-3.42,8.48a1.67,1.67,0,0,0,2,1.4,18.69,18.69,0,0,1,4.15.12l.1,0A1.86,1.86,0,0,0,191.17,289Z" transform="translate(-93.71 -179.53)"/><path class="cls-3" d="M189.38,279.27c1.06-.16,1.88.62,2.12,2.36s-.52,3.84-.26,6c0,.26-.07.36-.22.38a1.89,1.89,0,0,1-.52-.06,19.47,19.47,0,0,0-4.38-.13c-.5,0-.8,0-.92-.61-.47-2.29,1-6.13,3-7.43a2.9,2.9,0,0,1,1.19-.5m-.3-2a4.86,4.86,0,0,0-2,.82c-2.63,1.74-4.49,6.37-3.85,9.51a2.63,2.63,0,0,0,3,2.2,16.76,16.76,0,0,1,3.93.12h.06a3.39,3.39,0,0,0,1.07.05,2.28,2.28,0,0,0,1.91-2.61,12.9,12.9,0,0,1,.13-3,14.72,14.72,0,0,0,.14-3s0-.07,0-.1a4.92,4.92,0,0,0-1.76-3.42,3.54,3.54,0,0,0-2.65-.65Z" transform="translate(-93.71 -179.53)"/><path class="cls-5" d="M198.08,318l1-.16a1.86,1.86,0,0,0,1.47-1.68c0-.07,0-.13,0-.2a18.08,18.08,0,0,0,.33-6.61c-.12-1.27-.32-2.54-.52-3.76-.09-.54-.17-1.08-.25-1.62a1,1,0,0,0-.42-.68,1.08,1.08,0,0,0-.72-.17H199l-.31.07a1,1,0,0,0-.8,1c0,.42,0,.84,0,1.26,0,.92.08,1.87.13,2.81.22,3.84-.38,5.78-4.49,7.09a2,2,0,0,0-.54.3l-.13.09a1,1,0,0,0-.45.92,1,1,0,0,0,.59.83A8.77,8.77,0,0,0,198.08,318Z" transform="translate(-93.71 -179.53)"/><path class="cls-3" d="M199.15,304.08c.27,1.77.61,3.54.77,5.32a17.08,17.08,0,0,1-.29,6.25c-.13.44-.09,1.05-.72,1.16l-1,.16a7.76,7.76,0,0,1-4.52-.4,2.36,2.36,0,0,1,.43-.27c4.77-1.52,5.41-4.06,5.18-8.1-.07-1.36-.12-2.71-.18-4.06l.31-.06m-.29-2-.11,0-.16,0-.15,0a2,2,0,0,0-1.6,2.06c0,.42,0,.84,0,1.26,0,.92.08,1.87.13,2.82.2,3.64-.29,5-3.79,6.07a3,3,0,0,0-.84.45l-.08.06a2,2,0,0,0-.9,1.83,2,2,0,0,0,1.17,1.68,9.7,9.7,0,0,0,5.65.55l1-.16a2.68,2.68,0,0,0,1.89-1.31,3.67,3.67,0,0,0,.4-1.17.74.74,0,0,0,0-.12,18.81,18.81,0,0,0,.36-7c-.12-1.31-.33-2.59-.53-3.83-.08-.53-.17-1.08-.25-1.61a2,2,0,0,0-.84-1.35,2,2,0,0,0-1.44-.34Z" transform="translate(-93.71 -179.53)"/><path class="cls-5" d="M191.77,301.54a7,7,0,0,0-3.52,0,17,17,0,0,0-7.15,2.2c.19,1.18.64,1.43,1.88.95,2-.77,4.19-1.19,6.28-1.82.88-.26,1.7-.68,2.55-1v0Z" transform="translate(-93.71 -179.53)"/><path class="cls-5" d="M189.15,295.93c-1.28-1-2.78-.47-4.14-.47a8,8,0,0,0-6.25,2.66c.46.76.94,1,1.73.32,1.1-1,2.59-1.1,3.94-1.46C186,296.57,187.57,296.28,189.15,295.93Z" transform="translate(-93.71 -179.53)"/><path class="cls-5" d="M192.17,308.31c.08-.37.79-.63.22-1.09-.27-.22-.52,0-.75.23a7.62,7.62,0,0,1-6.73,1.69c-.7-.15-1.44-.4-2.06.23a.77.77,0,0,0,.64.51C186.6,310.56,189.61,310.67,192.17,308.31Z" transform="translate(-93.71 -179.53)"/><path class="cls-7" d="M195.94,321.15a7,7,0,0,0,1.81-.54.61.61,0,0,0,.35-.61.6.6,0,0,0-.45-.53,31.48,31.48,0,0,1-7-2.43.64.64,0,0,0-.36-.05.6.6,0,0,0-.4.95C191.68,320.44,193.67,321.49,195.94,321.15Z" transform="translate(-93.71 -179.53)"/><path class="cls-3" d="M190.35,317.58a32.31,32.31,0,0,0,7.15,2.48,6.58,6.58,0,0,1-1.65.5c-2,.3-3.84-.7-5.5-3m-.18-1.19a1.2,1.2,0,0,0-.79,1.9c1.93,2.66,4.17,3.83,6.65,3.46a7.29,7.29,0,0,0,2-.59,1.21,1.21,0,0,0,.71-1.21,1.19,1.19,0,0,0-.91-1.06,31.59,31.59,0,0,1-6.9-2.38,1.14,1.14,0,0,0-.72-.12Zm.36,2.38Z" transform="translate(-93.71 -179.53)"/><path class="cls-5" d="M191.31,295.87c-.37-.95-.84-.32-1.29-.09C190.44,295.89,190.9,295.52,191.31,295.87Z" transform="translate(-93.71 -179.53)"/><path class="cls-10" d="M191.77,301.54l0,.3C192.14,301.7,192,301.62,191.77,301.54Z" transform="translate(-93.71 -179.53)"/><path class="cls-10" d="M206.81,262.58a7.06,7.06,0,0,0,.57-1.41c.3-1.77,0-3.39-1.65-4.4-1.15-.73-2.21-.32-3.13.59-1.83,1.81-2.34,3.26-1.31,4.89s-.12,2.64-.74,3.83c2.88-.48,3.87-1.85,3.14-4.69a1.66,1.66,0,0,1,1-2.18c1-.32.89.79,1.09,1.41S206,262.16,206.81,262.58Z" transform="translate(-93.71 -179.53)"/><path class="cls-5" d="M206.81,262.58c-.78-.42-.8-1.25-1-2s-.12-1.73-1.09-1.41a1.66,1.66,0,0,0-1,2.18c.73,2.84-.26,4.21-3.14,4.69C204,267.2,206.37,265.89,206.81,262.58Z" transform="translate(-93.71 -179.53)"/><path class="cls-6" d="M142,317.45a11.49,11.49,0,0,0,4.67-1.79,4.42,4.42,0,0,0,2.27-4,1,1,0,0,0-.83-.94,2.44,2.44,0,0,0-.81,0,4.1,4.1,0,0,0-.91.26,1.52,1.52,0,0,1-.32.11,12.38,12.38,0,0,1-1.8.42,6.29,6.29,0,0,1-3.3-.3l-.23-.08a2.4,2.4,0,0,1-.7-.35h0a.37.37,0,0,1,0-.14,8.3,8.3,0,0,0,3.66.28,9.28,9.28,0,0,0,3.05-1l.22-.12a2.17,2.17,0,0,1,.66-.3.28.28,0,0,1,.2,0,1,1,0,0,0,.63.12.9.9,0,0,0,.22-.06,1,1,0,0,0,.58-.61,3.25,3.25,0,0,0,0-2.68,3.17,3.17,0,0,0-2.11-1.46,9.58,9.58,0,0,0-2.92-.18,13.49,13.49,0,0,1-4.84-.47L139,304h0a9,9,0,0,1,1.64-.34l.39-.06.66-.1a15,15,0,0,1,6.39.1,1,1,0,0,0,.42,0,1,1,0,0,0,.51-.23,1,1,0,0,0,.34-.9l-.06-.41q0-.45-.12-.9c-.41-2.77-1.39-3.63-4.2-3.67-1,0-2,.05-3,.12l-1.16.07-1.26,0a4.19,4.19,0,0,1,1.83-.65c.37-.08.76-.15,1.14-.27a8.58,8.58,0,0,1,1.27-.29,6.78,6.78,0,0,1,4.66.93,1,1,0,0,0,.67.13.53.53,0,0,0,.17,0,1,1,0,0,0,.61-.57,4.59,4.59,0,0,0-.08-3.89,4.82,4.82,0,0,0-3.2-2.43,18.14,18.14,0,0,0-7-.36,20.71,20.71,0,0,0-8.68,3.56,4.14,4.14,0,0,0-1.79,5.05,117.51,117.51,0,0,1,5,15,4.46,4.46,0,0,0,3.83,3.39A12.35,12.35,0,0,0,142,317.45Z" transform="translate(-93.71 -179.53)"/><path class="cls-3" d="M139.78,291.32a17,17,0,0,1,6.62.35,3.53,3.53,0,0,1,2.6,5,7.8,7.8,0,0,0-5.33-1.06,9.32,9.32,0,0,0-1.42.32c-1.3.4-2.89.34-3.82,1.65l-.88.1a3.32,3.32,0,0,0-.83-.17c-.2,0-.35.18-.38.64a8.29,8.29,0,0,0,4.56.61c1.36-.07,2.72-.2,4.08-.18,2.34,0,2.88.54,3.22,2.81l.18,1.3a16,16,0,0,0-6.82-.14l-.66.11a6.84,6.84,0,0,0-3.36,1.05c-.17.13-.3.26,0,.29.11.88.91.92,1.5,1.12a14.26,14.26,0,0,0,5.2.51,8.55,8.55,0,0,1,2.62.16c1.51.39,2,1.29,1.44,2.83a1.27,1.27,0,0,0-.83-.15,3.82,3.82,0,0,0-1.21.53,8.45,8.45,0,0,1-2.72.93,7.81,7.81,0,0,1-4.21-.6,1.19,1.19,0,0,0-.55-.16.37.37,0,0,0-.24.16c-.41.6.35.65.53,1-.32,1.28.75,1.54,1.51,1.84a7.35,7.35,0,0,0,3.82.35,15,15,0,0,0,1.94-.44,8,8,0,0,1,1.08-.35,1.69,1.69,0,0,1,.5,0,3.46,3.46,0,0,1-1.82,3.14,10.6,10.6,0,0,1-4.26,1.64,11.23,11.23,0,0,1-3.74-.09,3.47,3.47,0,0,1-3-2.64,120,120,0,0,0-5-15.15,3.18,3.18,0,0,1,1.43-3.86,19.77,19.77,0,0,1,8.26-3.4m-2.2,12.62,0,0h0v0m1.91-14.6a21.59,21.59,0,0,0-9.1,3.72,5.16,5.16,0,0,0-2.17,6.24,117.2,117.2,0,0,1,4.94,14.9,5.49,5.49,0,0,0,4.62,4.15,13.82,13.82,0,0,0,4.39.1,12.77,12.77,0,0,0,5.07-1.95,5.37,5.37,0,0,0,2.72-4.92,1.35,1.35,0,0,1,.28-2.35,4.25,4.25,0,0,0-.1-3.48,3.5,3.5,0,0,0-1.09-1.21,2.06,2.06,0,0,0,.64-.37,2,2,0,0,0,.68-1.79l-.06-.41c0-.3-.08-.61-.13-.92a6.94,6.94,0,0,0-.73-2.46l.18,0a2,2,0,0,0,1.23-1.15,5.58,5.58,0,0,0-.12-4.73,5.75,5.75,0,0,0-3.85-2.94,19.12,19.12,0,0,0-7.4-.38l.29,2-.29-2Z" transform="translate(-93.71 -179.53)"/><path class="cls-7" d="M137.17,326.05a1,1,0,0,0,.82-.72,1,1,0,0,0-.53-1.17c-3.24-1.58-5.44-4.38-6.91-8.79a49.3,49.3,0,0,1-1.82-9c-.09-.62-.19-1.25-.29-1.95-.05-.35-.11-.71-.16-1.11a1,1,0,0,0-.71-.81,1,1,0,0,0-.43,0,1,1,0,0,0-.61.33l-.66.74a50.28,50.28,0,0,0-5.91,7.55c-2.12,3.58-1.57,7,1.6,9.78a13,13,0,0,0,2.86,2,34.77,34.77,0,0,0,12.51,3.21A.65.65,0,0,0,137.17,326.05Z" transform="translate(-93.71 -179.53)"/><path class="cls-3" d="M127.28,303.45c.18,1.19.32,2.12.45,3.05a51.28,51.28,0,0,0,1.86,9.19c1.34,4,3.43,7.42,7.44,9.37A33.85,33.85,0,0,1,124.87,322a12.13,12.13,0,0,1-2.64-1.84c-2.81-2.5-3.31-5.3-1.4-8.52a54.92,54.92,0,0,1,6.45-8.14m-.29-2a2,2,0,0,0-1.21.65l-.66.74a50,50,0,0,0-6,7.71,8.61,8.61,0,0,0-1.32,5.88,9,9,0,0,0,3.12,5.16,13.83,13.83,0,0,0,3.07,2.14,35.62,35.62,0,0,0,12.87,3.31,2.57,2.57,0,0,0,.48,0A2,2,0,0,0,139,325.6a2,2,0,0,0-1.06-2.34c-3-1.48-5-4-6.4-8.21a49,49,0,0,1-1.78-8.83c-.09-.63-.18-1.25-.29-2-.05-.35-.1-.71-.16-1.1a2,2,0,0,0-1.41-1.63,1.85,1.85,0,0,0-.87-.06Z" transform="translate(-93.71 -179.53)"/><path class="cls-6" d="M134.49,291.49a2.37,2.37,0,0,0,.69-.26l.08,0a18,18,0,0,1,3.94-1.32,1.66,1.66,0,0,0,1.48-1.92c-.25-2.74-3.13-6.34-5.72-7.12a4,4,0,0,0-1.72-.17,2.52,2.52,0,0,0-1.68,1,4,4,0,0,0-.51,3,.11.11,0,0,0,0,.05,12.93,12.93,0,0,0,.93,2.6,13.57,13.57,0,0,1,1,3,1.28,1.28,0,0,0,1.46,1.12Z" transform="translate(-93.71 -179.53)"/><path class="cls-3" d="M133.39,281.66a3,3,0,0,1,1.28.13c2.24.68,4.8,3.92,5,6.26.06.62-.22.73-.7.84a19.48,19.48,0,0,0-4.15,1.39,1.61,1.61,0,0,1-.49.21c-.15,0-.28,0-.32-.3-.37-2.14-1.64-4-2-5.66s.28-2.72,1.35-2.87m-.3-2a3.49,3.49,0,0,0-2.34,1.39,4.92,4.92,0,0,0-.7,3.78.36.36,0,0,1,0,.1,14.59,14.59,0,0,0,1,2.8,12.76,12.76,0,0,1,1,2.8,2.29,2.29,0,0,0,2.59,1.94,3.19,3.19,0,0,0,1-.36l.05,0a17.54,17.54,0,0,1,3.73-1.24,2.64,2.64,0,0,0,2.26-3c-.29-3.19-3.41-7.08-6.43-8a5,5,0,0,0-2.16-.2Z" transform="translate(-93.71 -179.53)"/><path class="cls-5" d="M136.25,321.21a8.81,8.81,0,0,0,4.73-1.92,1,1,0,0,0,.31-1,1,1,0,0,0-.69-.75l-.15-.05a1.79,1.79,0,0,0-.61-.13c-4.31-.07-5.44-1.75-6.34-5.49l-.69-2.73c-.11-.4-.21-.81-.32-1.21a1,1,0,0,0-1.06-.76l-.32,0h-.05a1,1,0,0,0-.85,1.14c.08.54.15,1.08.23,1.62.16,1.23.33,2.5.59,3.75a18.06,18.06,0,0,0,2.22,6.24,1,1,0,0,1,.1.18,1.86,1.86,0,0,0,1.89,1.18l1-.14Z" transform="translate(-93.71 -179.53)"/><path class="cls-3" d="M131.21,308.23l.31,0c.33,1.32.68,2.62,1,3.94.95,3.93,2.3,6.18,7.31,6.25a2.33,2.33,0,0,1,.48.14,7.71,7.71,0,0,1-4.21,1.69l-1,.13c-.63.08-.78-.51-1-.9a17,17,0,0,1-2.09-5.9c-.36-1.75-.54-3.54-.8-5.32m-.3-2a2,2,0,0,0-1.28.74,2,2,0,0,0-.41,1.54c.08.53.15,1.08.22,1.61.17,1.24.34,2.53.61,3.81a18.65,18.65,0,0,0,2.35,6.57l.06.12a3.83,3.83,0,0,0,.72,1,2.66,2.66,0,0,0,2.18.7l1-.13a9.81,9.81,0,0,0,5.25-2.17,2,2,0,0,0,.63-1.94,2,2,0,0,0-1.39-1.49l-.09,0a2.85,2.85,0,0,0-.93-.18c-3.67-.06-4.53-1.17-5.39-4.72-.22-.92-.46-1.84-.69-2.73-.1-.41-.21-.82-.31-1.23a2,2,0,0,0-2.13-1.51l-.16,0H131l-.11,0Z" transform="translate(-93.71 -179.53)"/><path class="cls-5" d="M137.54,303.67a6.84,6.84,0,0,1,3.36-1.05,16.86,16.86,0,0,1,7.48,0c.15,1.18-.2,1.55-1.53,1.46-2.16-.16-4.35.07-6.54.07-.91,0-1.82-.16-2.73-.24l0,0Z" transform="translate(-93.71 -179.53)"/><path class="cls-5" d="M138.43,297.54c.93-1.31,2.52-1.25,3.82-1.65a8,8,0,0,1,6.75.74c-.22.86-.6,1.26-1.56.81-1.34-.64-2.79-.3-4.19-.26C141.64,297.24,140,297.42,138.43,297.54Z" transform="translate(-93.71 -179.53)"/><path class="cls-5" d="M139.11,310.27c-.18-.33-.94-.38-.53-1,.2-.29.52-.12.79,0a7.61,7.61,0,0,0,6.93-.33c.63-.34,1.26-.8,2-.38a.75.75,0,0,1-.47.68C145.09,310.81,142.24,311.78,139.11,310.27Z" transform="translate(-93.71 -179.53)"/><path class="cls-7" d="M139.22,323.65c2.27-.33,3.87-1.92,4.89-4.84a.61.61,0,0,0-.66-.79.64.64,0,0,0-.33.16,31.76,31.76,0,0,1-6,4.36.6.6,0,0,0,.23,1.11,6.64,6.64,0,0,0,1.89,0Z" transform="translate(-93.71 -179.53)"/><path class="cls-3" d="M143.54,318.61c-.93,2.67-2.35,4.14-4.4,4.44a6.26,6.26,0,0,1-1.73,0,31.72,31.72,0,0,0,6.13-4.44m-.18-1.19a1.18,1.18,0,0,0-.65.32A31.1,31.1,0,0,1,136.8,322a1.18,1.18,0,0,0-.57,1.28,1.2,1.2,0,0,0,1,.95,7.81,7.81,0,0,0,2.05,0c2.48-.37,4.28-2.13,5.37-5.24a1.21,1.21,0,0,0-.49-1.41,1.23,1.23,0,0,0-.83-.18Z" transform="translate(-93.71 -179.53)"/><path class="cls-5" d="M136.34,298.11c.08-1,.72-.55,1.21-.47C137.18,297.87,136.63,297.65,136.34,298.11Z" transform="translate(-93.71 -179.53)"/><path class="cls-10" d="M137.54,303.67l.06.29C137.23,303.93,137.36,303.81,137.54,303.67Z" transform="translate(-93.71 -179.53)"/><path class="cls-11" d="M106.59,216.61a9.13,9.13,0,0,1,7.68-10.35l.74-.07c-.05-.24-.11-.48-.14-.72a9.11,9.11,0,0,1,7.68-10.35,9,9,0,0,1,3.24.11,9.11,9.11,0,0,1,14.14-4.1,9.11,9.11,0,0,1,15.84-5.32A9.11,9.11,0,0,1,171.6,188a9.12,9.12,0,0,1,15.18,5.38,9,9,0,0,1,0,2.38,9.11,9.11,0,0,1,15.09,4.35,9.18,9.18,0,0,1,0,4.63,9.46,9.46,0,0,1,1.42-.33A9.1,9.1,0,0,1,212,218.79a9.11,9.11,0,0,1,2.45,18v0c-.52,15.66-2.76,16.13-2.76,16.13-.2-1.39,1.22-7.4-3.15-8.17s-10.33-2.28-11.71-2.52a34.28,34.28,0,0,1-4.53-1.06c-3-1-.49-.54-5.79-1.67-5.66-1.21-6.53-3.05-9.23-3.82a57,57,0,0,0-10.06-2.17c-2.27-.27-3.48,0-5.08-.17-3.72-.35-7.88-1.69-11.88-2a49.48,49.48,0,0,0-12.89.69c-2.77.41-14.91,5.59-19.28,4.82-4.09-.73-8.36-2.67-7-13.68A9.11,9.11,0,0,1,106.59,216.61Z" transform="translate(-93.71 -179.53)"/><g class="cls-12"><path d="M106.69,217.26a9.06,9.06,0,0,1,1.68-6.74c0,.17,0,.34,0,.52a9.09,9.09,0,0,0,4.52,6.58c-1.38,11,2.89,13,7,13.68,4.36.78,16.51-4.41,19.28-4.81a49.41,49.41,0,0,1,12.89-.69c4,.3,8.15,1.63,11.88,2,1.59.15,2.8-.1,5.08.17a57.14,57.14,0,0,1,10.06,2.17c2.69.77,3.57,2.61,9.22,3.82,5.31,1.13,2.82.69,5.8,1.67a32.46,32.46,0,0,0,4.53,1c1.38.25,7.34,1.75,11.71,2.53s2.94,6.78,3.15,8.16c0,0,.12,0,.31-.25-.85,6.22-2,6.48-2,6.48-.21-1.39,1.21-7.4-3.15-8.17s-10.33-2.28-11.71-2.52a34.44,34.44,0,0,1-4.54-1.06c-3-1-.48-.54-5.79-1.67-5.65-1.21-6.53-3-9.22-3.82a57.33,57.33,0,0,0-10.06-2.17c-2.28-.27-3.49,0-5.08-.17-3.73-.35-7.89-1.69-11.88-2a49.41,49.41,0,0,0-12.89.69c-2.78.41-14.92,5.59-19.28,4.82-4.09-.73-8.36-2.67-7-13.69A9.07,9.07,0,0,1,106.69,217.26Z" transform="translate(-93.71 -179.53)"/><path d="M116.1,200.69c-.1,0-.19,0-.29.06a10,10,0,0,1,.83-1.37c0,.17,0,.34,0,.51s.09.49.15.73C116.59,200.64,116.35,200.65,116.1,200.69Z" transform="translate(-93.71 -179.53)"/><path d="M216.28,231.24v0a9.1,9.1,0,0,0,5.31-3.49A9.09,9.09,0,0,1,216,237C216.1,235.32,216.21,233.44,216.28,231.24Z" transform="translate(-93.71 -179.53)"/></g><circle class="cls-13" cx="109.15" cy="41.95" r="2.29"/><circle class="cls-13" cx="81.44" cy="45.05" r="3.28"/><circle class="cls-13" cx="66.78" cy="24.35" r="2.29"/><circle class="cls-13" cx="38.7" cy="27.18" r="2.29"/><circle class="cls-13" cx="29.87" cy="41.41" r="3.28"/><circle class="cls-13" cx="89.13" cy="25.36" r="2.62"/><g class="cls-14"><path class="cls-15" d="M122.45,194.47a9.29,9.29,0,0,1,3.25.11,9.11,9.11,0,0,1,14.14-4.1,9.1,9.1,0,0,1,15.83-5.31,9.11,9.11,0,0,1,15.84,2.22,9.1,9.1,0,0,1,15.2,7.76,9.11,9.11,0,0,1,15.06,9,8.4,8.4,0,0,1,1.42-.34,9.1,9.1,0,0,1,8.71,14.35,9.1,9.1,0,0,1,7.58,14.72,8.67,8.67,0,0,0-.06-2,9.11,9.11,0,0,0-9.44-7.77,9.1,9.1,0,0,0-8.71-14.35,8.4,8.4,0,0,0-1.42.34,9.11,9.11,0,0,0-9.21-11.48,9.07,9.07,0,0,0-5.85,2.49,9,9,0,0,0,0-2.37,9.11,9.11,0,0,0-15.18-5.38,9.11,9.11,0,0,0-15.83-2.23,9.11,9.11,0,0,0-15.84,5.31,9.1,9.1,0,0,0-14.14,4.11,9,9,0,0,0-9.06,3.27A9.09,9.09,0,0,1,122.45,194.47Z" transform="translate(-93.71 -179.53)"/></g></g><path class="cls-3" d="M315,286.35c-5.91,0-10.59-2-13.93-5.94-5.33-6.31-5.33-15.34-5.19-18.11V220.38a2.74,2.74,0,0,1,2.58-2.88h13.26a2.74,2.74,0,0,1,2.58,2.88v41.86c0,.18,0,.38,0,.62a4.81,4.81,0,0,0,.33,2.05h0a2.27,2.27,0,0,0,.28,0h0a3.19,3.19,0,0,0,.69-.09,2.22,2.22,0,0,1,.51-.06,2.39,2.39,0,0,1,1.57.6,3,3,0,0,1,1,2.1l.89,15.73a2.79,2.79,0,0,1-2.39,3.05C316.51,286.32,315.76,286.35,315,286.35Z" transform="translate(-93.71 -179.53)"/><path class="cls-3" d="M311.76,220.38v42c.13,1.12-.22,5.42,3.24,5.42a5.46,5.46,0,0,0,1.2-.15l.89,15.73c-.71.06-1.4.09-2,.09-16.49,0-16.75-17.21-16.54-21.09v-42h13.26m0-5.75H298.5a5.48,5.48,0,0,0-5.17,5.75v41.84c-.15,3.17-.08,13.09,5.9,20.15,3.84,4.55,9.16,6.86,15.81,6.86.78,0,1.6,0,2.42-.1a5.58,5.58,0,0,0,4.79-6.1l-.89-15.73a6,6,0,0,0-2-4.21,4.93,4.93,0,0,0-2.42-1.12V220.38a5.48,5.48,0,0,0-5.17-5.75Z" transform="translate(-93.71 -179.53)"/><path class="cls-3" d="M336.81,271.8a2.51,2.51,0,0,1-2-1.07,21.7,21.7,0,0,1-2.4.13,18.54,18.54,0,0,1-12.19-4.34c-5-4.26-7.94-11.6-7.88-19.64s3.1-15.5,8.13-19.64c3.84-3.17,9.12-5.22,15.28-5.9h.07c1.41-.11,2.88-.17,4.37-.17a56.85,56.85,0,0,1,10.59,1,2.81,2.81,0,0,1,2.11,2.83l-.15,44a2.74,2.74,0,0,1-2.59,2.86Z" transform="translate(-93.71 -179.53)"/><path class="cls-3" d="M340.18,224a55.43,55.43,0,0,1,10.11.91l-.15,44H336.81v-1.4a22.23,22.23,0,0,1-4.41.45,16,16,0,0,1-10.62-3.75c-9.48-8.07-8.89-27.18.22-34.68,3.78-3.13,8.81-4.77,14-5.35,1.44-.12,2.85-.17,4.18-.17m-13,22.49c0,3.26,2.28,6.46,6,6.46-3.75,0-6-3.2-6-6.46s2.45-6.81,8.24-6.81c-5.79,0-8.24,3.43-8.24,6.81m13-28.24c-1.55,0-3.09.06-4.57.19h-.13c-6.62.74-12.35,3-16.57,6.46-5.66,4.67-9.1,12.86-9.16,21.92S313,264,318.64,268.8a20.91,20.91,0,0,0,13.76,4.93c.5,0,1,0,1.51,0a4.84,4.84,0,0,0,2.9,1h13.33a5.48,5.48,0,0,0,5.17-5.73l.15-44a5.62,5.62,0,0,0-4.22-5.67,58.5,58.5,0,0,0-11.06-1Z" transform="translate(-93.71 -179.53)"/><path class="cls-3" d="M379.25,289.35a2.48,2.48,0,0,1-1.86-.91l-7.6-9.07V282a2.74,2.74,0,0,1-2.58,2.87H354a2.74,2.74,0,0,1-2.58-2.87V217.86A2.73,2.73,0,0,1,354,215h13.26a2.74,2.74,0,0,1,2.58,2.87V238.5l8.59-8.46a2.41,2.41,0,0,1,1.71-.72h.25a2.54,2.54,0,0,1,1.81,1.12l8.44,12.27a3.11,3.11,0,0,1-.35,3.91L378.1,258.44l12.63,15.12a3.12,3.12,0,0,1,0,4l-9.56,11a2.43,2.43,0,0,1-1.85.87Z" transform="translate(-93.71 -179.53)"/><path class="cls-3" d="M367.21,217.86v27l12.88-12.69,8.45,12.28-14.15,13.75,14.44,17.3-9.55,11-12.07-14.42V282H354V217.86h13.26m0-5.75H354c-2.85,0-5.17,2.58-5.17,5.75V282c0,3.17,2.32,5.75,5.17,5.75h13.26a5,5,0,0,0,4.12-2.28l4.17,5a5,5,0,0,0,3.73,1.83h0a4.91,4.91,0,0,0,3.71-1.75l9.55-11a6.21,6.21,0,0,0,.08-7.91l-10.82-13,10.14-9.85a6.22,6.22,0,0,0,.7-7.83L384.2,228.7a5.08,5.08,0,0,0-3.61-2.23,4.07,4.07,0,0,0-.5,0,4.86,4.86,0,0,0-3.42,1.45l-4.29,4.22V217.86c0-3.17-2.32-5.75-5.17-5.75Z" transform="translate(-93.71 -179.53)"/><path class="cls-3" d="M399.69,271.8c-13.9,0-23.25-13.71-23.25-26.51,0-14.24,10.65-26.27,23.25-26.27C413.64,219,423,232.6,423,245.29,423,259.66,412.33,271.8,399.69,271.8Zm0-32.29c-2.72,0-4.75,3.05-4.75,5.78,0,3.12,2.22,5.85,4.75,5.85,3,0,4.82-3,4.82-5.85C404.51,242.21,402.26,239.51,399.69,239.51Z" transform="translate(-93.71 -179.53)"/><path class="cls-3" d="M399.69,221.89c11.92,0,20.74,11.54,20.74,23.4,0,12.93-9.63,23.64-20.74,23.64-11.92,0-20.66-11.86-20.66-23.64,0-12.85,9.63-23.4,20.66-23.4m0,32.13c4.37,0,7.41-4.29,7.41-8.73,0-4.62-3.41-8.65-7.41-8.65-4.22,0-7.33,4.36-7.33,8.65,0,4.61,3.26,8.73,7.33,8.73m0-37.88c-14,0-25.83,13.35-25.83,29.15,0,14.19,10.38,29.39,25.83,29.39,14,0,25.91-13.46,25.91-29.39a31.56,31.56,0,0,0-7.3-20.09c-4.95-5.84-11.55-9.06-18.61-9.06Zm0,32.13c-1.11,0-2.16-1.45-2.16-3,0-1.31,1-2.9,2.16-2.9,1,0,2.24,1.34,2.24,2.9,0,1.25-.78,3-2.24,3Z" transform="translate(-93.71 -179.53)"/><path class="cls-3" d="M435.05,287.74a16.55,16.55,0,0,1-12.9-5.46c-5.67-6.34-5.78-15.73-5.78-16.78v-9.14h-.82a2.74,2.74,0,0,1-2.58-2.88V238.74a2.74,2.74,0,0,1,2.58-2.88h.82v-6.35a2.74,2.74,0,0,1,2.59-2.87h13.4a2.74,2.74,0,0,1,2.59,2.87v6.35h5.26a2.75,2.75,0,0,1,2.59,2.88v14.74a2.75,2.75,0,0,1-2.59,2.88H435v9.15c0,1.43,1.19,1.43,1.74,1.43a7.22,7.22,0,0,0,1.81-.27,2.06,2.06,0,0,1,.6-.08,2.64,2.64,0,0,1,2.51,2.18l3.18,14.34a3.13,3.13,0,0,1-.29,2.17,2.62,2.62,0,0,1-1.6,1.31A30.23,30.23,0,0,1,435.05,287.74Z" transform="translate(-93.71 -179.53)"/><path class="cls-3" d="M432.36,229.51v9.23h7.85v14.74h-7.85v12s-.05,4.31,4.33,4.31a9.26,9.26,0,0,0,2.41-.36l3.19,14.34a27.64,27.64,0,0,1-7.24,1.06c-16.27,0-16.09-19.28-16.09-19.35v-12h-3.41V238.74H419v-9.23h13.4m0-5.75H419a5.48,5.48,0,0,0-5.17,5.75v3.82a5.75,5.75,0,0,0-3.41,5.41v14.74a5.75,5.75,0,0,0,3.41,5.41v6.62c0,1.14.13,11.63,6.53,18.79a18.89,18.89,0,0,0,14.73,6.31,32.46,32.46,0,0,0,8.47-1.23,5.23,5.23,0,0,0,3.19-2.61,6.3,6.3,0,0,0,.59-4.35l-3.18-14.34a5.31,5.31,0,0,0-5-4.37,4.57,4.57,0,0,0-1.21.16l-.37.09v-4.73h2.68a5.48,5.48,0,0,0,5.17-5.75V238.74a5.48,5.48,0,0,0-5.17-5.75h-2.68v-3.48a5.48,5.48,0,0,0-5.17-5.75Z" transform="translate(-93.71 -179.53)"/><path class="cls-3" d="M453.33,273.43c-9.68,0-20.16-7.87-20.3-25.13,0-8.13,2.51-15.42,7.13-20.57a19.5,19.5,0,0,1,14.27-6.89c8.26,0,18,6.7,18.14,25.59a47.44,47.44,0,0,1-.49,7.44,2.88,2.88,0,0,1-1.1,1.89,3.17,3.17,0,0,1,.2,1.79c-1.67,9.5-8.84,15.88-17.84,15.88Zm.68-34.61a2.82,2.82,0,0,0-2.29,1.22l4.51-.09-.12-.15A2.79,2.79,0,0,0,454,238.82Z" transform="translate(-93.71 -179.53)"/><path class="cls-3" d="M454.43,223.71c7.94,0,15.41,6.95,15.55,22.75a44.76,44.76,0,0,1-.44,6.92H448.21a4.62,4.62,0,0,0,4.78,3.69c2.05,0,4-1.06,4.33-2.79L468.65,257c-1.56,8.86-8.32,13.55-15.32,13.55-8.61,0-17.59-7.1-17.71-22.28,0-15.4,9.69-24.55,18.81-24.56M448,243l11.55-.25c.15-4.28-2.64-6.8-5.53-6.8-2.67,0-5.42,2.15-6,7.05m6.44-25h0c-5.83,0-11.7,2.83-16.11,7.74-5.1,5.69-7.89,13.71-7.87,22.59.09,10.82,4,17.34,7.21,20.9a21,21,0,0,0,15.67,7.11c10.28,0,18.47-7.31,20.39-18.19a6.25,6.25,0,0,0,.09-1.49,6.22,6.22,0,0,0,.82-2.27,51.49,51.49,0,0,0,.52-7.89v-.06C475,226.76,464.62,218,454.43,218Z" transform="translate(-93.71 -179.53)"/><path class="cls-3" d="M494.2,284.32a2.48,2.48,0,0,1-1.87-.92l-7.6-9.07v2.58a2.74,2.74,0,0,1-2.58,2.88H468.89a2.75,2.75,0,0,1-2.58-2.88V212.83a2.74,2.74,0,0,1,2.58-2.87h13.26a2.73,2.73,0,0,1,2.58,2.87v20.63l8.59-8.45a2.45,2.45,0,0,1,1.72-.72h.24a2.54,2.54,0,0,1,1.81,1.12l8.44,12.27a3.1,3.1,0,0,1-.35,3.91L493,253.41l12.63,15.12a3.12,3.12,0,0,1,0,4l-9.55,11a2.47,2.47,0,0,1-1.86.87Z" transform="translate(-93.71 -179.53)"/><path class="cls-3" d="M482.15,212.83v27L495,227.16l8.44,12.28-14.15,13.75,14.44,17.3-9.55,11L482.15,267v9.88H468.89V212.83h13.26m0-5.75H468.89c-2.85,0-5.17,2.58-5.17,5.75v64.08a5.48,5.48,0,0,0,5.17,5.75h13.26a5,5,0,0,0,4.12-2.27l4.17,5a4.89,4.89,0,0,0,3.73,1.83h.05a4.9,4.9,0,0,0,3.71-1.74l9.56-11a6.23,6.23,0,0,0,.07-7.91l-10.81-13,10.13-9.85a6.22,6.22,0,0,0,.7-7.83l-8.44-12.27a5,5,0,0,0-3.61-2.23,4,4,0,0,0-.49,0,4.87,4.87,0,0,0-3.43,1.45l-4.29,4.22V212.83c0-3.17-2.32-5.75-5.17-5.75Z" transform="translate(-93.71 -179.53)"/><path class="cls-3" d="M512.22,276.54a17.07,17.07,0,0,1-12.91-5.91c-2.77-3.11-6-8.88-5.91-18.72V229.63a2.75,2.75,0,0,1,2.58-2.88h13.33a2.75,2.75,0,0,1,2.59,2.88v21.09c.06,2.71.69,3.92,1,4.28.37-.38,1-1.74.93-4.35v-20a2.75,2.75,0,0,1,2.58-2.88h13.41a2.47,2.47,0,0,1,1.83.85,3,3,0,0,1,.75,2l-.07,20.92c.17,9.31-3.2,15.14-6.05,18.39a18.9,18.9,0,0,1-14.07,6.6Z" transform="translate(-93.71 -179.53)"/><path class="cls-3" d="M509.31,229.63v21.09c.11,4.94,1.85,7.24,3.58,7.24s3.69-2.61,3.53-7.41V230.62h13.41l-.08,20.92c.27,14.38-8.75,22.12-17.53,22.12-8.31,0-16.42-6.93-16.24-21.71V229.63h13.33m20.52,1h0m-20.52-6.74H496a5.48,5.48,0,0,0-5.17,5.75v22.28c-.12,10.81,3.55,17.24,6.65,20.74a19.55,19.55,0,0,0,14.76,6.76A21.35,21.35,0,0,0,528.13,272c3.2-3.63,7-10.12,6.79-20.46l.08-20.7v-.17a5.48,5.48,0,0,0-5.17-5.75H516.42a4.79,4.79,0,0,0-3.09,1.14,5,5,0,0,0-4-2.13Z" transform="translate(-93.71 -179.53)"/><path class="cls-3" d="M277.82,261.6a8.21,8.21,0,0,1-6.29-2.89,10,10,0,0,1-2.32-6.44c0-4.82,3.35-9.69,10.82-9.69a2.89,2.89,0,0,1,0,5.75c-3.48,0-5.65,1.51-5.65,3.94a3.81,3.81,0,0,0,.89,2.46,3.26,3.26,0,0,0,2.55,1.12,2.89,2.89,0,0,1,0,5.75Z" transform="translate(-93.71 -179.53)"/><path class="cls-3" d="M280,245.46c-5.79,0-8.24,3.43-8.24,6.81,0-3.38,2.45-6.81,8.24-6.81m-8.24,6.81c0,3.26,2.28,6.46,6,6.46-3.75,0-6-3.2-6-6.46M280,239.71c-9.21,0-13.41,6.51-13.41,12.56a13.09,13.09,0,0,0,3,8.42,10.64,10.64,0,0,0,8.16,3.79c2.85,0,5.17-2.58,5.17-5.75a5.48,5.48,0,0,0-5.17-5.75.82.82,0,0,1-.68-.23.79.79,0,0,1-.18-.48c0-.45,1.07-1.06,3.07-1.06a5.78,5.78,0,0,0,0-11.5ZM271.79,258h0Zm0,0h0Z" transform="translate(-93.71 -179.53)"/><ellipse class="cls-3" cx="159.61" cy="35.54" rx="9.03" ry="9.96"/><path class="cls-3" d="M253.32,208c3.55,0,6.44,3.13,6.44,7.09s-2.89,7.08-6.44,7.08-6.45-3.13-6.45-7.08,3-7.09,6.45-7.09m0-5.75c-6.41,0-11.62,5.76-11.62,12.84s5.21,12.83,11.62,12.83,11.61-5.76,11.61-12.83-5.21-12.84-11.61-12.84Z" transform="translate(-93.71 -179.53)"/><path class="cls-3" d="M242.49,288.08a32.31,32.31,0,0,1-3.6-.22,2.82,2.82,0,0,1-2.29-3.15l1.33-14.66a3,3,0,0,1,.94-1.94,2.42,2.42,0,0,1,1.63-.65l.26,0a7.46,7.46,0,0,0,.79,0,2.3,2.3,0,0,0,1.76-.54,5.39,5.39,0,0,0,.68-3.35V226.35a2.74,2.74,0,0,1,2.59-2.87h13.33a2.74,2.74,0,0,1,2.58,2.87v12a3.06,3.06,0,0,1-.57,1.8c-4.88,6.75-4.93,18.51-.1,25.16a3.08,3.08,0,0,1,.57,2.07c-.53,6.24-3.53,20.74-19.89,20.74Z" transform="translate(-93.71 -179.53)"/><path class="cls-3" d="M259.91,226.35v12c-5.57,7.69-5.84,20.85-.1,28.77-.54,6.38-3.45,18.12-17.31,18.12a28,28,0,0,1-3.33-.2l1.33-14.66a9.79,9.79,0,0,0,1.05.06c3.61,0,5.09-2.44,5-6.82V226.35h13.33m0-5.75H246.58a5.48,5.48,0,0,0-5.17,5.75v37.33c0,.41,0,.72,0,1l-.35,0a4.71,4.71,0,0,0-.53,0,4.84,4.84,0,0,0-3.26,1.29,5.93,5.93,0,0,0-1.88,3.88L234,284.42a5.62,5.62,0,0,0,4.59,6.29,32.57,32.57,0,0,0,3.88.24c12.83,0,21.22-8.72,22.46-23.34a6.18,6.18,0,0,0-1.13-4.15c-4.13-5.69-4.08-15.76.1-21.54a6.18,6.18,0,0,0,1.15-3.61v-12a5.48,5.48,0,0,0-5.17-5.75Z" transform="translate(-93.71 -179.53)"/><path class="cls-3" d="M281.39,277.55a2.51,2.51,0,0,1-2-1.07,21.7,21.7,0,0,1-2.4.13,18.54,18.54,0,0,1-12.19-4.34,19.84,19.84,0,0,1-3.1-3.39,3.07,3.07,0,0,1-.56-2.07,24.55,24.55,0,0,0,.08-3.1v-25.4a3.08,3.08,0,0,1,.57-1.8A18.72,18.72,0,0,1,265,233c3.83-3.17,9.11-5.22,15.27-5.9h.07c1.41-.11,2.88-.17,4.38-.17a56.8,56.8,0,0,1,10.58,1,2.8,2.8,0,0,1,2.11,2.83l-.15,44a2.73,2.73,0,0,1-2.58,2.86Z" transform="translate(-93.71 -179.53)"/><path class="cls-3" d="M284.76,229.78a55.27,55.27,0,0,1,10.1.91l-.14,44H281.39v-1.4a22.32,22.32,0,0,1-4.42.45A16,16,0,0,1,266.35,270a16.66,16.66,0,0,1-2.66-2.9,28.83,28.83,0,0,0,.09-3.5V238.31a16.34,16.34,0,0,1,2.79-3c3.78-3.13,8.82-4.77,14-5.35,1.44-.12,2.85-.17,4.19-.17m-13,22.49c0,3.26,2.28,6.46,6,6.46-3.75,0-6-3.2-6-6.46s2.45-6.81,8.24-6.81c-5.79,0-8.24,3.43-8.24,6.81m13-28.24c-1.56,0-3.1.06-4.57.19h-.13c-6.63.74-12.36,3-16.58,6.46a21.8,21.8,0,0,0-3.72,4,6.15,6.15,0,0,0-1.15,3.6v25.27c0,.09,0,.18,0,.27a22.2,22.2,0,0,1-.08,2.69,6.24,6.24,0,0,0,1.13,4.15,22.22,22.22,0,0,0,3.54,3.86A20.93,20.93,0,0,0,277,279.48c.5,0,1,0,1.52,0a4.79,4.79,0,0,0,2.9,1h13.33c2.84,0,5.15-2.56,5.17-5.73l.14-44a5.62,5.62,0,0,0-4.21-5.67,58.74,58.74,0,0,0-11.06-1Z" transform="translate(-93.71 -179.53)"/><path class="cls-3" d="M263.69,270a2.48,2.48,0,0,1-2-1.07c-6.44-8.87-6.4-23.4.09-32.37a2.5,2.5,0,0,1,2-1.07,2.34,2.34,0,0,1,.86.16,2.87,2.87,0,0,1,1.73,2.71v25.21a31.22,31.22,0,0,1-.11,3.82,2.83,2.83,0,0,1-1.82,2.49A2.45,2.45,0,0,1,263.69,270Z" transform="translate(-93.71 -179.53)"/><path class="cls-3" d="M263.78,238.31v25.27a28.83,28.83,0,0,1-.09,3.5c-5.75-7.92-5.47-21.08.09-28.77m0-5.75a5,5,0,0,0-4,2.15c-7.22,10-7.26,26.11-.09,36a5,5,0,0,0,4,2.14,4.53,4.53,0,0,0,1.49-.25,5.65,5.65,0,0,0,3.66-5,34.31,34.31,0,0,0,.11-4.15V238.31a5.74,5.74,0,0,0-3.45-5.42,4.69,4.69,0,0,0-1.72-.33Z" transform="translate(-93.71 -179.53)"/><path class="cls-16" d="M312.41,219.66v42c.14,1.23-.3,6.34,4.44,5.27l.89,15.73c-18.52,1.49-18.81-17-18.59-21v-42Z" transform="translate(-93.71 -179.53)"/><path class="cls-16" d="M350.79,268.21H337.46v-1.4c-6.15,1.23-11.26-.08-15-3.3-9.48-8.07-8.89-27.18.22-34.67,3.77-3.13,8.81-4.78,14-5.36a55.9,55.9,0,0,1,14.3.74Zm-13.33-29.16c-14.66-1.24-10.81,17.54.15,12.27Z" transform="translate(-93.71 -179.53)"/><path class="cls-16" d="M367.85,217.14v27l12.89-12.68,8.44,12.27L375,257.5l14.44,17.3-9.55,11-12.08-14.42v9.89H354.6V217.14Z" transform="translate(-93.71 -179.53)"/><path class="cls-2" d="M421.07,244.57c0,12.93-9.62,23.64-20.73,23.64-11.93,0-20.67-11.86-20.67-23.64,0-12.85,9.63-23.39,20.67-23.39C412.26,221.18,421.07,232.71,421.07,244.57Zm-28.06,0c0,4.61,3.25,8.73,7.33,8.73,4.37,0,7.4-4.28,7.4-8.73,0-4.61-3.4-8.65-7.4-8.65C396.12,235.92,393,240.28,393,244.57Z" transform="translate(-93.71 -179.53)"/><path class="cls-2" d="M433,228.79V238h7.85v14.74H433v12s-.08,5.77,6.74,3.95l3.18,14.34c-23.55,6.42-23.33-18.21-23.33-18.29v-12h-3.4V238h3.4v-9.23Z" transform="translate(-93.71 -179.53)"/><path class="cls-2" d="M465.29,252.66H448.85c1.11,5.19,8.52,4.36,9.11.91l11.33,2.71c-3.48,19.77-32.8,18.78-33-8.73-.07-28.83,34.07-35.75,34.37-1.81a44.8,44.8,0,0,1-.45,6.92ZM460.18,242c.3-8.23-10.29-10-11.55.25Z" transform="translate(-93.71 -179.53)"/><path class="cls-2" d="M482.8,212.11v27l12.88-12.68,8.44,12.27L490,252.47l14.44,17.3-9.55,11L482.8,266.31v9.89H469.54V212.11Z" transform="translate(-93.71 -179.53)"/><path class="cls-2" d="M510,228.91V250c.22,10.21,7.41,9.14,7.11-.17V229.9h13.41l-.08,20.92c.52,28-34.14,30.81-33.77.41V228.91Z" transform="translate(-93.71 -179.53)"/><path class="cls-1" d="M282.18,257.07,282,244.8C267.37,243.56,271.22,262.34,282.18,257.07Z" transform="translate(-93.71 -179.53)"/><ellipse class="cls-16" cx="160.25" cy="34.82" rx="6.44" ry="7.08"/><path class="cls-16" d="M260.55,237.59v-12H247.22v37.23c.08,4.78-1.7,7.25-6.07,6.76l-1.33,14.66c16.73,2,20.06-11.06,20.64-17.92C254.71,258.44,255,245.28,260.55,237.59Z" transform="translate(-93.71 -179.53)"/><path class="cls-16" d="M281.22,229.23c-5.19.58-10.22,2.23-14,5.36a15.65,15.65,0,0,0-2.79,3v25.27a28.8,28.8,0,0,1-.09,3.5,16.28,16.28,0,0,0,2.66,2.9c3.77,3.22,8.88,4.53,15,3.3V274h13.33l.15-44A55.8,55.8,0,0,0,281.22,229.23ZM282,244.8l.15,12.27C271.22,262.34,267.37,243.56,282,244.8Z" transform="translate(-93.71 -179.53)"/><path class="cls-16" d="M264.43,262.86V237.59c-5.56,7.69-5.84,20.85-.09,28.77A28.8,28.8,0,0,0,264.43,262.86Z" transform="translate(-93.71 -179.53)"/><path d="M263.68,298.61v11.87c0,9.94-11.32,9.66-11,.87l4.12.18c-.09,2.66,2.81,3,2.67-1V298.61Z" transform="translate(-93.71 -179.53)"/><path d="M276.37,317.24h-4.15v-.44a5.29,5.29,0,0,1-4.67-1c-2.95-2.51-2.77-8.46.06-10.79a8.3,8.3,0,0,1,4.36-1.66,17.16,17.16,0,0,1,4.45.23Zm-4.15-9.07c-4.56-.38-3.36,5.46,0,3.82Z" transform="translate(-93.71 -179.53)"/><path d="M282,302.17l1.93,7.56,1.64-4.63,2.14,0,1.27,3.94,1.56-6,4,1.18-3.09,12.93-3.3.34-1.7-5.2-1.73,4.76h-3.55L278,303.3Z" transform="translate(-93.71 -179.53)"/><path d="M307.15,317.24H303v-.44a5.32,5.32,0,0,1-4.68-1c-2.94-2.51-2.76-8.46.07-10.79a8.27,8.27,0,0,1,4.36-1.66,17.06,17.06,0,0,1,4.44.23ZM303,308.17c-4.56-.38-3.36,5.46.05,3.82Z" transform="translate(-93.71 -179.53)"/><path d="M313.37,303.1v.23a4.8,4.8,0,0,1,5.85,1.56l-2.4,3.74c-1.63-1.79-3.43-.74-3.45,1.36v7.25H309.2V303.1Z" transform="translate(-93.71 -179.53)"/><path d="M330.37,317.24h-4.15v-.44a5.29,5.29,0,0,1-4.67-1c-2.95-2.51-2.77-8.46.06-10.79a8.3,8.3,0,0,1,4.36-1.66,17.16,17.16,0,0,1,4.45.23Zm-4.15-9.07c-4.56-.38-3.36,5.46,0,3.82Z" transform="translate(-93.71 -179.53)"/><path d="M336.61,317h-4.14V303.33h3.2a2,2,0,0,1,.37-.21c3.43-1.51,7.18-.25,7.67,4.49v9.07h-4.13v-8.36c0-3.22-3.13-2.64-3,.11Z" transform="translate(-93.71 -179.53)"/><path d="M357.55,303.25l-2.94,12.56h0c-.11.51-2.14,8.61-9.56,4.07l2-4c2.9,1.77,3.54-1.23,3.54-1.26v0l.05-.13c-4.86-.46-5-4.82-4.95-5.87h0v-5.33h4.13v5.33c-.07,1.79,1.68,2.43,2.28,0l1.31-5.56Z" transform="translate(-93.71 -179.53)"/><path d="M369.83,317.24h-4.14v-.44a5.3,5.3,0,0,1-4.68-1c-2.95-2.51-2.77-8.46.07-10.79a8.24,8.24,0,0,1,4.35-1.66,17.16,17.16,0,0,1,4.45.23Zm-4.14-9.07c-4.57-.38-3.37,5.46,0,3.82Z" transform="translate(-93.71 -179.53)"/><path d="M389.58,298.61v11.87c0,9.94-11.31,9.66-11,.87l4.12.18c-.09,2.66,2.81,3,2.67-1V298.61Z" transform="translate(-93.71 -179.53)"/><path d="M402.27,317.24h-4.15v-.44a5.29,5.29,0,0,1-4.67-1c-2.95-2.51-2.77-8.46.06-10.79a8.3,8.3,0,0,1,4.36-1.66,17.16,17.16,0,0,1,4.45.23Zm-4.15-9.07c-4.56-.38-3.36,5.46.05,3.82Z" transform="translate(-93.71 -179.53)"/><path d="M408.37,298.56v13.07c.05.38-.09,2,1.39,1.64l.27,4.89c-5.76.47-5.85-5.28-5.78-6.53V298.56Z" transform="translate(-93.71 -179.53)"/><path d="M422.73,317.24h-4.15v-.44a5.32,5.32,0,0,1-4.68-1c-2.94-2.51-2.76-8.46.07-10.79a8.27,8.27,0,0,1,4.36-1.66,17.06,17.06,0,0,1,4.44.23Zm-4.15-9.07c-4.56-.38-3.36,5.46.05,3.82Z" transform="translate(-93.71 -179.53)"/><path d="M429,297.33v8.41l4-3.95,2.62,3.82-4.4,4.28,4.5,5.38-3,3.4L429,314.19v3.08h-4.12V297.33Z" transform="translate(-93.71 -179.53)"/><path d="M450.42,309.89c0,4-3,7.35-6.45,7.35-3.71,0-6.43-3.69-6.43-7.35,0-4,3-7.28,6.43-7.28C447.68,302.61,450.42,306.2,450.42,309.89Zm-8.73,0A2.32,2.32,0,1,0,444,307.2,2.56,2.56,0,0,0,441.69,309.89Z" transform="translate(-93.71 -179.53)"/><path d="M457.15,300.51v2.87h2.44V308h-2.44v3.74s0,1.79,2.09,1.23l1,4.45c-7.32,2-7.25-5.66-7.25-5.68V308h-1.06v-4.59H453v-2.87Z" transform="translate(-93.71 -179.53)"/><path d="M470.81,312.78h-5.12c.35,1.62,2.65,1.36,2.84.28l3.52.85c-1.08,6.15-10.2,5.84-10.27-2.72,0-9,10.59-11.12,10.69-.56a14.54,14.54,0,0,1-.14,2.15Zm-1.59-3.3c.09-2.57-3.21-3.1-3.6.07Z" transform="translate(-93.71 -179.53)"/><path d="M478.66,297.33v8.41l4-3.95,2.63,3.82-4.4,4.28,4.49,5.38-3,3.4-3.76-4.48v3.08h-4.12V297.33Z" transform="translate(-93.71 -179.53)"/><path d="M498.54,298.38V312h-4.17V298.38Zm-4.14,17a2.12,2.12,0,1,1,4.24,0,2.12,2.12,0,1,1-4.24,0Z" transform="translate(-93.71 -179.53)"/></svg>