<svg id="Layer_1" data-name="Layer 1" xmlns="http://www.w3.org/2000/svg" xmlns:xlink="http://www.w3.org/1999/xlink" viewBox="0 0 249.2 215.96"><defs><style>.cls-1{fill:none;}.cls-2{fill:#f7931e;}.cls-3{fill:#1a1a1a;}.cls-4{clip-path:url(#clip-path);}.cls-5{fill:#d98f44;}.cls-6{fill:#edab60;}.cls-7{fill:#f3d7b9;}.cls-8{fill:#333;}.cls-9{fill:#c1262f;}.cls-10{fill:#080505;}.cls-11{fill:#f9ae3b;}.cls-12{opacity:0.18;}.cls-13{fill:#d69238;}.cls-14{opacity:0.27;}.cls-15{fill:#f2f2f2;}.cls-16{fill:#fff;}</style><clipPath id="clip-path" transform="translate(-74.8 -151.53)"><circle class="cls-1" cx="195.54" cy="216.67" r="84.25"/></clipPath></defs><title>logofull</title><circle class="cls-2" cx="125.7" cy="111.8" r="68.79"/><path d="M141.89,341.32c-4.89,0-8.77-1.49-11.53-4.43-4.41-4.69-4.42-11.41-4.3-13.47V292.21a2.14,2.14,0,0,1,2.14-2.14h11a2.14,2.14,0,0,1,2.14,2.14v31.16c0,.13,0,.29,0,.46a3.29,3.29,0,0,0,.27,1.53h0a1.63,1.63,0,0,0,.23,0h0a3.38,3.38,0,0,0,.57-.07,2,2,0,0,1,.43,0,2.15,2.15,0,0,1,1.3.44,2.12,2.12,0,0,1,.83,1.56l.74,11.71a2.14,2.14,0,0,1-2,2.27C143.11,341.3,142.49,341.32,141.89,341.32Z" transform="translate(-74.8 -151.53)"/><path class="cls-3" d="M139.18,292.21v31.27c.11.84-.18,4,2.68,4a5.44,5.44,0,0,0,1-.11l.73,11.71c-.59,0-1.15.06-1.7.06-13.64,0-13.86-12.81-13.69-15.7V292.21h11m0-4.28h-11a4.28,4.28,0,0,0-4.28,4.28v31.15c-.12,2.36-.07,9.74,4.88,15,3.19,3.38,7.59,5.1,13.09,5.1.65,0,1.33,0,2-.07a4.28,4.28,0,0,0,4-4.54l-.73-11.71a4.28,4.28,0,0,0-3.67-4v-31a4.28,4.28,0,0,0-4.28-4.28Z" transform="translate(-74.8 -151.53)"/><path d="M159.92,330.49a2.12,2.12,0,0,1-1.66-.8,19.36,19.36,0,0,1-2,.1,16.42,16.42,0,0,1-10.1-3.24c-4.13-3.16-6.57-8.62-6.52-14.61s2.57-11.54,6.73-14.62A25.48,25.48,0,0,1,159,292.93h.06c1.17-.08,2.38-.13,3.62-.13a53.48,53.48,0,0,1,8.76.71,2.15,2.15,0,0,1,1.75,2.12l-.12,32.74a2.14,2.14,0,0,1-2.14,2.13Z" transform="translate(-74.8 -151.53)"/><path class="cls-3" d="M162.71,294.93a49.77,49.77,0,0,1,8.37.68L171,328.35h-11v-1a20.5,20.5,0,0,1-3.65.34,14.21,14.21,0,0,1-8.8-2.79c-7.84-6-7.35-20.24.19-25.82a23.35,23.35,0,0,1,11.59-4c1.19-.09,2.35-.13,3.46-.13M152,311.67a4.83,4.83,0,0,0,5,4.81,4.83,4.83,0,0,1-5-4.81c0-2.51,2-5.07,6.82-5.07-4.8,0-6.82,2.56-6.82,5.07m10.73-21c-1.29,0-2.56.05-3.78.14h-.11a27.52,27.52,0,0,0-13.72,4.81c-4.69,3.47-7.53,9.57-7.59,16.31s2.7,12.76,7.36,16.33a18.54,18.54,0,0,0,11.4,3.68c.41,0,.83,0,1.25,0a4.21,4.21,0,0,0,2.4.74h11a4.29,4.29,0,0,0,4.28-4.26l.12-32.75a4.28,4.28,0,0,0-3.49-4.22,53.34,53.34,0,0,0-9.16-.75Z" transform="translate(-74.8 -151.53)"/><path d="M195.06,343.55a2.12,2.12,0,0,1-1.55-.68l-6.29-6.75V338a2.14,2.14,0,0,1-2.14,2.14h-11A2.14,2.14,0,0,1,172,338v-47.7a2.14,2.14,0,0,1,2.14-2.14h11a2.14,2.14,0,0,1,2.14,2.14V305.7l7.11-6.3a2.19,2.19,0,0,1,1.42-.53H196a2.11,2.11,0,0,1,1.49.83l7,9.13a2.13,2.13,0,0,1-.29,2.91l-10.05,8.79,10.46,11.26a2.14,2.14,0,0,1,0,2.95l-7.91,8.15a2.1,2.1,0,0,1-1.53.65Z" transform="translate(-74.8 -151.53)"/><path class="cls-3" d="M185.08,290.34v20.11L195.75,301l7,9.13L191,320.38l12,12.88-7.91,8.15-10-10.73V338h-11v-47.7h11m0-4.28h-11a4.27,4.27,0,0,0-4.28,4.28V338a4.28,4.28,0,0,0,4.28,4.28h11a4.25,4.25,0,0,0,3.41-1.69l3.46,3.7a4.25,4.25,0,0,0,3.08,1.36h.05a4.3,4.3,0,0,0,3.07-1.3l7.91-8.15a4.28,4.28,0,0,0,.06-5.89l-9-9.65,8.39-7.34a4.27,4.27,0,0,0,.58-5.82l-7-9.13a4.23,4.23,0,0,0-3-1.66,2.75,2.75,0,0,0-.41,0,4.28,4.28,0,0,0-2.83,1.07L189.36,301V290.34a4.27,4.27,0,0,0-4.28-4.28Z" transform="translate(-74.8 -151.53)"/><path d="M212,330.49c-11.52,0-19.25-10.21-19.25-19.74,0-10.6,8.81-19.55,19.25-19.55,11.55,0,19.3,10.11,19.3,19.55C231.28,321.45,222.44,330.49,212,330.49Zm0-24c-2.25,0-3.93,2.27-3.93,4.3a4.27,4.27,0,0,0,3.93,4.36,4.21,4.21,0,0,0,4-4.36A4.27,4.27,0,0,0,212,306.45Z" transform="translate(-74.8 -151.53)"/><path class="cls-3" d="M212,293.34c9.87,0,17.16,8.58,17.16,17.41,0,9.63-8,17.6-17.16,17.6-9.87,0-17.11-8.83-17.11-17.6A17.5,17.5,0,0,1,212,293.34m0,23.91a6.35,6.35,0,0,0,6.13-6.5,6.42,6.42,0,0,0-6.13-6.44c-3.5,0-6.07,3.25-6.07,6.44a6.37,6.37,0,0,0,6.07,6.5m0-28.19c-11.6,0-21.39,9.93-21.39,21.69,0,10.57,8.59,21.88,21.39,21.88,11.62,0,21.44-10,21.44-21.88a22.09,22.09,0,0,0-6-14.95,21,21,0,0,0-15.4-6.74ZM212,313a2.15,2.15,0,0,1-1.79-2.22c0-1,.82-2.16,1.79-2.16a2.19,2.19,0,0,1,1.85,2.16c0,.93-.65,2.22-1.85,2.22Z" transform="translate(-74.8 -151.53)"/><path d="M241.25,342.35a14.45,14.45,0,0,1-10.68-4.06c-4.69-4.72-4.79-11.71-4.78-12.49V319h-.68a2.14,2.14,0,0,1-2.14-2.14v-11a2.14,2.14,0,0,1,2.14-2.14h.68V299a2.14,2.14,0,0,1,2.14-2.14H239a2.14,2.14,0,0,1,2.14,2.14v4.73h4.35a2.14,2.14,0,0,1,2.14,2.14v11a2.13,2.13,0,0,1-2.14,2.14h-4.35v6.82c0,1.06,1,1.06,1.44,1.06a6.9,6.9,0,0,0,1.5-.2,2.07,2.07,0,0,1,.5-.06,2.13,2.13,0,0,1,2.07,1.63l2.64,10.66a2.15,2.15,0,0,1-1.57,2.6A28,28,0,0,1,241.25,342.35Z" transform="translate(-74.8 -151.53)"/><path class="cls-3" d="M239,299v6.87h6.49v11H239v9a3.23,3.23,0,0,0,3.58,3.2,8.85,8.85,0,0,0,2-.26l2.63,10.67a25.32,25.32,0,0,1-6,.79c-13.47,0-13.32-14.35-13.32-14.4v-9h-2.82v-11h2.82V299H239m0-4.28h-11.1a4.28,4.28,0,0,0-4.28,4.28v2.84a4.29,4.29,0,0,0-2.82,4v11a4.28,4.28,0,0,0,2.82,4v4.93c0,.85.1,8.66,5.4,14a16.55,16.55,0,0,0,12.2,4.69,29.64,29.64,0,0,0,7-.92,4.29,4.29,0,0,0,3.14-5.18l-2.64-10.67a4.27,4.27,0,0,0-5.15-3.13l-.3.06v-3.52h2.21a4.27,4.27,0,0,0,4.28-4.28v-11a4.28,4.28,0,0,0-4.28-4.28h-2.21V299a4.28,4.28,0,0,0-4.28-4.28Z" transform="translate(-74.8 -151.53)"/><path d="M256.39,331.7c-8,0-16.69-5.85-16.81-18.71a21.3,21.3,0,0,1,5.9-15.31,16.92,16.92,0,0,1,11.81-5.13c6.85,0,14.88,5,15,19.05a32.27,32.27,0,0,1-.4,5.54,2.2,2.2,0,0,0-.74,2.74c-1.39,7.07-7.33,11.82-14.78,11.82Zm.56-25.76a2.42,2.42,0,0,0-1.9.91l3.74-.07-.1-.11A2.44,2.44,0,0,0,257,305.94Z" transform="translate(-74.8 -151.53)"/><path class="cls-3" d="M257.29,294.69c6.58,0,12.77,5.17,12.88,16.93a29.72,29.72,0,0,1-.37,5.16H252.14a3.79,3.79,0,0,0,4,2.75c1.7,0,3.34-.8,3.59-2.08l9.38,2c-1.3,6.6-6.89,10.09-12.68,10.09-7.13,0-14.57-5.29-14.67-16.59,0-11.46,8-18.27,15.57-18.28M252,309.05l9.57-.18A4.62,4.62,0,0,0,257,303.8c-2.21,0-4.49,1.6-5,5.25m5.34-18.64h0A19.13,19.13,0,0,0,244,296.17,23.44,23.44,0,0,0,237.44,313c.07,8.05,3.29,12.9,6,15.56a18.34,18.34,0,0,0,13,5.29c8.51,0,15.29-5.44,16.88-13.54a4.67,4.67,0,0,0,.07-1.11,4.33,4.33,0,0,0,.68-1.69,34.61,34.61,0,0,0,.43-5.88v0c-.14-14.62-8.72-21.17-17.15-21.17Z" transform="translate(-74.8 -151.53)"/><path d="M290.22,339.81a2.16,2.16,0,0,1-1.55-.68l-6.29-6.75v1.92a2.14,2.14,0,0,1-2.14,2.14h-11a2.14,2.14,0,0,1-2.14-2.14V286.59a2.14,2.14,0,0,1,2.14-2.14h11a2.14,2.14,0,0,1,2.14,2.14V302l7.11-6.29a2.15,2.15,0,0,1,1.42-.54h.21a2.15,2.15,0,0,1,1.49.83l7,9.14a2.13,2.13,0,0,1-.29,2.91l-10.05,8.79,10.46,11.26a2.13,2.13,0,0,1,0,2.94l-7.9,8.16a2.18,2.18,0,0,1-1.54.65Z" transform="translate(-74.8 -151.53)"/><path class="cls-3" d="M280.24,286.59V306.7l10.67-9.44,7,9.14-11.71,10.24,12,12.87-7.91,8.16-10-10.73v7.36h-11V286.59h11m0-4.28h-11a4.28,4.28,0,0,0-4.28,4.28V334.3a4.28,4.28,0,0,0,4.28,4.28h11a4.3,4.3,0,0,0,3.42-1.7l3.45,3.71A4.29,4.29,0,0,0,290.2,342h0a4.28,4.28,0,0,0,3.07-1.3l7.91-8.16a4.27,4.27,0,0,0,.06-5.89L292.33,317l8.39-7.34a4.27,4.27,0,0,0,.58-5.82l-7-9.14a4.3,4.3,0,0,0-3-1.66l-.42,0a4.24,4.24,0,0,0-2.83,1.08l-3.56,3.14V286.59a4.28,4.28,0,0,0-4.28-4.28Z" transform="translate(-74.8 -151.53)"/><path d="M305.14,334a14.87,14.87,0,0,1-10.69-4.39c-2.29-2.32-5-6.61-4.89-13.94V299.1A2.14,2.14,0,0,1,291.7,297h11a2.14,2.14,0,0,1,2.14,2.14v15.69a5,5,0,0,0,.84,3.2c.31-.29.84-1.3.77-3.24V299.83a2.14,2.14,0,0,1,2.14-2.14h11.1a2.15,2.15,0,0,1,2.14,2.15l-.06,15.57c.14,6.93-2.65,11.28-5,13.69A16.41,16.41,0,0,1,305.14,334Z" transform="translate(-74.8 -151.53)"/><path class="cls-3" d="M302.73,299.1v15.69c.09,3.68,1.53,5.4,3,5.4s3.05-1.95,2.92-5.52V299.83h11.1l-.06,15.58c.22,10.7-7.25,16.46-14.52,16.46-6.88,0-13.59-5.15-13.44-16.16V299.1h11m17,.73h0m-17-5h-11a4.27,4.27,0,0,0-4.28,4.28v16.59c-.1,8,2.94,12.83,5.5,15.43a17,17,0,0,0,12.22,5,18.52,18.52,0,0,0,13.17-5.55c2.65-2.7,5.77-7.53,5.63-15.23L324,300v-.13a4.28,4.28,0,0,0-4.28-4.28h-11.1a4.28,4.28,0,0,0-2.56.85,4.28,4.28,0,0,0-3.33-1.58Z" transform="translate(-74.8 -151.53)"/><path d="M111.08,322.9a7.12,7.12,0,0,1-5.21-2.16A7,7,0,0,1,104,316c0-3.59,2.77-7.21,9-7.21a2.14,2.14,0,1,1,0,4.28c-2.89,0-4.68,1.12-4.68,2.93a2.68,2.68,0,0,0,.74,1.83,2.82,2.82,0,0,0,2.11.84,2.14,2.14,0,1,1,0,4.28Z" transform="translate(-74.8 -151.53)"/><path class="cls-3" d="M112.91,310.88c-4.8,0-6.82,2.56-6.82,5.07,0-2.51,2-5.07,6.82-5.07M106.09,316a4.83,4.83,0,0,0,5,4.81,4.83,4.83,0,0,1-5-4.81m6.82-9.35c-7.63,0-11.1,4.85-11.1,9.35a9.11,9.11,0,0,0,9.27,9.09,4.28,4.28,0,1,0,0-8.56c-.4,0-.53-.13-.57-.18a.57.57,0,0,1-.14-.35c0-.33.88-.79,2.54-.79a4.28,4.28,0,0,0,0-8.56Zm-6.82,13.63Zm0,0Z" transform="translate(-74.8 -151.53)"/><ellipse cx="15.99" cy="136.73" rx="7.47" ry="7.41"/><path class="cls-3" d="M90.79,283a5.28,5.28,0,1,1-5.33,5.28A5.29,5.29,0,0,1,90.79,283m0-4.28a9.56,9.56,0,1,0,9.62,9.56,9.6,9.6,0,0,0-9.62-9.56Z" transform="translate(-74.8 -151.53)"/><path d="M81.83,342.61a28.22,28.22,0,0,1-3-.17A2.14,2.14,0,0,1,77,340.1l1.11-10.92a2.11,2.11,0,0,1,.77-1.44,2.14,2.14,0,0,1,1.35-.48h.22l.65,0a2,2,0,0,0,1.46-.4,3.76,3.76,0,0,0,.56-2.49V296.66a2.14,2.14,0,0,1,2.14-2.14h11a2.14,2.14,0,0,1,2.14,2.14v8.9a2.16,2.16,0,0,1-.47,1.34c-4,5-4.08,13.77-.08,18.73a2.14,2.14,0,0,1,.46,1.54c-.43,4.64-2.91,15.44-16.47,15.44Z" transform="translate(-74.8 -151.53)"/><path class="cls-3" d="M96.25,296.66v8.9c-4.61,5.72-4.84,15.52-.08,21.41-.45,4.75-2.86,13.5-14.34,13.5a24.45,24.45,0,0,1-2.75-.16l1.1-10.91c.31,0,.6,0,.87,0,3,0,4.22-1.81,4.16-5.07V296.66h11m0-4.28h-11a4.28,4.28,0,0,0-4.28,4.28v27.78a5.06,5.06,0,0,1,0,.72l-.29,0-.44,0A4.27,4.27,0,0,0,75.93,329l-1.11,10.91a4.29,4.29,0,0,0,3.8,4.69,29.74,29.74,0,0,0,3.21.18c10.63,0,17.58-6.5,18.6-17.38a4.27,4.27,0,0,0-.93-3.09c-3.42-4.23-3.38-11.73.08-16a4.28,4.28,0,0,0,1-2.68v-8.9a4.28,4.28,0,0,0-4.28-4.28Z" transform="translate(-74.8 -151.53)"/><path d="M114,334.77a2.12,2.12,0,0,1-1.66-.8,19.36,19.36,0,0,1-2,.1,16.42,16.42,0,0,1-10.1-3.24,14.8,14.8,0,0,1-2.56-2.51,2.13,2.13,0,0,1-.47-1.55,17.28,17.28,0,0,0,.07-2.3V305.56a2.16,2.16,0,0,1,.47-1.34,15.21,15.21,0,0,1,2.71-2.62,25.4,25.4,0,0,1,12.64-4.39h.06c1.17-.08,2.38-.13,3.62-.13a53.48,53.48,0,0,1,8.76.71,2.15,2.15,0,0,1,1.75,2.12l-.12,32.74a2.14,2.14,0,0,1-2.14,2.13Z" transform="translate(-74.8 -151.53)"/><path class="cls-3" d="M116.82,299.21a49.77,49.77,0,0,1,8.37.68l-.12,32.74H114v-1a20.5,20.5,0,0,1-3.65.34,14.18,14.18,0,0,1-8.8-2.8,12.85,12.85,0,0,1-2.2-2.16,19.91,19.91,0,0,0,.08-2.6V305.56a12.56,12.56,0,0,1,2.31-2.24,23.35,23.35,0,0,1,11.59-4c1.19-.09,2.36-.13,3.46-.13M106.09,316a4.83,4.83,0,0,0,5,4.81,4.83,4.83,0,0,1-5-4.81c0-2.51,2-5.07,6.82-5.07-4.8,0-6.82,2.56-6.82,5.07m10.73-21c-1.29,0-2.56.05-3.78.14h-.11a27.52,27.52,0,0,0-13.72,4.81,16.74,16.74,0,0,0-3.09,3,4.29,4.29,0,0,0-.94,2.68v19a14,14,0,0,1-.06,2,4.27,4.27,0,0,0,.93,3.09A17.26,17.26,0,0,0,99,332.53a18.54,18.54,0,0,0,11.4,3.68c.41,0,.83,0,1.25,0a4.21,4.21,0,0,0,2.4.74h11a4.29,4.29,0,0,0,4.28-4.26l.12-32.75a4.28,4.28,0,0,0-3.49-4.22,53.34,53.34,0,0,0-9.16-.75Z" transform="translate(-74.8 -151.53)"/><path d="M99.38,329.11a2.12,2.12,0,0,1-1.66-.79c-5.34-6.61-5.3-17.42.07-24.1a2.13,2.13,0,0,1,1.67-.8,2.16,2.16,0,0,1,.71.12,2.13,2.13,0,0,1,1.43,2v18.76a22.56,22.56,0,0,1-.09,2.85A2.14,2.14,0,0,1,100,329,2.21,2.21,0,0,1,99.38,329.11Z" transform="translate(-74.8 -151.53)"/><path class="cls-3" d="M99.46,305.56v18.81a19.91,19.91,0,0,1-.08,2.6c-4.76-5.89-4.53-15.69.08-21.41m0-4.28a4.3,4.3,0,0,0-3.34,1.6c-6,7.42-6,19.43-.07,26.78a4.3,4.3,0,0,0,3.33,1.59,4.43,4.43,0,0,0,1.24-.18,4.27,4.27,0,0,0,3-3.7,24.77,24.77,0,0,0,.1-3.09V305.56a4.3,4.3,0,0,0-2.86-4,4.41,4.41,0,0,0-1.42-.24Z" transform="translate(-74.8 -151.53)"/><g class="cls-4"><path class="cls-3" d="M141,197.44c-.36,3.89-1.43,6.08,1.5,10.13s3.51,4.55,7.77,4.53,10.54-.13,10.54-.13-2.92,7.73-3.45,10.35c-.56,2.82-1.29,7.7-1.29,7.7s-.18-1.19-1.77-1-1.49,2.64-2,4.16c-.65,1.82-1.21,2.81,2.07,5.78a30.81,30.81,0,0,1,5.29,6.93c.22.17,4.3,9.21,11.21,12s14.11,6,18,7.23,5.53,4.21,11.53.89,10.34-5.58,11.27-6.13,3.8-3,7-4.29a58.09,58.09,0,0,1,7.79-2.25c.4-.06,2.58-.38,4.67-4.14s7.4-2.11,10.11-5.76,7.44-16.93,7.72-23.26c.22-5,.06-7.25.22-8.15a5.08,5.08,0,0,0,0-1.62c0-.07,0-.15-.05-.24a10.45,10.45,0,0,0-1.46-20.54,10.49,10.49,0,0,0,1.29-6.79,10.38,10.38,0,0,0-11.75-8.81l-.33.06a11.16,11.16,0,0,0-.09-2.23,10.41,10.41,0,0,0-11.76-8.82,10,10,0,0,0-3.57,1.24,10.4,10.4,0,0,0-11.74-8.72,10.27,10.27,0,0,0-4.17,1.61,10.34,10.34,0,0,0-10.58-5.31,10.13,10.13,0,0,0-5.57,2.72,10.29,10.29,0,0,0-17.49,5.19,10.2,10.2,0,0,0-6.38-1.12,10.32,10.32,0,0,0-8.1,6.48,10.51,10.51,0,0,0-2.91,0,10.4,10.4,0,0,0-8.71,11.84h0a10.46,10.46,0,0,0-4.1,18.64A3.6,3.6,0,0,0,141,197.44ZM156.43,193a10.45,10.45,0,0,0,1.5-7.15h0a10.33,10.33,0,0,0,7.61-6.4,10.14,10.14,0,0,0,2.91,0,10.35,10.35,0,0,0,8.61-8.21A10.28,10.28,0,0,0,189,169.58a10.26,10.26,0,0,0,8.88,3,10.11,10.11,0,0,0,4.17-1.6,10.31,10.31,0,0,0,14.16,4.08A10.39,10.39,0,0,0,228,183.78l.33-.06a10.52,10.52,0,0,0,9.38,11.11c-.12.2-.23.42-.34.63a37.79,37.79,0,0,0-14.82-4C204.8,190.05,173.18,191.81,156.43,193Z" transform="translate(-74.8 -151.53)"/><path class="cls-5" d="M185.75,264.2a23.82,23.82,0,0,0,7.32,4.64c1.55,1.13,3.25,0,4.87.29,1,.17,1.58.3,1.1,1.33-1.1,2.34-1.69,4.92-3.29,7-.23.94.37,1.67.87,2.6a51.9,51.9,0,0,0,2.43-5.59,15,15,0,0,1,10.51-10.57c3-.93,5.39-2.87,5.64-6.69-4.21,1.54-8.4,2.9-12.26,5.08a26.21,26.21,0,0,1-6.69,3,14.7,14.7,0,0,1-10.31-1.41C185.88,264,185.81,264.11,185.75,264.2Z" transform="translate(-74.8 -151.53)"/><path class="cls-6" d="M195.75,277.48c1.6-2.1,2.19-4.68,3.29-7,.48-1-.14-1.16-1.1-1.33-1.62-.27-3.32.84-4.87-.29C194.1,271.68,194.33,274.76,195.75,277.48Z" transform="translate(-74.8 -151.53)"/><path class="cls-7" d="M198.19,312.09c7.81-1.16,16.14-3.89,19.36-6.36a34.89,34.89,0,0,0,10-13.11,1,1,0,0,0,.07-.47c0-.08-.74-8.14-1.62-16.31-1.81-16.79-2.46-17.71-2.77-18.15-1.56-2.24-7.11-1.54-8.21-1.38a1,1,0,0,0-.67.4,1,1,0,0,0-.17.76,4.24,4.24,0,0,1-1.06,2.93c-1,1.22-3.32,2.21-5,2.94-.75.31-1.39.59-1.85.84l-.47.26c-1.65.91-4.15,2.29-5,3.94s-3.82,8.61-4,9.06a2.13,2.13,0,0,0-.13-.43s0,0,0-.05c-.15-.45-1.92-6-2-6.64a12,12,0,0,0-.49-1.78,1,1,0,0,0-.45-.53l-5.95-3.4-3.35-2.46a1.19,1.19,0,0,0-.25-.13l-7-2.5a.87.87,0,0,0-.48,0,.91.91,0,0,0-.33.1,1,1,0,0,0-.5.64c-.27,1.07-6.65,26.43-3.47,42.44C174,310.83,183.4,314.27,198.19,312.09Z" transform="translate(-74.8 -151.53)"/><path class="cls-3" d="M176.8,260.46l6.95,2.5,3.39,2.49,6,3.43a11,11,0,0,1,.45,1.6c.09.63,2,6.57,2.06,6.8a1.63,1.63,0,0,1,.11,1.08c-.09.75.87,1.78.87,1.78l1-2.3s3.2-7.46,4-9,3.62-3,5.07-3.78,5.63-2.06,7.19-4a5.15,5.15,0,0,0,1.26-3.73s5.95-.88,7.24,1,4.21,34,4.21,34a34.33,34.33,0,0,1-9.69,12.7c-2.81,2.15-10.63,4.93-18.9,6.16-11,1.63-22.88.48-24.69-8.65-3.18-16,3.45-42,3.45-42m-.29-2a2.27,2.27,0,0,0-.65.22,2,2,0,0,0-1,1.27c-.07.27-1.7,6.71-3,15.21-1.71,11.51-1.88,20.82-.52,27.67,1.74,8.78,11.57,12.52,27,10.24,8.1-1.19,16.44-3.95,19.83-6.55A36.06,36.06,0,0,0,228.49,293a2,2,0,0,0,.14-.94c0-.08-.74-8.15-1.63-16.33-1.83-17.05-2.47-18-2.93-18.62-.95-1.34-2.82-2-5.74-2a25.59,25.59,0,0,0-3.45.23,2,2,0,0,0-1.38.79,1.88,1.88,0,0,0-.31,1.5,3.36,3.36,0,0,1-.85,2.17c-.8,1-3.11,2-4.64,2.64a18.86,18.86,0,0,0-1.95.89l-.46.25c-2.33,1.28-4.5,2.58-5.42,4.36-.51,1-2,4.31-3,6.65-.55-1.73-1.23-4-1.33-4.43a12.84,12.84,0,0,0-.54-1.94,1.94,1.94,0,0,0-.89-1.06l-5.9-3.38-3.31-2.42a2.19,2.19,0,0,0-.5-.27l-7-2.5a2.14,2.14,0,0,0-1-.1Z" transform="translate(-74.8 -151.53)"/><path class="cls-3" d="M238.52,271.1c-1.3-.62-5.33-4.49-7-4.85S221.26,271,220.4,274.8s.23,12.54,1,13.65a12.49,12.49,0,0,0,3.81,3.1c1.21.62,5.36,2.66,7,2.2s8.92-9,8.79-11.25S238.52,271.1,238.52,271.1Z" transform="translate(-74.8 -151.53)"/><path class="cls-3" d="M155.07,278.92c.79-.72,2.82-4.33,3.93-4.95s8.29,1.18,9.72,3.68,2.52,9,2.21,9.9a9.29,9.29,0,0,1-2,3c-.73.7-3.24,3-4.52,3.07s-8.26-4.5-8.64-6.1S155.07,278.92,155.07,278.92Z" transform="translate(-74.8 -151.53)"/><path class="cls-8" d="M154.65,232.58c-.49,3,2.1,6.66,5.4,7.94,7.23,2.8,13.55.75,19.35-3.71,1.12-.87,2.76-1.48,2.48-3.58-.1-.78.8-.21,1.11.07a30.48,30.48,0,0,0,12.14,6.6A27.42,27.42,0,0,0,214.2,239c2.87-1.23,5.44-5,4.48-7.51-.94.49-1.25,1.57-2.19,2.11-3.25,1.88-6.07,1-8.51-1.54a67.37,67.37,0,0,0-8.79-8.17c-4.17-3-11.47-3.34-15.15.26a3,3,0,0,1-3.63.44c-5.11-2.69-8.06-2.09-11.53,2.52-1.2,1.61-2.4,3.22-3.57,4.85-1.69,2.35-4.16,3-6.83,3A4.5,4.5,0,0,1,154.65,232.58Z" transform="translate(-74.8 -151.53)"/><path class="cls-6" d="M196.23,245.49a20.65,20.65,0,0,1,0,6.18c-1,4.85-5.17,6.72-9.37,4.08-2.73-1.72-4.34-4.38-5.63-7.23-.93-2.06-1.71-4.18-2.56-6.28-1.79,2.37-4.36,3.44-7.11,4.18-3.45.92-6.67-.07-9.85-1.28,4.2,7.41,10.63,11.71,18.85,13.54l.24-.35c0-.58-.83-.87-.49-1.68,1.05,0,1.61.84,2.29,1.47,3.1,2.87,6.51,5.08,11,4.93,3.18-.1,5.81-1.57,8.27-3.38,1.87-1.36,3.67-2.83,5.5-4.26.17-.17.32-.42.53-.51a23.26,23.26,0,0,0,9.9-8.35c1.1-1.64,2.4-3.31,2.31-5.85a30.92,30.92,0,0,1-2.58,2.39c-5.06,3.67-10.77,4.18-16.75,3.36C199.24,246.23,197.87,245.24,196.23,245.49Z" transform="translate(-74.8 -151.53)"/><path class="cls-6" d="M191.37,218.63c7,.22,11.9,4.22,16.34,9,.66.71,1.25,1.49,1.95,2.17,1.37,1.33,2.83,2.55,5,1.65a5,5,0,0,0,3-5.16c-.11-1.13.06-1.45,1.13-1a72.59,72.59,0,0,0-3.5-10.33,2.68,2.68,0,0,0-3-2.07,57.79,57.79,0,0,1-24.79-4.34,8.78,8.78,0,0,0-6.79,0c-4.08,1.61-5,4.65-2.79,8.54a7.78,7.78,0,0,0,8.11-1.92c.84-.82,1.81-1.73,3-.94s.87,2.13.84,3.32a2.24,2.24,0,0,1-.23.64C190.24,218.69,190.89,218.17,191.37,218.63Z" transform="translate(-74.8 -151.53)"/><path class="cls-5" d="M212.25,213a2.68,2.68,0,0,1,3,2.07,72.59,72.59,0,0,1,3.5,10.33c.54,1.39,1.66,2.45,2.12,3.89a9.14,9.14,0,0,1-4,11.1c-5.8,3.57-12.19,3.92-18.73,3.07-2.43-.32-2.42-.39-1.87,2.07,1.64-.26,3,.73,4.56.95,6,.82,11.69.31,16.75-3.36a30.92,30.92,0,0,0,2.58-2.39c.09,2.54-1.21,4.21-2.31,5.85a23.26,23.26,0,0,1-9.9,8.35c-.21.09-.36.34-.53.51.32.69-.57,1.15-.29,2,8.15-2.9,16-6.24,22.47-12.25.69-.64.8-1.06.22-1.9-.39-.55-1.73-1.47-.09-2.25.06-1.25-2-2-.79-3.52-2.32-1.2-2.89-3.61-3.62-5.73A65,65,0,0,1,222,215.81a2.4,2.4,0,0,0-2.26-2.52C217.22,212.76,214.77,212.27,212.25,213Z" transform="translate(-74.8 -151.53)"/><path class="cls-6" d="M175.65,220.18c-1.93-4.78-2-5-1.35-9.55-3.14.5-6.25,1.27-9.43.54-.75-.18-.85.42-1,.87a70.67,70.67,0,0,0-5.12,19.06c-.12,1.05.24,1.24,1.17,1a6.11,6.11,0,0,0,3.42-2.09c1-1.19,1.93-2.44,2.8-3.72C168.42,222.92,171.24,220.33,175.65,220.18Z" transform="translate(-74.8 -151.53)"/><path class="cls-8" d="M228,232c.67-2.17,1.2-4.36,2.56-6.22q4.16-5.72,10.24-2.1c.48.29.91,1,1.48.69s.4-1.15.44-1.77c.12-2-.7-2.93-2.73-3.44-4.62-1.18-9.16-2.69-13.74-4.06-.72-.22-1.56-.47-1.38.76C225.64,221.27,226.13,226.73,228,232Z" transform="translate(-74.8 -151.53)"/><path class="cls-6" d="M230.07,235.62c.8-2.52,1.2-5.17,2.37-7.56s3-3.13,5.61-2c2.22,1,3.18,2.94,3.9,5,1.37,4,.33,8.18-2.47,10.25-2.64,1.94-6.87,1.78-9.79-.38.06-1.25-2-2-.79-3.52C229.88,237.22,229.85,236.33,230.07,235.62Zm10.31-2.45c.3-1.77,0-3.39-1.65-4.4-1.15-.73-2.21-.32-3.13.59-1.83,1.81-2.34,3.26-1.31,4.89s-.12,2.64-.74,3.83c3.48,1.12,5.82-.19,6.26-3.5A7.06,7.06,0,0,0,240.38,233.17Z" transform="translate(-74.8 -151.53)"/><path class="cls-9" d="M190.91,254.57c1.25-.4,2.4-.8,2.84-2.3a16.62,16.62,0,0,0,.53-6.5c-.1-1-.49-1.28-1.39-.84-3.15,1.5-4.68,4.3-5.87,7.35-.3.79.48,1.1.95,1.5A5,5,0,0,0,190.91,254.57Z" transform="translate(-74.8 -151.53)"/><path class="cls-5" d="M191.37,218.63c-.48-.46-1.13.06-1.74-.32a2.24,2.24,0,0,0,.23-.64c0-1.19.34-2.56-.84-3.32s-2.19.12-3,.94a7.78,7.78,0,0,1-8.11,1.92c.68,2.16,2.51,3.32,4.11,4.69.37.33.65.36,1,0C185.28,219.59,188.26,218.94,191.37,218.63Z" transform="translate(-74.8 -151.53)"/><path class="cls-5" d="M161.75,245.14c3.18,1.21,6.4,2.2,9.85,1.28,2.75-.74,5.32-1.81,7.11-4.18-.21-1.51-1.14-.91-1.85-.55a22.23,22.23,0,0,1-6.77,2.3,20.55,20.55,0,0,1-9-.35A1.78,1.78,0,0,0,161.75,245.14Z" transform="translate(-74.8 -151.53)"/><path class="cls-7" d="M182,238.48l3.58.11C184.3,237.41,183.35,236.26,182,238.48Z" transform="translate(-74.8 -151.53)"/><path class="cls-5" d="M185.94,263.92l-.72-.49c-.17.49.26.57.53.77C185.81,264.11,185.88,264,185.94,263.92Z" transform="translate(-74.8 -151.53)"/><path class="cls-7" d="M212.14,265.65a3.06,3.06,0,0,0,.19-.27c-.17-.2-.32-.07-.45.07Z" transform="translate(-74.8 -151.53)"/><path class="cls-6" d="M180.6,258.68l.46,0-.22-.38Z" transform="translate(-74.8 -151.53)"/><path class="cls-9" d="M222.12,208.27l.1.15-.11-.14Z" transform="translate(-74.8 -151.53)"/><path class="cls-5" d="M219.68,195.79c.45,1.31,1.23,2,2.5,1.74a1.85,1.85,0,0,0,1.52-2.26,1.88,1.88,0,0,0-2.4-1.63A2.09,2.09,0,0,0,219.68,195.79Z" transform="translate(-74.8 -151.53)"/><path class="cls-5" d="M210.06,194.6c.92-.47,1.49-1,1.25-2s-.86-1.16-1.72-1-1.07.77-.94,1.57A1.58,1.58,0,0,0,210.06,194.6Z" transform="translate(-74.8 -151.53)"/><path class="cls-6" d="M224.47,288a12.56,12.56,0,0,0,3.86-1.26,4.47,4.47,0,0,0,2.68-4.36,116.38,116.38,0,0,1,.42-15.82,4.16,4.16,0,0,0-3.18-4.32,20.72,20.72,0,0,0-9.34-.89,18.13,18.13,0,0,0-6.61,2.37,4.79,4.79,0,0,0-2.37,3.25,4.61,4.61,0,0,0,1,3.75,1,1,0,0,0,.76.37h.17a1,1,0,0,0,.6-.32,6.83,6.83,0,0,1,4.19-2.24,9.25,9.25,0,0,1,1.3-.09,11.14,11.14,0,0,0,1.17-.07,4.27,4.27,0,0,1,1.94.09c-.4.12-.81.22-1.22.32l-1.13.27c-.95.22-1.94.44-2.9.75-2.67.85-3.36,2-3,4.73,0,.3.1.6.14.89l.07.42a1,1,0,0,0,.58.75,1,1,0,0,0,.56.08,1,1,0,0,0,.4-.15,15,15,0,0,1,6.08-2l.66-.09.39-.06a9,9,0,0,1,1.68-.14h0a3.28,3.28,0,0,0-.31.2,13.59,13.59,0,0,1-4.5,1.85,9.17,9.17,0,0,0-2.74,1,3.15,3.15,0,0,0-1.6,2A3.26,3.26,0,0,0,215,282a1,1,0,0,0,.74.42.89.89,0,0,0,.23,0,1,1,0,0,0,.57-.29.28.28,0,0,1,.18-.1,2.6,2.6,0,0,1,.71.1l.25.05a9.26,9.26,0,0,0,3.22.12,8.52,8.52,0,0,0,3.43-1.33.38.38,0,0,1,0,.13c0,.12-.39.4-.57.53l-.19.15a6.39,6.39,0,0,1-3.08,1.24,12.62,12.62,0,0,1-1.84.12,2,2,0,0,1-.34,0,4.25,4.25,0,0,0-.94,0,2.3,2.3,0,0,0-.78.25,1,1,0,0,0-.52,1.13,4.4,4.4,0,0,0,3.34,3.2A11.46,11.46,0,0,0,224.47,288Z" transform="translate(-74.8 -151.53)"/><path class="cls-3" d="M219.05,262.37a19.79,19.79,0,0,1,8.9.86,3.2,3.2,0,0,1,2.48,3.28,118.14,118.14,0,0,0-.42,16,3.47,3.47,0,0,1-2.14,3.4,11.31,11.31,0,0,1-3.55,1.17,10.62,10.62,0,0,1-4.56-.34,3.44,3.44,0,0,1-2.65-2.48,1.83,1.83,0,0,1,.47-.15,8.62,8.62,0,0,1,1.14,0,14.45,14.45,0,0,0,2-.14,7.35,7.35,0,0,0,3.55-1.44c.64-.5,1.59-1.06.91-2.2.08-.37.79-.63.22-1.09a.35.35,0,0,0-.26-.08,1.1,1.1,0,0,0-.49.31,7.69,7.69,0,0,1-3.85,1.79,8.27,8.27,0,0,1-2.88-.1,3.93,3.93,0,0,0-1.31-.16,1.31,1.31,0,0,0-.75.39c-.95-1.33-.78-2.32.56-3.14a8.66,8.66,0,0,1,2.46-.9,14.14,14.14,0,0,0,4.83-2c.51-.35,1.26-.62,1.11-1.5.32-.13.16-.21,0-.29a7,7,0,0,0-3.52,0l-.67.1a15.86,15.86,0,0,0-6.48,2.1c-.07-.43-.14-.87-.2-1.3-.33-2.26,0-2.91,2.26-3.62,1.3-.41,2.64-.68,4-1a8.35,8.35,0,0,0,4.19-1.91c-.16-.42-.35-.53-.54-.5s-.51.28-.75.41l-.87.15c-1.28-1-2.78-.47-4.14-.47a8.81,8.81,0,0,0-1.46.1,7.79,7.79,0,0,0-4.79,2.56,3.54,3.54,0,0,1,1.05-5.5,16.81,16.81,0,0,1,6.24-2.25m5.76,11.44v0h0v0m-6.05-13.43a19.06,19.06,0,0,0-7,2.51,5.73,5.73,0,0,0-2.84,3.93,5.59,5.59,0,0,0,1.25,4.56,2,2,0,0,0,1.51.75h.18a7.4,7.4,0,0,0,0,2.57c.05.31.1.62.14.92,0,.13,0,.27.07.4a2,2,0,0,0,1.16,1.52,2,2,0,0,0,.72.17,3.53,3.53,0,0,0-.69,1.48,4.26,4.26,0,0,0,.91,3.36,2,2,0,0,0,1.11.77,2,2,0,0,0-.16,1.39,5.34,5.34,0,0,0,4,3.92,12.3,12.3,0,0,0,5.41.4,13.21,13.21,0,0,0,4.18-1.36,5.48,5.48,0,0,0,3.22-5.3,116.35,116.35,0,0,1,.42-15.7,5.18,5.18,0,0,0-3.88-5.35,22,22,0,0,0-9.79-.93Z" transform="translate(-74.8 -151.53)"/><path class="cls-7" d="M231.6,294.86l.23-.06a35,35,0,0,0,11-6.69,13.13,13.13,0,0,0,2.15-2.74c2.22-3.61,1.78-7-1.29-9.82A49.1,49.1,0,0,0,235.9,270l-.85-.52a1,1,0,0,0-.67-.14,1,1,0,0,0-.41.16,1,1,0,0,0-.44,1c.06.4.11.76.16,1.11.11.7.2,1.32.3,1.95a50.65,50.65,0,0,1,.86,9.15c-.13,4.65-1.43,8-4.08,10.41a1,1,0,0,0,.83,1.73Z" transform="translate(-74.8 -151.53)"/><path class="cls-3" d="M234.53,270.37a54.76,54.76,0,0,1,8.53,5.92c2.76,2.53,3.08,5.36,1.12,8.56a12.47,12.47,0,0,1-2,2.53,34,34,0,0,1-10.74,6.49c3.27-3,4.28-6.91,4.4-11.12a51.45,51.45,0,0,0-.87-9.34c-.15-.93-.28-1.86-.45-3m-.3-2a1.92,1.92,0,0,0-.81.31,2,2,0,0,0-.88,2c.06.39.11.75.16,1.09.1.72.19,1.34.29,2a49.11,49.11,0,0,1,.86,9c-.13,4.42-1.29,7.41-3.76,9.7a2,2,0,0,0-.33,2.56,2,2,0,0,0,2,.9,1.91,1.91,0,0,0,.47-.12,35.69,35.69,0,0,0,11.36-6.89,14.22,14.22,0,0,0,2.32-2.94,8.91,8.91,0,0,0,1.49-5.84,8.62,8.62,0,0,0-3-5.25,51,51,0,0,0-8-5.64l-.84-.51a2,2,0,0,0-1.35-.28Z" transform="translate(-74.8 -151.53)"/><path class="cls-6" d="M224.17,261a1.26,1.26,0,0,0,1.07-1.49,13.73,13.73,0,0,1,.12-3.2,13.74,13.74,0,0,0,.14-2.76v0a4,4,0,0,0-1.37-2.75,2.49,2.49,0,0,0-1.9-.47,4,4,0,0,0-1.6.66c-2.24,1.5-4,5.78-3.42,8.48a1.67,1.67,0,0,0,2,1.4,18.69,18.69,0,0,1,4.15.12l.1,0A1.86,1.86,0,0,0,224.17,261Z" transform="translate(-74.8 -151.53)"/><path class="cls-3" d="M222.38,251.27c1.06-.16,1.88.62,2.12,2.36s-.52,3.84-.26,6c0,.26-.07.36-.22.38a1.89,1.89,0,0,1-.52-.06,19.47,19.47,0,0,0-4.38-.13c-.5,0-.8,0-.92-.61-.47-2.29,1-6.13,3-7.43a2.9,2.9,0,0,1,1.19-.5m-.3-2a4.86,4.86,0,0,0-2,.82c-2.63,1.74-4.49,6.37-3.85,9.51a2.63,2.63,0,0,0,3,2.2,16.76,16.76,0,0,1,3.93.12h.06a3.39,3.39,0,0,0,1.07.05,2.28,2.28,0,0,0,1.91-2.61,12.9,12.9,0,0,1,.13-3,14.72,14.72,0,0,0,.14-3s0-.07,0-.1a4.92,4.92,0,0,0-1.76-3.42,3.54,3.54,0,0,0-2.65-.65Z" transform="translate(-74.8 -151.53)"/><path class="cls-5" d="M231.08,290l1-.16a1.86,1.86,0,0,0,1.47-1.68c0-.07,0-.13,0-.2a18.08,18.08,0,0,0,.33-6.61c-.12-1.27-.32-2.54-.52-3.76-.09-.54-.17-1.08-.25-1.62a1,1,0,0,0-.42-.68,1.08,1.08,0,0,0-.72-.17H232l-.31.07a1,1,0,0,0-.8,1c0,.42,0,.84,0,1.26,0,.92.08,1.87.13,2.81.22,3.84-.38,5.78-4.49,7.09a2,2,0,0,0-.54.3l-.13.09a1,1,0,0,0-.45.92,1,1,0,0,0,.59.83A8.77,8.77,0,0,0,231.08,290Z" transform="translate(-74.8 -151.53)"/><path class="cls-3" d="M232.15,276.08c.27,1.77.61,3.54.77,5.32a17.08,17.08,0,0,1-.29,6.25c-.13.44-.09,1.05-.72,1.16l-1,.16a7.76,7.76,0,0,1-4.52-.4,2.36,2.36,0,0,1,.43-.27c4.77-1.52,5.41-4.06,5.18-8.1-.07-1.36-.12-2.71-.18-4.06l.31-.06m-.29-2-.11,0-.16,0-.15,0a2,2,0,0,0-1.6,2.06c0,.42,0,.84,0,1.26,0,.92.08,1.87.13,2.82.2,3.64-.29,5-3.79,6.07a3,3,0,0,0-.84.45l-.08.06a2,2,0,0,0-.9,1.83,2,2,0,0,0,1.17,1.68,9.7,9.7,0,0,0,5.65.55l1-.16a2.68,2.68,0,0,0,1.89-1.31,3.67,3.67,0,0,0,.4-1.17.74.74,0,0,0,0-.12,18.81,18.81,0,0,0,.36-7c-.12-1.31-.33-2.59-.53-3.83-.08-.53-.17-1.08-.25-1.61a2,2,0,0,0-.84-1.35,2,2,0,0,0-1.44-.34Z" transform="translate(-74.8 -151.53)"/><path class="cls-5" d="M224.77,273.54a7,7,0,0,0-3.52,0,17,17,0,0,0-7.15,2.2c.19,1.18.64,1.43,1.88.95,2-.77,4.19-1.19,6.28-1.82.88-.26,1.7-.68,2.55-1v0Z" transform="translate(-74.8 -151.53)"/><path class="cls-5" d="M222.15,267.93c-1.28-1-2.78-.47-4.14-.47a8,8,0,0,0-6.25,2.66c.46.76.94,1,1.73.32,1.1-1,2.59-1.1,3.94-1.46C219,268.57,220.57,268.28,222.15,267.93Z" transform="translate(-74.8 -151.53)"/><path class="cls-5" d="M225.17,280.31c.08-.37.79-.63.22-1.09-.27-.22-.52,0-.75.23a7.62,7.62,0,0,1-6.73,1.69c-.7-.15-1.44-.4-2.06.23a.77.77,0,0,0,.64.51C219.6,282.56,222.61,282.67,225.17,280.31Z" transform="translate(-74.8 -151.53)"/><path class="cls-7" d="M228.94,293.15a7,7,0,0,0,1.81-.54.61.61,0,0,0,.35-.61.6.6,0,0,0-.45-.53,31.48,31.48,0,0,1-7-2.43.64.64,0,0,0-.36-.05.6.6,0,0,0-.4.95C224.68,292.44,226.67,293.49,228.94,293.15Z" transform="translate(-74.8 -151.53)"/><path class="cls-3" d="M223.35,289.58a32.31,32.31,0,0,0,7.15,2.48,6.58,6.58,0,0,1-1.65.5c-2,.3-3.84-.7-5.5-3m-.18-1.19a1.2,1.2,0,0,0-.79,1.9c1.93,2.66,4.17,3.83,6.65,3.46a7.29,7.29,0,0,0,2-.59,1.21,1.21,0,0,0,.71-1.21,1.19,1.19,0,0,0-.91-1.06,31.59,31.59,0,0,1-6.9-2.38,1.14,1.14,0,0,0-.72-.12Zm.36,2.38Z" transform="translate(-74.8 -151.53)"/><path class="cls-5" d="M224.31,267.87c-.37-.95-.84-.32-1.29-.09C223.44,267.89,223.9,267.52,224.31,267.87Z" transform="translate(-74.8 -151.53)"/><path class="cls-10" d="M224.77,273.54l0,.3C225.14,273.7,225,273.62,224.77,273.54Z" transform="translate(-74.8 -151.53)"/><path class="cls-10" d="M239.81,234.58a7.06,7.06,0,0,0,.57-1.41c.3-1.77,0-3.39-1.65-4.4-1.15-.73-2.21-.32-3.13.59-1.83,1.81-2.34,3.26-1.31,4.89s-.12,2.64-.74,3.83c2.88-.48,3.87-1.85,3.14-4.69a1.66,1.66,0,0,1,1-2.18c1-.32.89.79,1.09,1.41S239,234.16,239.81,234.58Z" transform="translate(-74.8 -151.53)"/><path class="cls-5" d="M239.81,234.58c-.78-.42-.8-1.25-1-2s-.12-1.73-1.09-1.41a1.66,1.66,0,0,0-1,2.18c.73,2.84-.26,4.21-3.14,4.69C237,239.2,239.37,237.89,239.81,234.58Z" transform="translate(-74.8 -151.53)"/><path class="cls-6" d="M175,289.45a11.49,11.49,0,0,0,4.67-1.79,4.42,4.42,0,0,0,2.27-4,1,1,0,0,0-.83-.94,2.44,2.44,0,0,0-.81,0,4.1,4.1,0,0,0-.91.26,1.52,1.52,0,0,1-.32.11,12.38,12.38,0,0,1-1.8.42,6.29,6.29,0,0,1-3.3-.3l-.23-.08a2.4,2.4,0,0,1-.7-.35h0a.37.37,0,0,1,0-.14,8.3,8.3,0,0,0,3.66.28,9.28,9.28,0,0,0,3.05-1l.22-.12a2.17,2.17,0,0,1,.66-.3.28.28,0,0,1,.2,0,1,1,0,0,0,.63.12.9.9,0,0,0,.22-.06,1,1,0,0,0,.58-.61,3.25,3.25,0,0,0,0-2.68,3.17,3.17,0,0,0-2.11-1.46,9.58,9.58,0,0,0-2.92-.18,13.49,13.49,0,0,1-4.84-.47L172,276h0a9,9,0,0,1,1.64-.34l.39-.06.66-.1a15,15,0,0,1,6.39.1,1,1,0,0,0,.42,0,1,1,0,0,0,.51-.23,1,1,0,0,0,.34-.9l-.06-.41q0-.45-.12-.9c-.41-2.77-1.39-3.63-4.2-3.67-1,0-2,.05-3,.12l-1.16.07-1.26,0a4.19,4.19,0,0,1,1.83-.65c.37-.08.76-.15,1.14-.27a8.58,8.58,0,0,1,1.27-.29,6.78,6.78,0,0,1,4.66.93,1,1,0,0,0,.67.13.53.53,0,0,0,.17,0,1,1,0,0,0,.61-.57,4.59,4.59,0,0,0-.08-3.89,4.82,4.82,0,0,0-3.2-2.43,18.14,18.14,0,0,0-7-.36,20.71,20.71,0,0,0-8.68,3.56,4.14,4.14,0,0,0-1.79,5.05,117.51,117.51,0,0,1,5,15,4.46,4.46,0,0,0,3.83,3.39A12.35,12.35,0,0,0,175,289.45Z" transform="translate(-74.8 -151.53)"/><path class="cls-3" d="M172.78,263.32a17,17,0,0,1,6.62.35,3.53,3.53,0,0,1,2.6,5,7.8,7.8,0,0,0-5.33-1.06,9.32,9.32,0,0,0-1.42.32c-1.3.4-2.89.34-3.82,1.65l-.88.1a3.32,3.32,0,0,0-.83-.17c-.2,0-.35.18-.38.64a8.29,8.29,0,0,0,4.56.61c1.36-.07,2.72-.2,4.08-.18,2.34,0,2.88.54,3.22,2.81l.18,1.3a16,16,0,0,0-6.82-.14l-.66.11a6.84,6.84,0,0,0-3.36,1.05c-.17.13-.3.26,0,.29.11.88.91.92,1.5,1.12a14.26,14.26,0,0,0,5.2.51,8.55,8.55,0,0,1,2.62.16c1.51.39,2,1.29,1.44,2.83a1.27,1.27,0,0,0-.83-.15,3.82,3.82,0,0,0-1.21.53,8.45,8.45,0,0,1-2.72.93,7.81,7.81,0,0,1-4.21-.6,1.19,1.19,0,0,0-.55-.16.37.37,0,0,0-.24.16c-.41.6.35.65.53,1-.32,1.28.75,1.54,1.51,1.84a7.35,7.35,0,0,0,3.82.35,15,15,0,0,0,1.94-.44,8,8,0,0,1,1.08-.35,1.69,1.69,0,0,1,.5,0,3.46,3.46,0,0,1-1.82,3.14,10.6,10.6,0,0,1-4.26,1.64,11.23,11.23,0,0,1-3.74-.09,3.47,3.47,0,0,1-3-2.64,120,120,0,0,0-5-15.15,3.18,3.18,0,0,1,1.43-3.86,19.77,19.77,0,0,1,8.26-3.4m-2.2,12.62,0,0h0v0m1.91-14.6a21.59,21.59,0,0,0-9.1,3.72,5.16,5.16,0,0,0-2.17,6.24,117.2,117.2,0,0,1,4.94,14.9,5.49,5.49,0,0,0,4.62,4.15,13.82,13.82,0,0,0,4.39.1,12.77,12.77,0,0,0,5.07-1.95,5.37,5.37,0,0,0,2.72-4.92,2,2,0,0,0-.55-1.29,2,2,0,0,0,.83-1.06,4.25,4.25,0,0,0-.1-3.48,3.5,3.5,0,0,0-1.09-1.21,2.06,2.06,0,0,0,.64-.37,2,2,0,0,0,.68-1.79l-.06-.41c0-.3-.08-.61-.13-.92a6.94,6.94,0,0,0-.73-2.46l.18,0a2,2,0,0,0,1.23-1.15,5.58,5.58,0,0,0-.12-4.73,5.75,5.75,0,0,0-3.85-2.94,19.12,19.12,0,0,0-7.4-.38l.29,2-.29-2Z" transform="translate(-74.8 -151.53)"/><path class="cls-7" d="M170.17,298.05a1,1,0,0,0,.82-.72,1,1,0,0,0-.53-1.17c-3.24-1.58-5.44-4.38-6.91-8.79a49.3,49.3,0,0,1-1.82-9c-.09-.62-.19-1.25-.29-1.95-.05-.35-.11-.71-.16-1.11a1,1,0,0,0-.71-.81,1,1,0,0,0-.43,0,1,1,0,0,0-.61.33l-.66.74a50.28,50.28,0,0,0-5.91,7.55c-2.12,3.58-1.57,7,1.6,9.78a13,13,0,0,0,2.86,2,34.77,34.77,0,0,0,12.51,3.21A.65.65,0,0,0,170.17,298.05Z" transform="translate(-74.8 -151.53)"/><path class="cls-3" d="M160.28,275.45c.18,1.19.32,2.12.45,3.05a51.28,51.28,0,0,0,1.86,9.19c1.34,4,3.43,7.42,7.44,9.37A33.85,33.85,0,0,1,157.87,294a12.13,12.13,0,0,1-2.64-1.84c-2.81-2.5-3.31-5.3-1.4-8.52a54.92,54.92,0,0,1,6.45-8.14m-.29-2a2,2,0,0,0-1.21.65l-.66.74a50,50,0,0,0-6,7.71,8.61,8.61,0,0,0-1.32,5.88,9,9,0,0,0,3.12,5.16,13.83,13.83,0,0,0,3.07,2.14,35.62,35.62,0,0,0,12.87,3.31,2.57,2.57,0,0,0,.48,0A2,2,0,0,0,172,297.6a2,2,0,0,0-1.06-2.34c-3-1.48-5-4-6.4-8.21a49,49,0,0,1-1.78-8.83c-.09-.63-.18-1.25-.29-2-.05-.35-.1-.71-.16-1.1a2,2,0,0,0-1.41-1.63,1.85,1.85,0,0,0-.87-.06Z" transform="translate(-74.8 -151.53)"/><path class="cls-6" d="M167.49,263.49a2.37,2.37,0,0,0,.69-.26l.08,0a18,18,0,0,1,3.94-1.32,1.66,1.66,0,0,0,1.48-1.92c-.25-2.74-3.13-6.34-5.72-7.12a4,4,0,0,0-1.72-.17,2.52,2.52,0,0,0-1.68,1,4,4,0,0,0-.51,3,.11.11,0,0,0,0,.05,12.93,12.93,0,0,0,.93,2.6,13.57,13.57,0,0,1,1,3,1.28,1.28,0,0,0,1.46,1.12Z" transform="translate(-74.8 -151.53)"/><path class="cls-3" d="M166.39,253.66a3,3,0,0,1,1.28.13c2.24.68,4.8,3.92,5,6.26.06.62-.22.73-.7.84a19.48,19.48,0,0,0-4.15,1.39,1.61,1.61,0,0,1-.49.21c-.15,0-.28,0-.32-.3-.37-2.14-1.64-4-2-5.66s.28-2.72,1.35-2.87m-.3-2a3.49,3.49,0,0,0-2.34,1.39,4.92,4.92,0,0,0-.7,3.78.36.36,0,0,1,0,.1,14.59,14.59,0,0,0,1,2.8,12.76,12.76,0,0,1,1,2.8,2.29,2.29,0,0,0,2.59,1.94,3.19,3.19,0,0,0,1-.36l.05,0a17.54,17.54,0,0,1,3.73-1.24,2.64,2.64,0,0,0,2.26-3c-.29-3.19-3.41-7.08-6.43-8a5,5,0,0,0-2.16-.2Z" transform="translate(-74.8 -151.53)"/><path class="cls-5" d="M169.25,293.21a8.81,8.81,0,0,0,4.73-1.92,1,1,0,0,0,.31-1,1,1,0,0,0-.69-.75l-.15-.05a1.79,1.79,0,0,0-.61-.13c-4.31-.07-5.44-1.75-6.34-5.49l-.69-2.73c-.11-.4-.21-.81-.32-1.21a1,1,0,0,0-1.06-.76l-.32,0h-.05a1,1,0,0,0-.85,1.14c.08.54.15,1.08.23,1.62.16,1.23.33,2.5.59,3.75a18.06,18.06,0,0,0,2.22,6.24,1,1,0,0,1,.1.18,1.86,1.86,0,0,0,1.89,1.18l1-.14Z" transform="translate(-74.8 -151.53)"/><path class="cls-3" d="M164.21,280.23l.31,0c.33,1.32.68,2.62,1,3.94.95,3.93,2.3,6.18,7.31,6.25a2.33,2.33,0,0,1,.48.14,7.71,7.71,0,0,1-4.21,1.69l-1,.13c-.63.08-.78-.51-1-.9a17,17,0,0,1-2.09-5.9c-.36-1.75-.54-3.54-.8-5.32m-.3-2a2,2,0,0,0-1.28.74,2,2,0,0,0-.41,1.54c.08.53.15,1.08.22,1.61.17,1.24.34,2.53.61,3.81a18.65,18.65,0,0,0,2.35,6.57l.06.12a3.83,3.83,0,0,0,.72,1,2.66,2.66,0,0,0,2.18.7l1-.13a9.81,9.81,0,0,0,5.25-2.17,2,2,0,0,0,.63-1.94,2,2,0,0,0-1.39-1.49l-.09,0a2.85,2.85,0,0,0-.93-.18c-3.67-.06-4.53-1.17-5.39-4.72-.22-.92-.46-1.84-.69-2.73-.1-.41-.21-.82-.31-1.23a2,2,0,0,0-2.13-1.51l-.16,0H164l-.11,0Z" transform="translate(-74.8 -151.53)"/><path class="cls-5" d="M170.54,275.67a6.84,6.84,0,0,1,3.36-1.05,16.86,16.86,0,0,1,7.48,0c.15,1.18-.2,1.55-1.53,1.46-2.16-.16-4.35.07-6.54.07-.91,0-1.82-.16-2.73-.24l0,0Z" transform="translate(-74.8 -151.53)"/><path class="cls-5" d="M171.43,269.54c.93-1.31,2.52-1.25,3.82-1.65a8,8,0,0,1,6.75.74c-.22.86-.6,1.26-1.56.81-1.34-.64-2.79-.3-4.19-.26C174.64,269.24,173,269.42,171.43,269.54Z" transform="translate(-74.8 -151.53)"/><path class="cls-5" d="M172.11,282.27c-.18-.33-.94-.38-.53-1,.2-.29.52-.12.79,0a7.61,7.61,0,0,0,6.93-.33c.63-.34,1.26-.8,2-.38a.75.75,0,0,1-.47.68C178.09,282.81,175.24,283.78,172.11,282.27Z" transform="translate(-74.8 -151.53)"/><path class="cls-7" d="M172.22,295.65c2.27-.33,3.87-1.92,4.89-4.84a.61.61,0,0,0-.66-.79.64.64,0,0,0-.33.16,31.76,31.76,0,0,1-6,4.36.6.6,0,0,0,.23,1.11,6.64,6.64,0,0,0,1.89,0Z" transform="translate(-74.8 -151.53)"/><path class="cls-3" d="M176.54,290.61c-.93,2.67-2.35,4.14-4.4,4.44a6.26,6.26,0,0,1-1.73,0,31.72,31.72,0,0,0,6.13-4.44m-.18-1.19a1.18,1.18,0,0,0-.65.32A31.1,31.1,0,0,1,169.8,294a1.18,1.18,0,0,0-.57,1.28,1.2,1.2,0,0,0,1,.95,7.81,7.81,0,0,0,2.05,0c2.48-.37,4.28-2.13,5.37-5.24a1.21,1.21,0,0,0-.49-1.41,1.23,1.23,0,0,0-.83-.18Z" transform="translate(-74.8 -151.53)"/><path class="cls-5" d="M169.34,270.11c.08-1,.72-.55,1.21-.47C170.18,269.87,169.63,269.65,169.34,270.11Z" transform="translate(-74.8 -151.53)"/><path class="cls-10" d="M170.54,275.67l.06.29C170.23,275.93,170.36,275.81,170.54,275.67Z" transform="translate(-74.8 -151.53)"/><path class="cls-11" d="M139.59,188.61a9.13,9.13,0,0,1,7.68-10.35l.74-.07c0-.24-.11-.48-.14-.72a9.11,9.11,0,0,1,7.68-10.35,9,9,0,0,1,3.24.11,9.11,9.11,0,0,1,14.14-4.1,9.11,9.11,0,0,1,15.84-5.32A9.11,9.11,0,0,1,204.6,160a9.12,9.12,0,0,1,15.18,5.38,9,9,0,0,1,0,2.38,9.11,9.11,0,0,1,15.09,4.35,9.18,9.18,0,0,1,0,4.63,9.46,9.46,0,0,1,1.42-.33A9.1,9.1,0,0,1,245,190.79a9.11,9.11,0,0,1,2.45,18v0c-.52,15.66-2.76,16.13-2.76,16.13-.2-1.39,1.22-7.4-3.15-8.17s-10.33-2.28-11.71-2.52a34.28,34.28,0,0,1-4.53-1.06c-3-1-.49-.54-5.79-1.67-5.66-1.21-6.53-3.05-9.23-3.82a57,57,0,0,0-10.06-2.17c-2.27-.27-3.48,0-5.08-.17-3.72-.35-7.88-1.69-11.88-2a49.48,49.48,0,0,0-12.89.69c-2.77.41-14.91,5.59-19.28,4.82-4.09-.73-8.36-2.67-7-13.68A9.11,9.11,0,0,1,139.59,188.61Z" transform="translate(-74.8 -151.53)"/><g class="cls-12"><path d="M139.69,189.26a9.06,9.06,0,0,1,1.68-6.74c0,.17,0,.34,0,.52a9.09,9.09,0,0,0,4.52,6.58c-1.38,11,2.89,13,7,13.68,4.36.78,16.51-4.41,19.28-4.81a49.41,49.41,0,0,1,12.89-.69c4,.3,8.15,1.63,11.88,2,1.59.15,2.8-.1,5.08.17a57.14,57.14,0,0,1,10.06,2.17c2.69.77,3.57,2.61,9.22,3.82,5.31,1.13,2.82.69,5.8,1.67a32.46,32.46,0,0,0,4.53,1c1.38.25,7.34,1.75,11.71,2.53s2.94,6.78,3.15,8.16c0,0,.12,0,.31-.25-.85,6.22-2,6.48-2,6.48-.21-1.39,1.21-7.4-3.15-8.17s-10.33-2.28-11.71-2.52a34.44,34.44,0,0,1-4.54-1.06c-3-1-.48-.54-5.79-1.67-5.65-1.21-6.53-3-9.22-3.82a57.33,57.33,0,0,0-10.06-2.17c-2.28-.27-3.49,0-5.08-.17-3.73-.35-7.89-1.69-11.88-2a49.41,49.41,0,0,0-12.89.69c-2.78.41-14.92,5.59-19.28,4.82-4.09-.73-8.36-2.67-7-13.69A9.07,9.07,0,0,1,139.69,189.26Z" transform="translate(-74.8 -151.53)"/><path d="M149.1,172.69c-.1,0-.19,0-.29.06a10,10,0,0,1,.83-1.37c0,.17,0,.34.05.51s.09.49.15.73C149.59,172.64,149.35,172.65,149.1,172.69Z" transform="translate(-74.8 -151.53)"/><path d="M249.28,203.24v0a9.1,9.1,0,0,0,5.31-3.49A9.09,9.09,0,0,1,249,209C249.1,207.32,249.21,205.44,249.28,203.24Z" transform="translate(-74.8 -151.53)"/></g><circle class="cls-13" cx="161.06" cy="41.95" r="2.29"/><circle class="cls-13" cx="133.35" cy="45.05" r="3.28"/><circle class="cls-13" cx="118.69" cy="24.35" r="2.29"/><circle class="cls-13" cx="90.61" cy="27.18" r="2.29"/><circle class="cls-13" cx="81.78" cy="41.41" r="3.28"/><circle class="cls-13" cx="141.04" cy="25.36" r="2.62"/><g class="cls-14"><path class="cls-15" d="M155.45,166.47a9.29,9.29,0,0,1,3.25.11,9.11,9.11,0,0,1,14.14-4.1,9.1,9.1,0,0,1,15.83-5.31,9.11,9.11,0,0,1,15.84,2.22,9.1,9.1,0,0,1,15.2,7.76,9.11,9.11,0,0,1,15.06,9,8.4,8.4,0,0,1,1.42-.34,9.1,9.1,0,0,1,8.71,14.35,9.1,9.1,0,0,1,7.58,14.72,8.67,8.67,0,0,0-.06-2,9.11,9.11,0,0,0-9.44-7.77,9.1,9.1,0,0,0-8.71-14.35,8.4,8.4,0,0,0-1.42.34,9.11,9.11,0,0,0-9.21-11.48,9.07,9.07,0,0,0-5.85,2.49,9,9,0,0,0,0-2.37,9.11,9.11,0,0,0-15.18-5.38,9.11,9.11,0,0,0-15.83-2.23,9.11,9.11,0,0,0-15.84,5.31,9.1,9.1,0,0,0-14.14,4.11,9,9,0,0,0-9.06,3.27A9.09,9.09,0,0,1,155.45,166.47Z" transform="translate(-74.8 -151.53)"/></g></g><path class="cls-3" d="M141.89,336.51c-4.89,0-8.77-1.49-11.53-4.43-4.41-4.69-4.42-11.42-4.3-13.48V287.4a2.14,2.14,0,0,1,2.14-2.14h11a2.14,2.14,0,0,1,2.14,2.14v31.16c0,.13,0,.28,0,.46a3.32,3.32,0,0,0,.27,1.53h0a1.63,1.63,0,0,0,.23,0h0a2.59,2.59,0,0,0,.57-.07,3,3,0,0,1,.43,0,2.13,2.13,0,0,1,2.13,2l.74,11.71a2.15,2.15,0,0,1-2,2.27C143.11,336.48,142.49,336.51,141.89,336.51Z" transform="translate(-74.8 -151.53)"/><path class="cls-3" d="M139.18,287.4v31.27c.11.83-.18,4,2.68,4a4.69,4.69,0,0,0,1-.11l.73,11.71c-.59,0-1.15.07-1.7.07-13.64,0-13.86-12.81-13.69-15.7V287.4h11m0-4.28h-11a4.28,4.28,0,0,0-4.28,4.28v31.14c-.12,2.36-.07,9.74,4.88,15,3.19,3.38,7.59,5.09,13.09,5.09.65,0,1.33,0,2-.07a4.28,4.28,0,0,0,4-4.54l-.73-11.71a4.32,4.32,0,0,0-1.67-3.13,4.38,4.38,0,0,0-2-.84v-31a4.28,4.28,0,0,0-4.28-4.28Z" transform="translate(-74.8 -151.53)"/><path class="cls-3" d="M159.92,325.68a2.15,2.15,0,0,1-1.66-.8c-.68.06-1.34.09-2,.09a16.41,16.41,0,0,1-10.1-3.23c-4.13-3.16-6.57-8.63-6.52-14.62s2.57-11.53,6.73-14.61a25.38,25.38,0,0,1,12.65-4.4h.06c1.17-.09,2.38-.13,3.62-.13a52.2,52.2,0,0,1,8.76.71,2.14,2.14,0,0,1,1.75,2.11l-.12,32.74a2.15,2.15,0,0,1-2.14,2.14Z" transform="translate(-74.8 -151.53)"/><path class="cls-3" d="M162.71,290.12a51.44,51.44,0,0,1,8.37.67L171,323.54h-11v-1.05a20.5,20.5,0,0,1-3.65.34,14.21,14.21,0,0,1-8.8-2.79c-7.84-6-7.35-20.23.19-25.81a23.36,23.36,0,0,1,11.59-4c1.19-.09,2.35-.12,3.46-.12M152,306.85a4.83,4.83,0,0,0,5,4.81,4.83,4.83,0,0,1-5-4.81c0-2.51,2-5.06,6.82-5.06-4.8,0-6.82,2.55-6.82,5.06m10.73-21c-1.29,0-2.56,0-3.78.13h-.11a27.62,27.62,0,0,0-13.72,4.81c-4.69,3.48-7.53,9.58-7.59,16.32s2.7,12.76,7.36,16.33a18.6,18.6,0,0,0,11.4,3.67l1.25,0a4.28,4.28,0,0,0,2.4.73h11a4.28,4.28,0,0,0,4.28-4.26l.12-32.74a4.27,4.27,0,0,0-3.49-4.22,53.34,53.34,0,0,0-9.16-.75Z" transform="translate(-74.8 -151.53)"/><path class="cls-3" d="M195.06,338.74a2.16,2.16,0,0,1-1.55-.68l-6.29-6.75v1.92a2.14,2.14,0,0,1-2.14,2.14h-11a2.14,2.14,0,0,1-2.14-2.14V285.52a2.14,2.14,0,0,1,2.14-2.14h11a2.14,2.14,0,0,1,2.14,2.14v15.36l7.11-6.29a2.15,2.15,0,0,1,1.42-.54H196a2.15,2.15,0,0,1,1.49.83l7,9.14a2.13,2.13,0,0,1-.29,2.91l-10.05,8.79L204.56,327a2.13,2.13,0,0,1,0,2.94l-7.91,8.16a2.14,2.14,0,0,1-1.53.65Z" transform="translate(-74.8 -151.53)"/><path class="cls-3" d="M185.08,285.52v20.11l10.67-9.44,7,9.14L191,315.57l12,12.87-7.91,8.16-10-10.73v7.36h-11V285.52h11m0-4.28h-11a4.28,4.28,0,0,0-4.28,4.28v47.71a4.28,4.28,0,0,0,4.28,4.28h11a4.26,4.26,0,0,0,3.41-1.7l3.46,3.71a4.29,4.29,0,0,0,3.08,1.36h.05a4.3,4.3,0,0,0,3.07-1.3l7.91-8.16a4.28,4.28,0,0,0,.06-5.89l-9-9.64,8.39-7.34a4.27,4.27,0,0,0,.58-5.82l-7-9.14a4.3,4.3,0,0,0-3-1.66l-.41,0a4.24,4.24,0,0,0-2.83,1.08l-3.56,3.14V285.52a4.28,4.28,0,0,0-4.28-4.28Z" transform="translate(-74.8 -151.53)"/><path class="cls-3" d="M212,325.68c-11.52,0-19.25-10.21-19.25-19.74,0-10.6,8.81-19.56,19.25-19.56,11.55,0,19.3,10.12,19.3,19.56C231.28,316.64,222.44,325.68,212,325.68Zm0-24c-2.25,0-3.93,2.27-3.93,4.3A4.27,4.27,0,0,0,212,310.3a4.21,4.21,0,0,0,4-4.36A4.27,4.27,0,0,0,212,301.64Z" transform="translate(-74.8 -151.53)"/><path class="cls-3" d="M212,288.52c9.87,0,17.16,8.59,17.16,17.42,0,9.62-8,17.6-17.16,17.6-9.87,0-17.11-8.83-17.11-17.6A17.5,17.5,0,0,1,212,288.52m0,23.92a6.35,6.35,0,0,0,6.13-6.5A6.42,6.42,0,0,0,212,299.5c-3.5,0-6.07,3.25-6.07,6.44a6.38,6.38,0,0,0,6.07,6.5m0-28.2c-11.6,0-21.39,9.94-21.39,21.7,0,10.56,8.59,21.87,21.39,21.87,11.62,0,21.44-10,21.44-21.87a22.09,22.09,0,0,0-6-14.95,21,21,0,0,0-15.4-6.75Zm0,23.92a2.15,2.15,0,0,1-1.79-2.22c0-1,.82-2.16,1.79-2.16a2.19,2.19,0,0,1,1.85,2.16c0,.93-.65,2.22-1.85,2.22Z" transform="translate(-74.8 -151.53)"/><path class="cls-3" d="M241.25,337.54a14.45,14.45,0,0,1-10.68-4.07c-4.69-4.71-4.79-11.71-4.78-12.49v-6.8h-.68A2.14,2.14,0,0,1,223,312v-11a2.14,2.14,0,0,1,2.14-2.14h.68V294.2a2.14,2.14,0,0,1,2.14-2.14H239a2.14,2.14,0,0,1,2.14,2.14v4.72h4.35a2.14,2.14,0,0,1,2.14,2.14v11a2.14,2.14,0,0,1-2.14,2.14h-4.35V321c0,1.07,1,1.07,1.44,1.07a6.4,6.4,0,0,0,1.5-.21,2.07,2.07,0,0,1,.5-.06,2.14,2.14,0,0,1,2.07,1.63l2.64,10.67a2.14,2.14,0,0,1-.25,1.62,2.1,2.1,0,0,1-1.32,1A27.5,27.5,0,0,1,241.25,337.54Z" transform="translate(-74.8 -151.53)"/><path class="cls-3" d="M239,294.2v6.86h6.49v11H239V321a3.23,3.23,0,0,0,3.58,3.21,8.38,8.38,0,0,0,2-.27l2.63,10.67a25.38,25.38,0,0,1-6,.8c-13.47,0-13.32-14.35-13.32-14.41V312h-2.82v-11h2.82V294.2H239m0-4.28h-11.1a4.27,4.27,0,0,0-4.28,4.28V297a4.27,4.27,0,0,0-2.82,4v11a4.26,4.26,0,0,0,2.82,4V321c0,.85.1,8.66,5.4,14a16.52,16.52,0,0,0,12.2,4.7,29.64,29.64,0,0,0,7-.92,4.29,4.29,0,0,0,3.14-5.18l-2.64-10.67a4.27,4.27,0,0,0-5.15-3.14l-.3.07v-3.52h2.21A4.28,4.28,0,0,0,249.8,312v-11a4.28,4.28,0,0,0-4.28-4.28h-2.21V294.2a4.28,4.28,0,0,0-4.28-4.28Z" transform="translate(-74.8 -151.53)"/><path class="cls-3" d="M256.39,326.89c-8,0-16.69-5.86-16.81-18.71a21.28,21.28,0,0,1,5.9-15.31,16.92,16.92,0,0,1,11.81-5.13c6.85,0,14.88,5,15,19.05a32.22,32.22,0,0,1-.4,5.53,2.22,2.22,0,0,0-.74,2.75c-1.39,7.07-7.33,11.82-14.78,11.82Zm.56-25.77a2.43,2.43,0,0,0-1.9.92l3.74-.08a.52.52,0,0,1-.1-.11A2.44,2.44,0,0,0,257,301.12Z" transform="translate(-74.8 -151.53)"/><path class="cls-3" d="M257.29,289.88c6.58,0,12.77,5.17,12.88,16.93a29.61,29.61,0,0,1-.37,5.15H252.14a3.79,3.79,0,0,0,4,2.75c1.7,0,3.34-.79,3.59-2.07l9.38,2c-1.3,6.59-6.89,10.09-12.68,10.09-7.13,0-14.57-5.29-14.67-16.59,0-11.47,8-18.28,15.57-18.28M252,304.23l9.57-.18A4.62,4.62,0,0,0,257,299c-2.21,0-4.49,1.61-5,5.25m5.34-18.63h0A19.09,19.09,0,0,0,244,291.36a23.43,23.43,0,0,0-6.52,16.81c.07,8.06,3.29,12.91,6,15.56a18.3,18.3,0,0,0,13,5.3c8.51,0,15.29-5.45,16.88-13.55a4.61,4.61,0,0,0,.07-1.11,4.23,4.23,0,0,0,.68-1.68,34.75,34.75,0,0,0,.43-5.88v0c-.14-14.62-8.72-21.17-17.15-21.17Z" transform="translate(-74.8 -151.53)"/><path class="cls-3" d="M290.22,335a2.12,2.12,0,0,1-1.55-.68l-6.29-6.75v1.92a2.14,2.14,0,0,1-2.14,2.14h-11a2.14,2.14,0,0,1-2.14-2.14v-47.7a2.14,2.14,0,0,1,2.14-2.14h11a2.14,2.14,0,0,1,2.14,2.14v15.36l7.11-6.29a2.15,2.15,0,0,1,1.42-.54h.21a2.11,2.11,0,0,1,1.49.83l7,9.13a2.13,2.13,0,0,1-.29,2.91L289.26,312l10.46,11.26a2.14,2.14,0,0,1,0,2.95l-7.9,8.15a2.14,2.14,0,0,1-1.54.65Z" transform="translate(-74.8 -151.53)"/><path class="cls-3" d="M280.24,281.78v20.11l10.67-9.44,7,9.13-11.71,10.24,12,12.88-7.91,8.15-10-10.73v7.36h-11v-47.7h11m0-4.28h-11a4.28,4.28,0,0,0-4.28,4.28v47.7a4.28,4.28,0,0,0,4.28,4.28h11a4.29,4.29,0,0,0,3.42-1.69l3.45,3.7a4.26,4.26,0,0,0,3.09,1.36h0a4.28,4.28,0,0,0,3.07-1.3l7.91-8.15a4.27,4.27,0,0,0,.06-5.89l-8.95-9.65,8.39-7.33a4.29,4.29,0,0,0,.58-5.83l-7-9.13a4.23,4.23,0,0,0-3-1.66,3,3,0,0,0-.42,0,4.28,4.28,0,0,0-2.83,1.07l-3.56,3.15V281.78a4.28,4.28,0,0,0-4.28-4.28Z" transform="translate(-74.8 -151.53)"/><path class="cls-3" d="M305.14,329.2a14.84,14.84,0,0,1-10.69-4.4c-2.29-2.31-5-6.61-4.89-13.93V294.28a2.14,2.14,0,0,1,2.14-2.14h11a2.14,2.14,0,0,1,2.14,2.14V310c.05,2,.58,2.92.84,3.19.31-.29.84-1.3.77-3.24V295a2.14,2.14,0,0,1,2.14-2.14h11.1a2.09,2.09,0,0,1,1.51.63,2.12,2.12,0,0,1,.63,1.52l-.06,15.57c.14,6.93-2.65,11.27-5,13.69a16.41,16.41,0,0,1-11.65,4.91Z" transform="translate(-74.8 -151.53)"/><path class="cls-3" d="M302.73,294.28V310c.09,3.68,1.53,5.39,3,5.39s3.05-1.94,2.92-5.51V295h11.1l-.06,15.57c.22,10.71-7.25,16.47-14.52,16.47-6.88,0-13.59-5.16-13.44-16.16V294.28h11m17,.74h0m-17-5h-11a4.28,4.28,0,0,0-4.28,4.28v16.59c-.1,8,2.94,12.83,5.5,15.44a17,17,0,0,0,12.22,5,18.52,18.52,0,0,0,13.17-5.55c2.65-2.7,5.77-7.54,5.63-15.23l.06-15.42V295a4.27,4.27,0,0,0-4.28-4.28h-11.1a4.21,4.21,0,0,0-2.56.85,4.26,4.26,0,0,0-3.33-1.59Z" transform="translate(-74.8 -151.53)"/><path class="cls-3" d="M111.08,318.08a7.11,7.11,0,0,1-5.21-2.15,7,7,0,0,1-1.92-4.8c0-3.58,2.77-7.2,9-7.2a2.14,2.14,0,1,1,0,4.28c-2.89,0-4.68,1.12-4.68,2.92A2.68,2.68,0,0,0,109,313a2.85,2.85,0,0,0,2.11.83,2.14,2.14,0,1,1,0,4.28Z" transform="translate(-74.8 -151.53)"/><path class="cls-3" d="M112.91,306.07c-4.8,0-6.82,2.55-6.82,5.06,0-2.51,2-5.06,6.82-5.06m-6.82,5.06a4.83,4.83,0,0,0,5,4.81,4.83,4.83,0,0,1-5-4.81m6.82-9.34c-7.63,0-11.1,4.84-11.1,9.34a9.1,9.1,0,0,0,9.27,9.09,4.28,4.28,0,0,0,0-8.56.72.72,0,0,1-.57-.17.57.57,0,0,1-.14-.36c0-.33.88-.78,2.54-.78a4.28,4.28,0,0,0,0-8.56Zm-6.82,13.62Zm0,0Z" transform="translate(-74.8 -151.53)"/><ellipse class="cls-3" cx="15.99" cy="131.91" rx="7.47" ry="7.41"/><path class="cls-3" d="M90.79,278.17a5.27,5.27,0,1,1-5.33,5.27,5.29,5.29,0,0,1,5.33-5.27m0-4.28a9.55,9.55,0,1,0,9.62,9.55,9.59,9.59,0,0,0-9.62-9.55Z" transform="translate(-74.8 -151.53)"/><path class="cls-3" d="M81.83,337.79a25.78,25.78,0,0,1-3-.17,2.13,2.13,0,0,1-1.9-2.34l1.11-10.91a2.07,2.07,0,0,1,.77-1.44,2.1,2.1,0,0,1,1.35-.49h.22a5,5,0,0,0,.65,0,2,2,0,0,0,1.46-.41,3.74,3.74,0,0,0,.56-2.49V291.84a2.14,2.14,0,0,1,2.14-2.14h11a2.14,2.14,0,0,1,2.14,2.14v8.91a2.19,2.19,0,0,1-.47,1.34c-4,5-4.08,13.77-.08,18.72a2.16,2.16,0,0,1,.46,1.55c-.43,4.64-2.91,15.43-16.47,15.43Z" transform="translate(-74.8 -151.53)"/><path class="cls-3" d="M96.25,291.84v8.91c-4.61,5.72-4.84,15.52-.08,21.41-.45,4.75-2.86,13.49-14.34,13.49a26.93,26.93,0,0,1-2.75-.15l1.1-10.92c.31,0,.6.05.87.05,3,0,4.22-1.82,4.16-5.07V291.84h11m0-4.28h-11a4.28,4.28,0,0,0-4.28,4.28v27.79a5.12,5.12,0,0,1,0,.72l-.29,0a3.25,3.25,0,0,0-.44,0,4.29,4.29,0,0,0-4.25,3.85l-1.11,10.92a4.28,4.28,0,0,0,3.8,4.68,29.74,29.74,0,0,0,3.21.18c10.63,0,17.58-6.49,18.6-17.37a4.27,4.27,0,0,0-.93-3.09c-3.42-4.24-3.38-11.73.08-16a4.3,4.3,0,0,0,1-2.68v-8.91a4.28,4.28,0,0,0-4.28-4.28Z" transform="translate(-74.8 -151.53)"/><path class="cls-3" d="M114,330a2.14,2.14,0,0,1-1.66-.79c-.68.06-1.34.09-2,.09a16.41,16.41,0,0,1-10.1-3.23,14.86,14.86,0,0,1-2.56-2.52,2.1,2.1,0,0,1-.47-1.54,17.28,17.28,0,0,0,.07-2.3V300.75a2.19,2.19,0,0,1,.47-1.35,14.81,14.81,0,0,1,2.71-2.61,25.31,25.31,0,0,1,12.64-4.4h.06c1.17-.09,2.38-.13,3.62-.13a52.2,52.2,0,0,1,8.76.71,2.14,2.14,0,0,1,1.75,2.11l-.12,32.74a2.14,2.14,0,0,1-2.14,2.13Z" transform="translate(-74.8 -151.53)"/><path class="cls-3" d="M116.82,294.4a51.44,51.44,0,0,1,8.37.67l-.12,32.74H114v-1a20.5,20.5,0,0,1-3.65.34,14.23,14.23,0,0,1-8.8-2.79,13.23,13.23,0,0,1-2.2-2.16,19.94,19.94,0,0,0,.08-2.6V300.75a12.25,12.25,0,0,1,2.31-2.24,23.36,23.36,0,0,1,11.59-4c1.19-.09,2.36-.12,3.46-.12m-10.73,16.73a4.83,4.83,0,0,0,5,4.81,4.83,4.83,0,0,1-5-4.81c0-2.51,2-5.06,6.82-5.06-4.8,0-6.82,2.55-6.82,5.06m10.73-21c-1.29,0-2.56,0-3.78.13h-.11a27.62,27.62,0,0,0-13.72,4.81,17.42,17.42,0,0,0-3.09,3,4.3,4.3,0,0,0-.94,2.69v19a14.18,14.18,0,0,1-.06,2,4.27,4.27,0,0,0,.93,3.09A17.64,17.64,0,0,0,99,327.72a18.6,18.6,0,0,0,11.4,3.67l1.25,0a4.28,4.28,0,0,0,2.4.73h11a4.28,4.28,0,0,0,4.28-4.26l.12-32.74a4.27,4.27,0,0,0-3.49-4.22,53.34,53.34,0,0,0-9.16-.75Z" transform="translate(-74.8 -151.53)"/><path class="cls-3" d="M99.38,324.3a2.13,2.13,0,0,1-1.66-.8c-5.34-6.61-5.3-17.42.07-24.1a2.14,2.14,0,0,1,3.81,1.35v18.76a22.6,22.6,0,0,1-.09,2.85,2.16,2.16,0,0,1-1.51,1.85A2.21,2.21,0,0,1,99.38,324.3Z" transform="translate(-74.8 -151.53)"/><path class="cls-3" d="M99.46,300.75v18.81a19.94,19.94,0,0,1-.08,2.6c-4.76-5.89-4.53-15.69.08-21.41m0-4.28a4.29,4.29,0,0,0-3.34,1.59c-6,7.42-6,19.44-.07,26.79a4.3,4.3,0,0,0,3.33,1.59,4.11,4.11,0,0,0,1.24-.19,4.27,4.27,0,0,0,3-3.69,24.92,24.92,0,0,0,.1-3.1V300.75a4.28,4.28,0,0,0-2.86-4,4.41,4.41,0,0,0-1.42-.24Z" transform="translate(-74.8 -151.53)"/><path class="cls-16" d="M139.71,286.86v31.27c.12.92-.24,4.72,3.68,3.93l.74,11.71c-15.33,1.1-15.58-12.63-15.39-15.64V286.86Z" transform="translate(-74.8 -151.53)"/><path class="cls-16" d="M171.49,323h-11v-1c-5.09.92-9.32-.06-12.45-2.45-7.85-6-7.36-20.24.18-25.82a23.42,23.42,0,0,1,11.59-4,50.74,50.74,0,0,1,11.83.55Zm-11-21.71c-12.14-.91-9,13.06.12,9.14Z" transform="translate(-74.8 -151.53)"/><path class="cls-16" d="M185.62,285V305.1l10.67-9.44,7,9.13L191.57,315l12,12.88-7.91,8.15-10-10.73v7.36h-11V285Z" transform="translate(-74.8 -151.53)"/><path class="cls-2" d="M229.68,305.4c0,9.63-8,17.6-17.17,17.6-9.87,0-17.1-8.83-17.1-17.6A17.5,17.5,0,0,1,212.51,288C222.38,288,229.68,296.57,229.68,305.4Zm-23.24,0a6.11,6.11,0,1,0,6.07-6.44C209,299,206.44,302.21,206.44,305.4Z" transform="translate(-74.8 -151.53)"/><path class="cls-2" d="M239.56,293.66v6.87h6.5v11h-6.5v9s-.06,4.29,5.58,2.94l2.64,10.67c-19.5,4.78-19.32-13.55-19.32-13.61v-9h-2.82v-11h2.82v-6.87Z" transform="translate(-74.8 -151.53)"/><path class="cls-2" d="M266.29,311.43H252.68c.92,3.86,7.05,3.25,7.54.67l9.38,2c-2.88,14.72-27.16,14-27.34-6.5-.07-21.46,28.2-26.61,28.45-1.34a30.69,30.69,0,0,1-.37,5.15Zm-4.23-7.91c.25-6.14-8.52-7.42-9.56.18Z" transform="translate(-74.8 -151.53)"/><path class="cls-2" d="M280.78,281.24v20.11l10.67-9.44,7,9.14-11.71,10.24,11.95,12.87-7.91,8.16-10-10.73V329h-11V281.24Z" transform="translate(-74.8 -151.53)"/><path class="cls-2" d="M303.27,293.75v15.69c.18,7.61,6.13,6.81,5.89-.12V294.48h11.09l-.06,15.58c.43,20.84-28.26,22.93-28,.3V293.75Z" transform="translate(-74.8 -151.53)"/><path class="cls-1" d="M114.69,314.71l-.12-9.14C102.43,304.65,105.61,318.63,114.69,314.71Z" transform="translate(-74.8 -151.53)"/><ellipse class="cls-16" cx="16.53" cy="131.38" rx="5.33" ry="5.27"/><path class="cls-16" d="M96.78,300.21v-8.9h-11V319c.06,3.56-1.41,5.4-5,5L79.62,335c13.85,1.5,16.61-8.23,17.09-13.34C92,315.73,92.18,305.93,96.78,300.21Z" transform="translate(-74.8 -151.53)"/><path class="cls-16" d="M113.89,294a23.42,23.42,0,0,0-11.59,4,12.89,12.89,0,0,0-2.31,2.24V319a17.84,17.84,0,0,1-.07,2.6,12.91,12.91,0,0,0,2.2,2.17c3.13,2.39,7.36,3.37,12.45,2.45v1h11l.12-32.74A50.74,50.74,0,0,0,113.89,294Zm.68,11.58.12,9.14C105.61,318.63,102.43,304.65,114.57,305.57Z" transform="translate(-74.8 -151.53)"/><path class="cls-16" d="M100,319V300.21c-4.6,5.72-4.83,15.52-.07,21.41A17.84,17.84,0,0,0,100,319Z" transform="translate(-74.8 -151.53)"/><path d="M103.37,350.63v8.83c0,7.4-9.37,7.19-9.1.65l3.41.14c-.07,2,2.33,2.21,2.22-.79v-8.83Z" transform="translate(-74.8 -151.53)"/><path d="M113.88,364.5h-3.44v-.33a4.75,4.75,0,0,1-3.87-.76c-2.44-1.87-2.29-6.29.06-8a7.38,7.38,0,0,1,3.61-1.24,16.66,16.66,0,0,1,3.68.17Zm-3.44-6.75c-3.77-.29-2.78,4.06,0,2.84Z" transform="translate(-74.8 -151.53)"/><path d="M118.57,353.28l1.6,5.63,1.36-3.45,1.77,0,1,2.93,1.3-4.46,3.28.88-2.56,9.63-2.73.25-1.41-3.87-1.43,3.54h-2.94l-2.65-10.28Z" transform="translate(-74.8 -151.53)"/><path d="M139.36,364.5h-3.43v-.33a4.77,4.77,0,0,1-3.88-.76c-2.44-1.87-2.28-6.29.06-8a7.38,7.38,0,0,1,3.61-1.24,16.66,16.66,0,0,1,3.68.17Zm-3.43-6.75c-3.78-.29-2.79,4.06,0,2.84Z" transform="translate(-74.8 -151.53)"/><path d="M144.51,354v.17a4.25,4.25,0,0,1,4.84,1.17l-2,2.78c-1.35-1.34-2.84-.55-2.86,1v5.4h-3.45V354Z" transform="translate(-74.8 -151.53)"/><path d="M158.58,364.5h-3.43v-.33a4.75,4.75,0,0,1-3.87-.76c-2.44-1.87-2.29-6.29.06-8a7.38,7.38,0,0,1,3.6-1.24,16.55,16.55,0,0,1,3.68.17Zm-3.43-6.75c-3.77-.29-2.78,4.06,0,2.84Z" transform="translate(-74.8 -151.53)"/><path d="M163.75,364.31h-3.43V354.14H163a2.2,2.2,0,0,1,.31-.15c2.84-1.13,5.95-.19,6.35,3.34v6.75h-3.42v-6.22c0-2.4-2.59-2-2.46.08Z" transform="translate(-74.8 -151.53)"/><path d="M181.09,354.08l-2.44,9.35h0c-.09.38-1.77,6.41-7.91,3l1.66-3c2.4,1.32,2.93-.92,2.93-.94h0l0-.1c-4-.34-4.14-3.59-4.1-4.37h0v-4h3.41v4c0,1.34,1.4,1.81,1.89,0l1.09-4.14Z" transform="translate(-74.8 -151.53)"/><path d="M191.26,364.5h-3.44v-.33a4.75,4.75,0,0,1-3.87-.76c-2.44-1.87-2.29-6.29.06-8a7.38,7.38,0,0,1,3.6-1.24,16.55,16.55,0,0,1,3.68.17Zm-3.44-6.75c-3.77-.29-2.78,4.06,0,2.84Z" transform="translate(-74.8 -151.53)"/><path d="M207.6,350.63v8.83c0,7.4-9.36,7.19-9.1.65l3.42.14c-.08,2,2.33,2.21,2.21-.79v-8.83Z" transform="translate(-74.8 -151.53)"/><path d="M218.11,364.5h-3.43v-.33a4.74,4.74,0,0,1-3.87-.76c-2.44-1.87-2.29-6.29.05-8a7.42,7.42,0,0,1,3.61-1.24,16.66,16.66,0,0,1,3.68.17Zm-3.43-6.75c-3.78-.29-2.79,4.06,0,2.84Z" transform="translate(-74.8 -151.53)"/><path d="M223.17,350.59v9.73c0,.29-.08,1.47,1.14,1.22l.23,3.65c-4.77.34-4.84-3.93-4.79-4.87v-9.73Z" transform="translate(-74.8 -151.53)"/><path d="M235.05,364.5h-3.43v-.33a4.77,4.77,0,0,1-3.88-.76c-2.44-1.87-2.28-6.29.06-8a7.38,7.38,0,0,1,3.61-1.24,16.66,16.66,0,0,1,3.68.17Zm-3.43-6.75c-3.78-.29-2.79,4.06,0,2.84Z" transform="translate(-74.8 -151.53)"/><path d="M240.27,349.68v6.25l3.32-2.93,2.18,2.84L242.13,359l3.71,4-2.46,2.54-3.11-3.34v2.29h-3.41V349.68Z" transform="translate(-74.8 -151.53)"/><path d="M258,359a5.33,5.33,0,1,1-5.34-5.41A5.48,5.48,0,0,1,258,359Zm-7.22,0a1.9,1.9,0,1,0,1.88-2A2,2,0,0,0,250.75,359Z" transform="translate(-74.8 -151.53)"/><path d="M263.54,352v2.14h2v3.41h-2v2.79s0,1.33,1.74.91l.82,3.32c-6.07,1.49-6-4.21-6-4.23v-2.79h-.88v-3.41h.88V352Z" transform="translate(-74.8 -151.53)"/><path d="M274.85,361.18h-4.23c.29,1.2,2.19,1,2.35.21l2.91.63c-.89,4.58-8.45,4.35-8.5-2,0-6.68,8.77-8.28,8.85-.42a8.89,8.89,0,0,1-.12,1.6Zm-1.31-2.46c.07-1.91-2.65-2.31-3,.06Z" transform="translate(-74.8 -151.53)"/><path d="M281.36,349.68v6.25l3.32-2.93,2.17,2.84L283.21,359l3.72,4-2.46,2.54-3.11-3.34v2.29h-3.42V349.68Z" transform="translate(-74.8 -151.53)"/><path d="M297.82,350.46v10.11h-3.45V350.46Zm-3.44,12.68a1.74,1.74,0,0,1,1.78-1.67,1.67,1.67,0,1,1-1.78,1.67Z" transform="translate(-74.8 -151.53)"/></svg>