<svg id="Layer_1" data-name="Layer 1" xmlns="http://www.w3.org/2000/svg" xmlns:xlink="http://www.w3.org/1999/xlink" viewBox="0 0 137.58 162.21"><defs><style>.cls-1{fill:none;}.cls-2{fill:#f7931e;}.cls-3{clip-path:url(#clip-path);}.cls-4{fill:#1a1a1a;}.cls-5{fill:#d98f44;}.cls-6{fill:#edab60;}.cls-7{fill:#f3d7b9;}.cls-8{fill:#333;}.cls-9{fill:#c1262f;}.cls-10{fill:#080505;}.cls-11{fill:#f9ae3b;}.cls-12{opacity:0.18;}.cls-13{fill:#d69238;}.cls-14{opacity:0.27;}.cls-15{fill:#f2f2f2;}</style><clipPath id="clip-path" transform="translate(-93.71 -179.53)"><circle class="cls-1" cx="162.54" cy="244.67" r="84.25"/></clipPath></defs><title>logodoang</title><circle class="cls-2" cx="68.79" cy="79.8" r="68.79"/><g class="cls-3"><path class="cls-4" d="M108,225.44c-.36,3.89-1.43,6.08,1.5,10.13s3.51,4.55,7.77,4.53,10.54-.13,10.54-.13-2.92,7.73-3.45,10.35c-.56,2.82-1.29,7.7-1.29,7.7s-.18-1.19-1.77-1-1.49,2.64-2,4.16c-.65,1.82-1.21,2.81,2.07,5.78a30.81,30.81,0,0,1,5.29,6.93c.22.17,4.3,9.21,11.21,12s14.11,6,18,7.23,5.53,4.21,11.53.89,10.34-5.58,11.27-6.13,3.8-3,7-4.29a58.09,58.09,0,0,1,7.79-2.25c.4-.06,2.58-.38,4.67-4.14s7.4-2.11,10.11-5.76,7.44-16.93,7.72-23.26c.22-5,.06-7.25.22-8.15a5.08,5.08,0,0,0,0-1.62c0-.07,0-.15-.05-.24a10.45,10.45,0,0,0-1.46-20.54,10.49,10.49,0,0,0,1.29-6.79,10.38,10.38,0,0,0-11.75-8.81l-.33.06a11.16,11.16,0,0,0-.09-2.23,10.41,10.41,0,0,0-11.76-8.82,10,10,0,0,0-3.57,1.24,10.4,10.4,0,0,0-11.74-8.72,10.27,10.27,0,0,0-4.17,1.61,10.34,10.34,0,0,0-10.58-5.31,10.13,10.13,0,0,0-5.57,2.72,10.29,10.29,0,0,0-17.49,5.19,10.2,10.2,0,0,0-6.38-1.12,10.32,10.32,0,0,0-8.1,6.48,10.51,10.51,0,0,0-2.91,0,10.4,10.4,0,0,0-8.71,11.84h0a10.46,10.46,0,0,0-4.1,18.64A3.6,3.6,0,0,0,108,225.44ZM123.43,221a10.45,10.45,0,0,0,1.5-7.15h0a10.33,10.33,0,0,0,7.61-6.4,10.14,10.14,0,0,0,2.91,0,10.35,10.35,0,0,0,8.61-8.21A10.28,10.28,0,0,0,156,197.58a10.26,10.26,0,0,0,8.88,3,10.11,10.11,0,0,0,4.17-1.6,10.31,10.31,0,0,0,14.16,4.08A10.39,10.39,0,0,0,195,211.78l.33-.06a10.52,10.52,0,0,0,9.38,11.11c-.12.2-.23.42-.34.63a37.79,37.79,0,0,0-14.82-4C171.8,218.05,140.18,219.81,123.43,221Z" transform="translate(-93.71 -179.53)"/><path class="cls-5" d="M152.75,292.2a23.82,23.82,0,0,0,7.32,4.64c1.55,1.13,3.25,0,4.87.29,1,.17,1.58.3,1.1,1.33-1.1,2.34-1.69,4.92-3.29,7-.23.94.37,1.67.87,2.6a51.9,51.9,0,0,0,2.43-5.59,15,15,0,0,1,10.51-10.57c3-.93,5.39-2.87,5.64-6.69-4.21,1.54-8.4,2.9-12.26,5.08a26.21,26.21,0,0,1-6.69,3,14.7,14.7,0,0,1-10.31-1.41C152.88,292,152.81,292.11,152.75,292.2Z" transform="translate(-93.71 -179.53)"/><path class="cls-6" d="M162.75,305.48c1.6-2.1,2.19-4.68,3.29-7,.48-1-.14-1.16-1.1-1.33-1.62-.27-3.32.84-4.87-.29C161.1,299.68,161.33,302.76,162.75,305.48Z" transform="translate(-93.71 -179.53)"/><path class="cls-7" d="M165.19,340.09c7.81-1.16,16.14-3.89,19.36-6.36a34.89,34.89,0,0,0,10-13.11,1,1,0,0,0,.07-.47c0-.08-.74-8.14-1.62-16.31-1.81-16.79-2.46-17.71-2.77-18.15-1.56-2.24-7.11-1.54-8.21-1.38a1,1,0,0,0-.67.4,1,1,0,0,0-.17.76,4.24,4.24,0,0,1-1.06,2.93c-1,1.22-3.32,2.21-5,2.94-.75.31-1.39.59-1.85.84l-.47.26c-1.65.91-4.15,2.29-5,3.94s-3.82,8.61-4,9.06a2.13,2.13,0,0,0-.13-.43s0,0,0-.05c-.15-.45-1.92-6-2-6.64a12,12,0,0,0-.49-1.78,1,1,0,0,0-.45-.53l-5.95-3.4-3.35-2.46a1.19,1.19,0,0,0-.25-.13l-7-2.5a.87.87,0,0,0-.48,0,.91.91,0,0,0-.33.1,1,1,0,0,0-.5.64c-.27,1.07-6.65,26.43-3.47,42.44C141,338.83,150.4,342.27,165.19,340.09Z" transform="translate(-93.71 -179.53)"/><path class="cls-4" d="M143.8,288.46l6.95,2.5,3.39,2.49,6,3.43a11,11,0,0,1,.45,1.6c.09.63,2,6.57,2.06,6.8a1.63,1.63,0,0,1,.11,1.08c-.09.75.87,1.78.87,1.78l1-2.3s3.2-7.46,4-9,3.62-3,5.07-3.78,5.63-2.06,7.19-4a5.15,5.15,0,0,0,1.26-3.73s5.95-.88,7.24,1,4.21,34,4.21,34a34.33,34.33,0,0,1-9.69,12.7c-2.81,2.15-10.63,4.93-18.9,6.16-11,1.63-22.88.48-24.69-8.65-3.18-16,3.45-42,3.45-42m-.29-2a2.27,2.27,0,0,0-.65.22,2,2,0,0,0-1,1.27c-.07.27-1.7,6.71-3,15.21-1.71,11.51-1.88,20.82-.52,27.67,1.74,8.78,11.57,12.52,27,10.24,8.1-1.19,16.44-3.95,19.83-6.55A36.06,36.06,0,0,0,195.49,321a2,2,0,0,0,.14-.94c0-.08-.74-8.15-1.63-16.33-1.83-17.05-2.47-18-2.93-18.62-.95-1.34-2.82-2-5.74-2a25.59,25.59,0,0,0-3.45.23,2,2,0,0,0-1.38.79,1.88,1.88,0,0,0-.31,1.5,3.36,3.36,0,0,1-.85,2.17c-.8,1-3.11,2-4.64,2.64a18.86,18.86,0,0,0-1.95.89l-.46.25c-2.33,1.28-4.5,2.58-5.42,4.36-.51,1-2,4.31-3,6.65-.55-1.73-1.23-4-1.33-4.43a12.84,12.84,0,0,0-.54-1.94,1.94,1.94,0,0,0-.89-1.06l-5.9-3.38-3.31-2.42a2.19,2.19,0,0,0-.5-.27l-7-2.5a2.14,2.14,0,0,0-1-.1Z" transform="translate(-93.71 -179.53)"/><path class="cls-4" d="M205.52,299.1c-1.3-.62-5.33-4.49-7-4.85S188.26,299,187.4,302.8s.23,12.54,1,13.65a12.49,12.49,0,0,0,3.81,3.1c1.21.62,5.36,2.66,7,2.2s8.92-9,8.79-11.25S205.52,299.1,205.52,299.1Z" transform="translate(-93.71 -179.53)"/><path class="cls-4" d="M122.07,306.92c.79-.72,2.82-4.33,3.93-4.95s8.29,1.18,9.72,3.68,2.52,9,2.21,9.9a9.29,9.29,0,0,1-2,3c-.73.7-3.24,3-4.52,3.07s-8.26-4.5-8.64-6.1S122.07,306.92,122.07,306.92Z" transform="translate(-93.71 -179.53)"/><path class="cls-8" d="M121.65,260.58c-.49,3,2.1,6.66,5.4,7.94,7.23,2.8,13.55.75,19.35-3.71,1.12-.87,2.76-1.48,2.48-3.58-.1-.78.8-.21,1.11.07a30.48,30.48,0,0,0,12.14,6.6A27.42,27.42,0,0,0,181.2,267c2.87-1.23,5.44-5,4.48-7.51-.94.49-1.25,1.57-2.19,2.11-3.25,1.88-6.07,1-8.51-1.54a67.37,67.37,0,0,0-8.79-8.17c-4.17-3-11.47-3.34-15.15.26a3,3,0,0,1-3.63.44c-5.11-2.69-8.06-2.09-11.53,2.52-1.2,1.61-2.4,3.22-3.57,4.85-1.69,2.35-4.16,3-6.83,3A4.5,4.5,0,0,1,121.65,260.58Z" transform="translate(-93.71 -179.53)"/><path class="cls-6" d="M163.23,273.49a20.65,20.65,0,0,1,0,6.18c-1,4.85-5.17,6.72-9.37,4.08-2.73-1.72-4.34-4.38-5.63-7.23-.93-2.06-1.71-4.18-2.56-6.28-1.79,2.37-4.36,3.44-7.11,4.18-3.45.92-6.67-.07-9.85-1.28,4.2,7.41,10.63,11.71,18.85,13.54l.24-.35c0-.58-.83-.87-.49-1.68,1.05,0,1.61.84,2.29,1.47,3.1,2.87,6.51,5.08,11,4.93,3.18-.1,5.81-1.57,8.27-3.38,1.87-1.36,3.67-2.83,5.5-4.26.17-.17.32-.42.53-.51a23.26,23.26,0,0,0,9.9-8.35c1.1-1.64,2.4-3.31,2.31-5.85a30.92,30.92,0,0,1-2.58,2.39c-5.06,3.67-10.77,4.18-16.75,3.36C166.24,274.23,164.87,273.24,163.23,273.49Z" transform="translate(-93.71 -179.53)"/><path class="cls-6" d="M158.37,246.63c7,.22,11.9,4.22,16.34,9,.66.71,1.25,1.49,1.95,2.17,1.37,1.33,2.83,2.55,5,1.65a5,5,0,0,0,3-5.16c-.11-1.13.06-1.45,1.13-1a72.59,72.59,0,0,0-3.5-10.33,2.68,2.68,0,0,0-3-2.07,57.79,57.79,0,0,1-24.79-4.34,8.78,8.78,0,0,0-6.79,0c-4.08,1.61-5,4.65-2.79,8.54a7.78,7.78,0,0,0,8.11-1.92c.84-.82,1.81-1.73,3-.94s.87,2.13.84,3.32a2.24,2.24,0,0,1-.23.64C157.24,246.69,157.89,246.17,158.37,246.63Z" transform="translate(-93.71 -179.53)"/><path class="cls-5" d="M179.25,241a2.68,2.68,0,0,1,3,2.07,72.59,72.59,0,0,1,3.5,10.33c.54,1.39,1.66,2.45,2.12,3.89a9.14,9.14,0,0,1-4,11.1c-5.8,3.57-12.19,3.92-18.73,3.07-2.43-.32-2.42-.39-1.87,2.07,1.64-.26,3,.73,4.56.95,6,.82,11.69.31,16.75-3.36a30.92,30.92,0,0,0,2.58-2.39c.09,2.54-1.21,4.21-2.31,5.85a23.26,23.26,0,0,1-9.9,8.35c-.21.09-.36.34-.53.51.32.69-.57,1.15-.29,2,8.15-2.9,16-6.24,22.47-12.25.69-.64.8-1.06.22-1.9-.39-.55-1.73-1.47-.09-2.25.06-1.25-2-2-.79-3.52-2.32-1.2-2.89-3.61-3.62-5.73A65,65,0,0,1,189,243.81a2.4,2.4,0,0,0-2.26-2.52C184.22,240.76,181.77,240.27,179.25,241Z" transform="translate(-93.71 -179.53)"/><path class="cls-6" d="M142.65,248.18c-1.93-4.78-2-5-1.35-9.55-3.14.5-6.25,1.27-9.43.54-.75-.18-.85.42-1,.87a70.67,70.67,0,0,0-5.12,19.06c-.12,1,.24,1.24,1.17,1a6.11,6.11,0,0,0,3.42-2.09c1-1.19,1.93-2.44,2.8-3.72C135.42,250.92,138.24,248.33,142.65,248.18Z" transform="translate(-93.71 -179.53)"/><path class="cls-8" d="M195,260c.67-2.17,1.2-4.36,2.56-6.22q4.16-5.72,10.24-2.1c.48.29.91,1,1.48.69s.4-1.15.44-1.77c.12-2-.7-2.93-2.73-3.44-4.62-1.18-9.16-2.69-13.74-4.06-.72-.22-1.56-.47-1.38.76C192.64,249.27,193.13,254.73,195,260Z" transform="translate(-93.71 -179.53)"/><path class="cls-6" d="M197.07,263.62c.8-2.52,1.2-5.17,2.37-7.56s3-3.13,5.61-2c2.22,1,3.18,2.94,3.9,5.05,1.37,4,.33,8.18-2.47,10.25-2.64,1.94-6.87,1.78-9.79-.38.06-1.25-2-2-.79-3.52C196.88,265.22,196.85,264.33,197.07,263.62Zm10.31-2.45c.3-1.77,0-3.39-1.65-4.4-1.15-.73-2.21-.32-3.13.59-1.83,1.81-2.34,3.26-1.31,4.89s-.12,2.64-.74,3.83c3.48,1.12,5.82-.19,6.26-3.5A7.06,7.06,0,0,0,207.38,261.17Z" transform="translate(-93.71 -179.53)"/><path class="cls-9" d="M157.91,282.57c1.25-.4,2.4-.8,2.84-2.3a16.62,16.62,0,0,0,.53-6.5c-.1-.95-.49-1.28-1.39-.84-3.15,1.5-4.68,4.3-5.87,7.35-.3.79.48,1.1.95,1.5A5,5,0,0,0,157.91,282.57Z" transform="translate(-93.71 -179.53)"/><path class="cls-5" d="M158.37,246.63c-.48-.46-1.13.06-1.74-.32a2.24,2.24,0,0,0,.23-.64c0-1.19.34-2.56-.84-3.32s-2.19.12-3,.94a7.78,7.78,0,0,1-8.11,1.92c.68,2.16,2.51,3.32,4.11,4.69.37.33.65.36,1,0C152.28,247.59,155.26,246.94,158.37,246.63Z" transform="translate(-93.71 -179.53)"/><path class="cls-5" d="M128.75,273.14c3.18,1.21,6.4,2.2,9.85,1.28,2.75-.74,5.32-1.81,7.11-4.18-.21-1.51-1.14-.91-1.85-.55a22.23,22.23,0,0,1-6.77,2.3,20.55,20.55,0,0,1-9-.35A1.78,1.78,0,0,0,128.75,273.14Z" transform="translate(-93.71 -179.53)"/><path class="cls-7" d="M149,266.48l3.58.11C151.3,265.41,150.35,264.26,149,266.48Z" transform="translate(-93.71 -179.53)"/><path class="cls-5" d="M152.94,291.92l-.72-.49c-.17.49.26.57.53.77C152.81,292.11,152.88,292,152.94,291.92Z" transform="translate(-93.71 -179.53)"/><path class="cls-7" d="M179.14,293.65a3.06,3.06,0,0,0,.19-.27c-.17-.2-.32-.07-.45.07Z" transform="translate(-93.71 -179.53)"/><path class="cls-6" d="M147.6,286.68l.46,0-.22-.38Z" transform="translate(-93.71 -179.53)"/><path class="cls-9" d="M189.12,236.27l.1.15-.11-.14Z" transform="translate(-93.71 -179.53)"/><path class="cls-5" d="M186.68,223.79c.45,1.31,1.23,2,2.5,1.74a1.85,1.85,0,0,0,1.52-2.26,1.88,1.88,0,0,0-2.4-1.63A2.09,2.09,0,0,0,186.68,223.79Z" transform="translate(-93.71 -179.53)"/><path class="cls-5" d="M177.06,222.6c.92-.47,1.49-1,1.25-2s-.86-1.16-1.72-1-1.07.77-.94,1.57A1.58,1.58,0,0,0,177.06,222.6Z" transform="translate(-93.71 -179.53)"/><path class="cls-6" d="M191.47,316a12.56,12.56,0,0,0,3.86-1.26,4.47,4.47,0,0,0,2.68-4.36,116.38,116.38,0,0,1,.42-15.82,4.16,4.16,0,0,0-3.18-4.32,20.72,20.72,0,0,0-9.34-.89,18.13,18.13,0,0,0-6.61,2.37,4.79,4.79,0,0,0-2.37,3.25,4.61,4.61,0,0,0,1,3.75,1,1,0,0,0,.76.37h.17a1,1,0,0,0,.6-.32,6.83,6.83,0,0,1,4.19-2.24,9.25,9.25,0,0,1,1.3-.09,11.14,11.14,0,0,0,1.17-.07,4.27,4.27,0,0,1,1.94.09c-.4.12-.81.22-1.22.32l-1.13.27c-.95.22-1.94.44-2.9.75-2.67.85-3.36,2-3,4.73,0,.3.1.6.14.89l.07.42a1,1,0,0,0,.58.75,1,1,0,0,0,.56.08,1,1,0,0,0,.4-.15,15,15,0,0,1,6.08-2l.66-.09.39-.06a9,9,0,0,1,1.68-.14h0a3.28,3.28,0,0,0-.31.2,13.59,13.59,0,0,1-4.5,1.85,9.17,9.17,0,0,0-2.74,1,3.15,3.15,0,0,0-1.6,2A3.26,3.26,0,0,0,182,310a1,1,0,0,0,.74.42.89.89,0,0,0,.23,0,1,1,0,0,0,.57-.29.28.28,0,0,1,.18-.1,2.6,2.6,0,0,1,.71.1l.25.05a9.26,9.26,0,0,0,3.22.12,8.52,8.52,0,0,0,3.43-1.33.38.38,0,0,1,0,.13c0,.12-.39.4-.57.53l-.19.15a6.39,6.39,0,0,1-3.08,1.24,12.62,12.62,0,0,1-1.84.12,2,2,0,0,1-.34,0,4.25,4.25,0,0,0-.94,0,2.3,2.3,0,0,0-.78.25,1,1,0,0,0-.52,1.13,4.4,4.4,0,0,0,3.34,3.2A11.46,11.46,0,0,0,191.47,316Z" transform="translate(-93.71 -179.53)"/><path class="cls-4" d="M186.05,290.37a19.79,19.79,0,0,1,8.9.86,3.2,3.2,0,0,1,2.48,3.28,118.14,118.14,0,0,0-.42,16,3.47,3.47,0,0,1-2.14,3.4,11.31,11.31,0,0,1-3.55,1.17,10.62,10.62,0,0,1-4.56-.34,3.44,3.44,0,0,1-2.65-2.48,1.83,1.83,0,0,1,.47-.15,8.62,8.62,0,0,1,1.14,0,14.45,14.45,0,0,0,2-.14,7.35,7.35,0,0,0,3.55-1.44c.64-.5,1.59-1.06.91-2.2.08-.37.79-.63.22-1.09a.35.35,0,0,0-.26-.08,1.1,1.1,0,0,0-.49.31,7.69,7.69,0,0,1-3.85,1.79,8.27,8.27,0,0,1-2.88-.1,3.93,3.93,0,0,0-1.31-.16,1.31,1.31,0,0,0-.75.39c-.95-1.33-.78-2.32.56-3.14a8.66,8.66,0,0,1,2.46-.9,14.14,14.14,0,0,0,4.83-2c.51-.35,1.26-.62,1.11-1.5.32-.13.16-.21,0-.29a7,7,0,0,0-3.52,0l-.67.1a15.86,15.86,0,0,0-6.48,2.1c-.07-.43-.14-.87-.2-1.3-.33-2.26,0-2.91,2.26-3.62,1.3-.41,2.64-.68,4-1a8.35,8.35,0,0,0,4.19-1.91c-.16-.42-.35-.53-.54-.5s-.51.28-.75.41l-.87.15c-1.28-1-2.78-.47-4.14-.47a8.81,8.81,0,0,0-1.46.1,7.79,7.79,0,0,0-4.79,2.56,3.54,3.54,0,0,1,1.05-5.5,16.81,16.81,0,0,1,6.24-2.25m5.76,11.44v0h0v0m-6.05-13.43a19.06,19.06,0,0,0-7,2.51,5.73,5.73,0,0,0-2.84,3.93,5.59,5.59,0,0,0,1.25,4.56,2,2,0,0,0,1.51.75h.18a7.4,7.4,0,0,0,0,2.57c.05.31.1.62.14.92,0,.13,0,.27.07.4a2,2,0,0,0,1.16,1.52,2,2,0,0,0,.72.17,3.53,3.53,0,0,0-.69,1.48,4.26,4.26,0,0,0,.91,3.36,2,2,0,0,0,1.11.77,2,2,0,0,0-.16,1.39,5.34,5.34,0,0,0,4,3.92,12.3,12.3,0,0,0,5.41.4,13.21,13.21,0,0,0,4.18-1.36,5.48,5.48,0,0,0,3.22-5.3,116.35,116.35,0,0,1,.42-15.7,5.18,5.18,0,0,0-3.88-5.35,22,22,0,0,0-9.79-.93Z" transform="translate(-93.71 -179.53)"/><path class="cls-7" d="M198.6,322.86l.23-.06a35,35,0,0,0,11-6.69,13.13,13.13,0,0,0,2.15-2.74c2.22-3.61,1.78-7-1.29-9.82A49.1,49.1,0,0,0,202.9,298l-.85-.52a1,1,0,0,0-.67-.14,1,1,0,0,0-.41.16,1,1,0,0,0-.44,1c.06.4.11.76.16,1.11.11.7.2,1.32.3,1.95a50.65,50.65,0,0,1,.86,9.15c-.13,4.65-1.43,8-4.08,10.41a1,1,0,0,0,.83,1.73Z" transform="translate(-93.71 -179.53)"/><path class="cls-4" d="M201.53,298.37a54.76,54.76,0,0,1,8.53,5.92c2.76,2.53,3.08,5.36,1.12,8.56a12.47,12.47,0,0,1-2,2.53,34,34,0,0,1-10.74,6.49c3.27-3,4.28-6.91,4.4-11.12a51.45,51.45,0,0,0-.87-9.34c-.15-.93-.28-1.86-.45-3m-.3-2a1.92,1.92,0,0,0-.81.31,2,2,0,0,0-.88,2c.06.39.11.75.16,1.09.1.72.19,1.34.29,2a49.11,49.11,0,0,1,.86,9c-.13,4.42-1.29,7.41-3.76,9.7a2,2,0,0,0-.33,2.56,2,2,0,0,0,2,.9,1.91,1.91,0,0,0,.47-.12,35.69,35.69,0,0,0,11.36-6.89,14.22,14.22,0,0,0,2.32-2.94,8.91,8.91,0,0,0,1.49-5.84,8.62,8.62,0,0,0-3-5.25,51,51,0,0,0-8-5.64l-.84-.51a2,2,0,0,0-1.35-.28Z" transform="translate(-93.71 -179.53)"/><path class="cls-6" d="M191.17,289a1.26,1.26,0,0,0,1.07-1.49,13.73,13.73,0,0,1,.12-3.2,13.74,13.74,0,0,0,.14-2.76v-.05a4,4,0,0,0-1.37-2.75,2.49,2.49,0,0,0-1.9-.47,4,4,0,0,0-1.6.66c-2.24,1.5-4,5.78-3.42,8.48a1.67,1.67,0,0,0,2,1.4,18.69,18.69,0,0,1,4.15.12l.1,0A1.86,1.86,0,0,0,191.17,289Z" transform="translate(-93.71 -179.53)"/><path class="cls-4" d="M189.38,279.27c1.06-.16,1.88.62,2.12,2.36s-.52,3.84-.26,6c0,.26-.07.36-.22.38a1.89,1.89,0,0,1-.52-.06,19.47,19.47,0,0,0-4.38-.13c-.5,0-.8,0-.92-.61-.47-2.29,1-6.13,3-7.43a2.9,2.9,0,0,1,1.19-.5m-.3-2a4.86,4.86,0,0,0-2,.82c-2.63,1.74-4.49,6.37-3.85,9.51a2.63,2.63,0,0,0,3,2.2,16.76,16.76,0,0,1,3.93.12h.06a3.39,3.39,0,0,0,1.07.05,2.28,2.28,0,0,0,1.91-2.61,12.9,12.9,0,0,1,.13-3,14.72,14.72,0,0,0,.14-3s0-.07,0-.1a4.92,4.92,0,0,0-1.76-3.42,3.54,3.54,0,0,0-2.65-.65Z" transform="translate(-93.71 -179.53)"/><path class="cls-5" d="M198.08,318l1-.16a1.86,1.86,0,0,0,1.47-1.68c0-.07,0-.13,0-.2a18.08,18.08,0,0,0,.33-6.61c-.12-1.27-.32-2.54-.52-3.76-.09-.54-.17-1.08-.25-1.62a1,1,0,0,0-.42-.68,1.08,1.08,0,0,0-.72-.17H199l-.31.07a1,1,0,0,0-.8,1c0,.42,0,.84,0,1.26,0,.92.08,1.87.13,2.81.22,3.84-.38,5.78-4.49,7.09a2,2,0,0,0-.54.3l-.13.09a1,1,0,0,0-.45.92,1,1,0,0,0,.59.83A8.77,8.77,0,0,0,198.08,318Z" transform="translate(-93.71 -179.53)"/><path class="cls-4" d="M199.15,304.08c.27,1.77.61,3.54.77,5.32a17.08,17.08,0,0,1-.29,6.25c-.13.44-.09,1.05-.72,1.16l-1,.16a7.76,7.76,0,0,1-4.52-.4,2.36,2.36,0,0,1,.43-.27c4.77-1.52,5.41-4.06,5.18-8.1-.07-1.36-.12-2.71-.18-4.06l.31-.06m-.29-2-.11,0-.16,0-.15,0a2,2,0,0,0-1.6,2.06c0,.42,0,.84,0,1.26,0,.92.08,1.87.13,2.82.2,3.64-.29,5-3.79,6.07a3,3,0,0,0-.84.45l-.08.06a2,2,0,0,0-.9,1.83,2,2,0,0,0,1.17,1.68,9.7,9.7,0,0,0,5.65.55l1-.16a2.68,2.68,0,0,0,1.89-1.31,3.67,3.67,0,0,0,.4-1.17.74.74,0,0,0,0-.12,18.81,18.81,0,0,0,.36-7c-.12-1.31-.33-2.59-.53-3.83-.08-.53-.17-1.08-.25-1.61a2,2,0,0,0-.84-1.35,2,2,0,0,0-1.44-.34Z" transform="translate(-93.71 -179.53)"/><path class="cls-5" d="M191.77,301.54a7,7,0,0,0-3.52,0,17,17,0,0,0-7.15,2.2c.19,1.18.64,1.43,1.88.95,2-.77,4.19-1.19,6.28-1.82.88-.26,1.7-.68,2.55-1v0Z" transform="translate(-93.71 -179.53)"/><path class="cls-5" d="M189.15,295.93c-1.28-1-2.78-.47-4.14-.47a8,8,0,0,0-6.25,2.66c.46.76.94,1,1.73.32,1.1-1,2.59-1.1,3.94-1.46C186,296.57,187.57,296.28,189.15,295.93Z" transform="translate(-93.71 -179.53)"/><path class="cls-5" d="M192.17,308.31c.08-.37.79-.63.22-1.09-.27-.22-.52,0-.75.23a7.62,7.62,0,0,1-6.73,1.69c-.7-.15-1.44-.4-2.06.23a.77.77,0,0,0,.64.51C186.6,310.56,189.61,310.67,192.17,308.31Z" transform="translate(-93.71 -179.53)"/><path class="cls-7" d="M195.94,321.15a7,7,0,0,0,1.81-.54.61.61,0,0,0,.35-.61.6.6,0,0,0-.45-.53,31.48,31.48,0,0,1-7-2.43.64.64,0,0,0-.36-.05.6.6,0,0,0-.4.95C191.68,320.44,193.67,321.49,195.94,321.15Z" transform="translate(-93.71 -179.53)"/><path class="cls-4" d="M190.35,317.58a32.31,32.31,0,0,0,7.15,2.48,6.58,6.58,0,0,1-1.65.5c-2,.3-3.84-.7-5.5-3m-.18-1.19a1.2,1.2,0,0,0-.79,1.9c1.93,2.66,4.17,3.83,6.65,3.46a7.29,7.29,0,0,0,2-.59,1.21,1.21,0,0,0,.71-1.21,1.19,1.19,0,0,0-.91-1.06,31.59,31.59,0,0,1-6.9-2.38,1.14,1.14,0,0,0-.72-.12Zm.36,2.38Z" transform="translate(-93.71 -179.53)"/><path class="cls-5" d="M191.31,295.87c-.37-.95-.84-.32-1.29-.09C190.44,295.89,190.9,295.52,191.31,295.87Z" transform="translate(-93.71 -179.53)"/><path class="cls-10" d="M191.77,301.54l0,.3C192.14,301.7,192,301.62,191.77,301.54Z" transform="translate(-93.71 -179.53)"/><path class="cls-10" d="M206.81,262.58a7.06,7.06,0,0,0,.57-1.41c.3-1.77,0-3.39-1.65-4.4-1.15-.73-2.21-.32-3.13.59-1.83,1.81-2.34,3.26-1.31,4.89s-.12,2.64-.74,3.83c2.88-.48,3.87-1.85,3.14-4.69a1.66,1.66,0,0,1,1-2.18c1-.32.89.79,1.09,1.41S206,262.16,206.81,262.58Z" transform="translate(-93.71 -179.53)"/><path class="cls-5" d="M206.81,262.58c-.78-.42-.8-1.25-1-2s-.12-1.73-1.09-1.41a1.66,1.66,0,0,0-1,2.18c.73,2.84-.26,4.21-3.14,4.69C204,267.2,206.37,265.89,206.81,262.58Z" transform="translate(-93.71 -179.53)"/><path class="cls-6" d="M142,317.45a11.49,11.49,0,0,0,4.67-1.79,4.42,4.42,0,0,0,2.27-4,1,1,0,0,0-.83-.94,2.44,2.44,0,0,0-.81,0,4.1,4.1,0,0,0-.91.26,1.52,1.52,0,0,1-.32.11,12.38,12.38,0,0,1-1.8.42,6.29,6.29,0,0,1-3.3-.3l-.23-.08a2.4,2.4,0,0,1-.7-.35h0a.37.37,0,0,1,0-.14,8.3,8.3,0,0,0,3.66.28,9.28,9.28,0,0,0,3.05-1l.22-.12a2.17,2.17,0,0,1,.66-.3.28.28,0,0,1,.2,0,1,1,0,0,0,.63.12.9.9,0,0,0,.22-.06,1,1,0,0,0,.58-.61,3.25,3.25,0,0,0,0-2.68,3.17,3.17,0,0,0-2.11-1.46,9.58,9.58,0,0,0-2.92-.18,13.49,13.49,0,0,1-4.84-.47L139,304h0a9,9,0,0,1,1.64-.34l.39-.06.66-.1a15,15,0,0,1,6.39.1,1,1,0,0,0,.42,0,1,1,0,0,0,.51-.23,1,1,0,0,0,.34-.9l-.06-.41q0-.45-.12-.9c-.41-2.77-1.39-3.63-4.2-3.67-1,0-2,.05-3,.12l-1.16.07-1.26,0a4.19,4.19,0,0,1,1.83-.65c.37-.08.76-.15,1.14-.27a8.58,8.58,0,0,1,1.27-.29,6.78,6.78,0,0,1,4.66.93,1,1,0,0,0,.67.13.53.53,0,0,0,.17,0,1,1,0,0,0,.61-.57,4.59,4.59,0,0,0-.08-3.89,4.82,4.82,0,0,0-3.2-2.43,18.14,18.14,0,0,0-7-.36,20.71,20.71,0,0,0-8.68,3.56,4.14,4.14,0,0,0-1.79,5.05,117.51,117.51,0,0,1,5,15,4.46,4.46,0,0,0,3.83,3.39A12.35,12.35,0,0,0,142,317.45Z" transform="translate(-93.71 -179.53)"/><path class="cls-4" d="M139.78,291.32a17,17,0,0,1,6.62.35,3.53,3.53,0,0,1,2.6,5,7.8,7.8,0,0,0-5.33-1.06,9.32,9.32,0,0,0-1.42.32c-1.3.4-2.89.34-3.82,1.65l-.88.1a3.32,3.32,0,0,0-.83-.17c-.2,0-.35.18-.38.64a8.29,8.29,0,0,0,4.56.61c1.36-.07,2.72-.2,4.08-.18,2.34,0,2.88.54,3.22,2.81l.18,1.3a16,16,0,0,0-6.82-.14l-.66.11a6.84,6.84,0,0,0-3.36,1.05c-.17.13-.3.26,0,.29.11.88.91.92,1.5,1.12a14.26,14.26,0,0,0,5.2.51,8.55,8.55,0,0,1,2.62.16c1.51.39,2,1.29,1.44,2.83a1.27,1.27,0,0,0-.83-.15,3.82,3.82,0,0,0-1.21.53,8.45,8.45,0,0,1-2.72.93,7.81,7.81,0,0,1-4.21-.6,1.19,1.19,0,0,0-.55-.16.37.37,0,0,0-.24.16c-.41.6.35.65.53,1-.32,1.28.75,1.54,1.51,1.84a7.35,7.35,0,0,0,3.82.35,15,15,0,0,0,1.94-.44,8,8,0,0,1,1.08-.35,1.69,1.69,0,0,1,.5,0,3.46,3.46,0,0,1-1.82,3.14,10.6,10.6,0,0,1-4.26,1.64,11.23,11.23,0,0,1-3.74-.09,3.47,3.47,0,0,1-3-2.64,120,120,0,0,0-5-15.15,3.18,3.18,0,0,1,1.43-3.86,19.77,19.77,0,0,1,8.26-3.4m-2.2,12.62,0,0h0v0m1.91-14.6a21.59,21.59,0,0,0-9.1,3.72,5.16,5.16,0,0,0-2.17,6.24,117.2,117.2,0,0,1,4.94,14.9,5.49,5.49,0,0,0,4.62,4.15,13.82,13.82,0,0,0,4.39.1,12.77,12.77,0,0,0,5.07-1.95,5.37,5.37,0,0,0,2.72-4.92,1.35,1.35,0,0,1,.28-2.35,4.25,4.25,0,0,0-.1-3.48,3.5,3.5,0,0,0-1.09-1.21,2.06,2.06,0,0,0,.64-.37,2,2,0,0,0,.68-1.79l-.06-.41c0-.3-.08-.61-.13-.92a6.94,6.94,0,0,0-.73-2.46l.18,0a2,2,0,0,0,1.23-1.15,5.58,5.58,0,0,0-.12-4.73,5.75,5.75,0,0,0-3.85-2.94,19.12,19.12,0,0,0-7.4-.38l.29,2-.29-2Z" transform="translate(-93.71 -179.53)"/><path class="cls-7" d="M137.17,326.05a1,1,0,0,0,.82-.72,1,1,0,0,0-.53-1.17c-3.24-1.58-5.44-4.38-6.91-8.79a49.3,49.3,0,0,1-1.82-9c-.09-.62-.19-1.25-.29-1.95-.05-.35-.11-.71-.16-1.11a1,1,0,0,0-.71-.81,1,1,0,0,0-.43,0,1,1,0,0,0-.61.33l-.66.74a50.28,50.28,0,0,0-5.91,7.55c-2.12,3.58-1.57,7,1.6,9.78a13,13,0,0,0,2.86,2,34.77,34.77,0,0,0,12.51,3.21A.65.65,0,0,0,137.17,326.05Z" transform="translate(-93.71 -179.53)"/><path class="cls-4" d="M127.28,303.45c.18,1.19.32,2.12.45,3.05a51.28,51.28,0,0,0,1.86,9.19c1.34,4,3.43,7.42,7.44,9.37A33.85,33.85,0,0,1,124.87,322a12.13,12.13,0,0,1-2.64-1.84c-2.81-2.5-3.31-5.3-1.4-8.52a54.92,54.92,0,0,1,6.45-8.14m-.29-2a2,2,0,0,0-1.21.65l-.66.74a50,50,0,0,0-6,7.71,8.61,8.61,0,0,0-1.32,5.88,9,9,0,0,0,3.12,5.16,13.83,13.83,0,0,0,3.07,2.14,35.62,35.62,0,0,0,12.87,3.31,2.57,2.57,0,0,0,.48,0A2,2,0,0,0,139,325.6a2,2,0,0,0-1.06-2.34c-3-1.48-5-4-6.4-8.21a49,49,0,0,1-1.78-8.83c-.09-.63-.18-1.25-.29-2-.05-.35-.1-.71-.16-1.1a2,2,0,0,0-1.41-1.63,1.85,1.85,0,0,0-.87-.06Z" transform="translate(-93.71 -179.53)"/><path class="cls-6" d="M134.49,291.49a2.37,2.37,0,0,0,.69-.26l.08,0a18,18,0,0,1,3.94-1.32,1.66,1.66,0,0,0,1.48-1.92c-.25-2.74-3.13-6.34-5.72-7.12a4,4,0,0,0-1.72-.17,2.52,2.52,0,0,0-1.68,1,4,4,0,0,0-.51,3,.11.11,0,0,0,0,.05,12.93,12.93,0,0,0,.93,2.6,13.57,13.57,0,0,1,1,3,1.28,1.28,0,0,0,1.46,1.12Z" transform="translate(-93.71 -179.53)"/><path class="cls-4" d="M133.39,281.66a3,3,0,0,1,1.28.13c2.24.68,4.8,3.92,5,6.26.06.62-.22.73-.7.84a19.48,19.48,0,0,0-4.15,1.39,1.61,1.61,0,0,1-.49.21c-.15,0-.28,0-.32-.3-.37-2.14-1.64-4-2-5.66s.28-2.72,1.35-2.87m-.3-2a3.49,3.49,0,0,0-2.34,1.39,4.92,4.92,0,0,0-.7,3.78.36.36,0,0,1,0,.1,14.59,14.59,0,0,0,1,2.8,12.76,12.76,0,0,1,1,2.8,2.29,2.29,0,0,0,2.59,1.94,3.19,3.19,0,0,0,1-.36l.05,0a17.54,17.54,0,0,1,3.73-1.24,2.64,2.64,0,0,0,2.26-3c-.29-3.19-3.41-7.08-6.43-8a5,5,0,0,0-2.16-.2Z" transform="translate(-93.71 -179.53)"/><path class="cls-5" d="M136.25,321.21a8.81,8.81,0,0,0,4.73-1.92,1,1,0,0,0,.31-1,1,1,0,0,0-.69-.75l-.15-.05a1.79,1.79,0,0,0-.61-.13c-4.31-.07-5.44-1.75-6.34-5.49l-.69-2.73c-.11-.4-.21-.81-.32-1.21a1,1,0,0,0-1.06-.76l-.32,0h-.05a1,1,0,0,0-.85,1.14c.08.54.15,1.08.23,1.62.16,1.23.33,2.5.59,3.75a18.06,18.06,0,0,0,2.22,6.24,1,1,0,0,1,.1.18,1.86,1.86,0,0,0,1.89,1.18l1-.14Z" transform="translate(-93.71 -179.53)"/><path class="cls-4" d="M131.21,308.23l.31,0c.33,1.32.68,2.62,1,3.94.95,3.93,2.3,6.18,7.31,6.25a2.33,2.33,0,0,1,.48.14,7.71,7.71,0,0,1-4.21,1.69l-1,.13c-.63.08-.78-.51-1-.9a17,17,0,0,1-2.09-5.9c-.36-1.75-.54-3.54-.8-5.32m-.3-2a2,2,0,0,0-1.28.74,2,2,0,0,0-.41,1.54c.08.53.15,1.08.22,1.61.17,1.24.34,2.53.61,3.81a18.65,18.65,0,0,0,2.35,6.57l.06.12a3.83,3.83,0,0,0,.72,1,2.66,2.66,0,0,0,2.18.7l1-.13a9.81,9.81,0,0,0,5.25-2.17,2,2,0,0,0,.63-1.94,2,2,0,0,0-1.39-1.49l-.09,0a2.85,2.85,0,0,0-.93-.18c-3.67-.06-4.53-1.17-5.39-4.72-.22-.92-.46-1.84-.69-2.73-.1-.41-.21-.82-.31-1.23a2,2,0,0,0-2.13-1.51l-.16,0H131l-.11,0Z" transform="translate(-93.71 -179.53)"/><path class="cls-5" d="M137.54,303.67a6.84,6.84,0,0,1,3.36-1.05,16.86,16.86,0,0,1,7.48,0c.15,1.18-.2,1.55-1.53,1.46-2.16-.16-4.35.07-6.54.07-.91,0-1.82-.16-2.73-.24l0,0Z" transform="translate(-93.71 -179.53)"/><path class="cls-5" d="M138.43,297.54c.93-1.31,2.52-1.25,3.82-1.65a8,8,0,0,1,6.75.74c-.22.86-.6,1.26-1.56.81-1.34-.64-2.79-.3-4.19-.26C141.64,297.24,140,297.42,138.43,297.54Z" transform="translate(-93.71 -179.53)"/><path class="cls-5" d="M139.11,310.27c-.18-.33-.94-.38-.53-1,.2-.29.52-.12.79,0a7.61,7.61,0,0,0,6.93-.33c.63-.34,1.26-.8,2-.38a.75.75,0,0,1-.47.68C145.09,310.81,142.24,311.78,139.11,310.27Z" transform="translate(-93.71 -179.53)"/><path class="cls-7" d="M139.22,323.65c2.27-.33,3.87-1.92,4.89-4.84a.61.61,0,0,0-.66-.79.64.64,0,0,0-.33.16,31.76,31.76,0,0,1-6,4.36.6.6,0,0,0,.23,1.11,6.64,6.64,0,0,0,1.89,0Z" transform="translate(-93.71 -179.53)"/><path class="cls-4" d="M143.54,318.61c-.93,2.67-2.35,4.14-4.4,4.44a6.26,6.26,0,0,1-1.73,0,31.72,31.72,0,0,0,6.13-4.44m-.18-1.19a1.18,1.18,0,0,0-.65.32A31.1,31.1,0,0,1,136.8,322a1.18,1.18,0,0,0-.57,1.28,1.2,1.2,0,0,0,1,.95,7.81,7.81,0,0,0,2.05,0c2.48-.37,4.28-2.13,5.37-5.24a1.21,1.21,0,0,0-.49-1.41,1.23,1.23,0,0,0-.83-.18Z" transform="translate(-93.71 -179.53)"/><path class="cls-5" d="M136.34,298.11c.08-1,.72-.55,1.21-.47C137.18,297.87,136.63,297.65,136.34,298.11Z" transform="translate(-93.71 -179.53)"/><path class="cls-10" d="M137.54,303.67l.06.29C137.23,303.93,137.36,303.81,137.54,303.67Z" transform="translate(-93.71 -179.53)"/><path class="cls-11" d="M106.59,216.61a9.13,9.13,0,0,1,7.68-10.35l.74-.07c-.05-.24-.11-.48-.14-.72a9.11,9.11,0,0,1,7.68-10.35,9,9,0,0,1,3.24.11,9.11,9.11,0,0,1,14.14-4.1,9.11,9.11,0,0,1,15.84-5.32A9.11,9.11,0,0,1,171.6,188a9.12,9.12,0,0,1,15.18,5.38,9,9,0,0,1,0,2.38,9.11,9.11,0,0,1,15.09,4.35,9.18,9.18,0,0,1,0,4.63,9.46,9.46,0,0,1,1.42-.33A9.1,9.1,0,0,1,212,218.79a9.11,9.11,0,0,1,2.45,18v0c-.52,15.66-2.76,16.13-2.76,16.13-.2-1.39,1.22-7.4-3.15-8.17s-10.33-2.28-11.71-2.52a34.28,34.28,0,0,1-4.53-1.06c-3-1-.49-.54-5.79-1.67-5.66-1.21-6.53-3.05-9.23-3.82a57,57,0,0,0-10.06-2.17c-2.27-.27-3.48,0-5.08-.17-3.72-.35-7.88-1.69-11.88-2a49.48,49.48,0,0,0-12.89.69c-2.77.41-14.91,5.59-19.28,4.82-4.09-.73-8.36-2.67-7-13.68A9.11,9.11,0,0,1,106.59,216.61Z" transform="translate(-93.71 -179.53)"/><g class="cls-12"><path d="M106.69,217.26a9.06,9.06,0,0,1,1.68-6.74c0,.17,0,.34,0,.52a9.09,9.09,0,0,0,4.52,6.58c-1.38,11,2.89,13,7,13.68,4.36.78,16.51-4.41,19.28-4.81a49.41,49.41,0,0,1,12.89-.69c4,.3,8.15,1.63,11.88,2,1.59.15,2.8-.1,5.08.17a57.14,57.14,0,0,1,10.06,2.17c2.69.77,3.57,2.61,9.22,3.82,5.31,1.13,2.82.69,5.8,1.67a32.46,32.46,0,0,0,4.53,1c1.38.25,7.34,1.75,11.71,2.53s2.94,6.78,3.15,8.16c0,0,.12,0,.31-.25-.85,6.22-2,6.48-2,6.48-.21-1.39,1.21-7.4-3.15-8.17s-10.33-2.28-11.71-2.52a34.44,34.44,0,0,1-4.54-1.06c-3-1-.48-.54-5.79-1.67-5.65-1.21-6.53-3-9.22-3.82a57.33,57.33,0,0,0-10.06-2.17c-2.28-.27-3.49,0-5.08-.17-3.73-.35-7.89-1.69-11.88-2a49.41,49.41,0,0,0-12.89.69c-2.78.41-14.92,5.59-19.28,4.82-4.09-.73-8.36-2.67-7-13.69A9.07,9.07,0,0,1,106.69,217.26Z" transform="translate(-93.71 -179.53)"/><path d="M116.1,200.69c-.1,0-.19,0-.29.06a10,10,0,0,1,.83-1.37c0,.17,0,.34,0,.51s.09.49.15.73C116.59,200.64,116.35,200.65,116.1,200.69Z" transform="translate(-93.71 -179.53)"/><path d="M216.28,231.24v0a9.1,9.1,0,0,0,5.31-3.49A9.09,9.09,0,0,1,216,237C216.1,235.32,216.21,233.44,216.28,231.24Z" transform="translate(-93.71 -179.53)"/></g><circle class="cls-13" cx="109.15" cy="41.95" r="2.29"/><circle class="cls-13" cx="81.44" cy="45.05" r="3.28"/><circle class="cls-13" cx="66.78" cy="24.35" r="2.29"/><circle class="cls-13" cx="38.7" cy="27.18" r="2.29"/><circle class="cls-13" cx="29.87" cy="41.41" r="3.28"/><circle class="cls-13" cx="89.13" cy="25.36" r="2.62"/><g class="cls-14"><path class="cls-15" d="M122.45,194.47a9.29,9.29,0,0,1,3.25.11,9.11,9.11,0,0,1,14.14-4.1,9.1,9.1,0,0,1,15.83-5.31,9.11,9.11,0,0,1,15.84,2.22,9.1,9.1,0,0,1,15.2,7.76,9.11,9.11,0,0,1,15.06,9,8.4,8.4,0,0,1,1.42-.34,9.1,9.1,0,0,1,8.71,14.35,9.1,9.1,0,0,1,7.58,14.72,8.67,8.67,0,0,0-.06-2,9.11,9.11,0,0,0-9.44-7.77,9.1,9.1,0,0,0-8.71-14.35,8.4,8.4,0,0,0-1.42.34,9.11,9.11,0,0,0-9.21-11.48,9.07,9.07,0,0,0-5.85,2.49,9,9,0,0,0,0-2.37,9.11,9.11,0,0,0-15.18-5.38,9.11,9.11,0,0,0-15.83-2.23,9.11,9.11,0,0,0-15.84,5.31,9.1,9.1,0,0,0-14.14,4.11,9,9,0,0,0-9.06,3.27A9.09,9.09,0,0,1,122.45,194.47Z" transform="translate(-93.71 -179.53)"/></g></g></svg>